<svg width="222" height="91" viewBox="0 0 222 91" fill="none" xmlns="http://www.w3.org/2000/svg">
<path d="M7.56566 20.1677L5.35177 2.77802C28.5976 10.9614 51.8435 7.89263 75.0894 0.732178C75.0894 0.732178 76.9343 29.715 77.3033 42.672C68.4477 65.5855 55.1644 70.6319 49.6296 70.2909C41.6596 71.9276 27.1217 61.4256 20.849 55.97C10.8865 49.8325 14.2073 37.5574 9.77955 38.5803C5.35176 39.6032 3.13788 39.6032 0.923983 29.374C-0.847131 21.1906 4.6138 19.8267 7.56566 20.1677Z" fill="white"/>
<path fill-rule="evenodd" clip-rule="evenodd" d="M75.6719 0.700631L75.0908 0.732216C75.6719 0.700631 75.6719 0.700631 75.6719 0.700631L75.672 0.70197L75.7519 1.97183C75.8031 2.78983 75.8766 3.97281 75.966 5.43285C76.1447 8.35291 76.3869 12.3813 76.6406 16.8148C77.148 25.6795 77.7019 36.1712 77.8866 42.6579L77.8894 42.7583L77.8529 42.8529C68.9979 65.7649 55.6284 71.1417 49.6756 70.8324C47.5465 71.2471 45.0522 70.8612 42.4606 70.0183C39.825 69.1612 37.0251 67.8102 34.2975 66.2472C28.8622 63.1326 23.6475 59.1374 20.4868 56.3924C15.3463 53.206 13.6483 48.4448 12.6744 44.7162C12.5315 44.169 12.4003 43.628 12.2774 43.1209C12.1933 42.7742 12.1131 42.4433 12.0357 42.1372C11.8394 41.3621 11.6526 40.7115 11.4356 40.1988C11.2148 39.6775 10.9906 39.3688 10.7651 39.209C10.576 39.075 10.333 39.0072 9.92217 39.1022C7.74986 39.604 5.77562 39.9622 4.13363 38.5965C3.34354 37.9394 2.67961 36.9222 2.07671 35.4638C1.47187 34.0007 0.910858 32.0494 0.354676 29.4795C-0.553789 25.282 0.364977 22.6772 2.07535 21.1833C3.51119 19.9293 5.3999 19.5536 6.90684 19.5849L4.66293 1.95947L5.56043 2.27542C28.6258 10.3952 51.7183 7.3647 74.9068 0.221942L75.6273 0L75.6719 0.700631ZM74.5539 1.46327C51.7863 8.39301 28.928 11.3656 6.04277 3.59087L8.23197 20.7866L7.49491 20.7015C6.12612 20.5434 4.22029 20.7902 2.87496 21.9652C1.55968 23.1139 0.633536 25.2827 1.49618 29.2686C2.04695 31.8133 2.59289 33.698 3.16417 35.0799C3.7374 36.4665 4.31878 37.3033 4.91238 37.7969C6.03775 38.7329 7.38434 38.5796 9.63983 38.0585C10.3359 37.8977 10.9577 37.9898 11.4735 38.3553C11.9527 38.695 12.2734 39.2253 12.5196 39.8068C12.7696 40.3971 12.9719 41.113 13.1692 41.8922C13.2529 42.2228 13.3345 42.5598 13.4186 42.9072C13.5382 43.4012 13.663 43.9162 13.806 44.4638C14.7667 48.1416 16.3831 52.5714 21.1733 55.5225L21.2139 55.5475L21.2494 55.5783C24.365 58.2881 29.537 62.2535 34.911 65.333C37.5982 66.8728 40.3192 68.1815 42.8471 69.0036C45.3857 69.8292 47.8375 70.3775 49.6756 70C54.8274 70.3174 67.9057 65.3119 76.72 42.5856C76.5329 36.1077 75.9829 25.6919 75.4782 16.8716C75.2245 12.4398 74.9824 8.41274 74.8037 5.49361C74.7144 4.03406 74.6409 2.85153 74.5897 2.03392L74.5539 1.46327Z" fill="black"/>
<path fill-rule="evenodd" clip-rule="evenodd" d="M43.9167 31.9448C43.8312 31.8156 43.716 31.6565 43.5701 31.4735C43.1662 30.9668 42.5694 30.3297 41.8278 29.7085C40.3145 28.4411 38.3712 27.3812 36.3478 27.3812C34.3244 27.3812 32.381 28.4411 30.8677 29.7085C30.1261 30.3297 29.5293 30.9668 29.1254 31.4735C28.9796 31.6565 28.8643 31.8156 28.7789 31.9448C28.8495 32.0288 28.9393 32.1279 29.0496 32.24C29.4397 32.6366 30.0256 33.1349 30.7627 33.6216C32.2509 34.6042 34.2304 35.4589 36.3478 35.4589C38.4652 35.4589 40.4446 34.6042 41.9328 33.6216C42.6699 33.1349 43.2558 32.6366 43.6459 32.24C43.7562 32.1279 43.846 32.0288 43.9167 31.9448ZM28.6222 32.2125C28.6226 32.2116 28.6231 32.2105 28.6236 32.2093C28.618 32.2257 28.6158 32.2278 28.6222 32.2125ZM44.0719 32.2093C44.0724 32.2105 44.0729 32.2116 44.0733 32.2125C44.0798 32.2278 44.0775 32.2257 44.0719 32.2093ZM36.3478 36.5346C41.2386 36.5346 45.2033 32.616 45.2033 31.9883C45.2033 31.3606 41.2386 26.3054 36.3478 26.3054C31.457 26.3054 27.4922 31.3606 27.4922 31.9883C27.4922 32.616 31.457 36.5346 36.3478 36.5346Z" fill="black"/>
<path d="M40.7745 31.42C40.7745 34.2448 39.2877 36.5346 37.4537 36.5346C35.6196 36.5346 34.1328 34.2448 34.1328 31.42C34.1328 28.5953 35.6196 26.5 37.4537 26.5C39.2877 26.5 40.7745 28.5953 40.7745 31.42Z" fill="black"/>
<path fill-rule="evenodd" clip-rule="evenodd" d="M70.1183 17.9832C70.2012 18.2702 70.0165 18.5649 69.7059 18.6415L53.5739 22.6168L55.769 45.9438L55.5772 46.121C54.3577 47.248 50.7515 49.0851 45.4451 48.3659C45.3333 48.3508 45.2207 48.3345 45.1074 48.3171L45.2932 47.2551L45.2988 47.2559L45.614 47.3016L45.6166 47.3019C50.2784 47.933 53.4156 46.4345 54.5611 45.5248L52.3295 21.8101L69.406 17.602C69.7166 17.5255 70.0355 17.6961 70.1183 17.9832Z" fill="black"/>
<path fill-rule="evenodd" clip-rule="evenodd" d="M70.8916 25.811C71.1871 25.928 71.3239 26.2442 71.1973 26.5172C70.6045 27.7955 69.2968 29.4586 67.2638 30.2531C65.1834 31.0661 62.4801 30.918 59.2545 28.7889C58.9929 28.6162 58.9324 28.2803 59.1192 28.0386C59.3061 27.7968 59.6696 27.7408 59.9312 27.9135C62.9045 29.8761 65.1825 29.8985 66.8104 29.2623C68.4855 28.6077 69.6132 27.202 70.1273 26.0935C70.2539 25.8204 70.5961 25.6939 70.8916 25.811Z" fill="black"/>
<path d="M57.498 55.5001C57.498 56.5149 56.8575 57.5028 55.6774 58.2615C54.5027 59.0166 52.8497 59.5001 50.998 59.5001C49.1464 59.5001 47.4934 59.0166 46.3187 58.2615C45.1386 57.5028 44.498 56.5149 44.498 55.5001C44.498 55.2344 44.5412 55.0952 44.5786 55.0271C44.6066 54.976 44.6389 54.9481 44.7044 54.9265C44.7877 54.8991 44.9258 54.8844 45.1455 54.9056C45.3613 54.9264 45.6205 54.978 45.9292 55.0537C46.1742 55.1137 46.446 55.1885 46.7404 55.2696C47.8935 55.5869 49.3944 56 50.998 56C52.6017 56 54.1026 55.5869 55.2557 55.2696C55.5501 55.1885 55.8219 55.1137 56.0669 55.0537C56.3756 54.978 56.6348 54.9264 56.8506 54.9056C57.0703 54.8844 57.2084 54.8991 57.2917 54.9265C57.3572 54.9481 57.3895 54.976 57.4175 55.0271C57.4549 55.0952 57.498 55.2344 57.498 55.5001Z" stroke="black"/>
<path d="M85.7301 50.7816C96.7032 36.4229 113.742 27.9995 131.814 27.9995L190.501 27.9995C207.898 27.9995 222.001 42.1025 222.001 59.4995V59.4995C222.001 76.8965 207.898 90.9995 190.501 90.9995L136.314 90.9995C115.737 90.9995 96.6739 80.1894 86.1107 62.5313L82.001 55.6613L85.7301 50.7816Z" fill="#F090BA"/>
</svg>
