<svg width="121" height="90" viewBox="0 0 121 90" fill="none" xmlns="http://www.w3.org/2000/svg">
<path d="M29.356 87.9253C29.356 88.3537 29.6349 87.7115 29.9318 87.5345C30.5795 87.1484 30.9234 86.189 31.327 85.641C31.678 85.1645 31.8561 84.4027 31.9692 83.8605C32.301 82.2701 32.5497 80.6506 32.6225 79.04C32.9209 72.4395 33.8004 65.9109 32.8218 59.3151C32.1043 54.479 32.0927 49.6015 31.2938 44.7668C30.9815 42.8772 30.4595 41.0579 29.6993 39.2689C29.3827 38.524 28.399 37.8879 27.7006 37.3754C27.228 37.0286 26.0464 36.2859 25.8459 35.7512C25.4864 34.7923 25.1268 33.5947 25.3919 32.581C25.8236 30.9303 25.5177 28.8784 25.4252 27.209C25.3311 25.5126 25.4888 23.7568 25.6189 22.0628C25.7592 20.2361 25.2798 18.511 25.0708 16.7082C24.8513 14.8144 24.2814 12.9575 23.7974 11.1016C23.5584 10.1851 23.2837 9.63173 23.9746 8.83471C24.5088 8.21854 24.947 7.70763 24.5172 6.93692C24.2065 6.3799 23.2556 5.27613 23.4763 4.71342C23.6465 4.27968 25.2935 3.85027 25.0708 3.56259C24.7 3.08344 24.9033 2.463 24.3954 2.03393C23.8675 1.58797 23.2067 1.43065 22.5019 1.23486C21.8686 1.05893 21.3372 1.12396 20.686 1.15234C19.856 1.18851 19.0635 1.00738 18.2389 1.00035C17.1939 0.991438 16.1284 1.15669 15.061 1.15669C14.0248 1.15669 13.0526 1.04486 12.0159 1.16103C11.4257 1.22716 11.5087 1.5697 11.263 2.02524C10.9187 2.66354 10.3123 3.13358 9.97851 3.73195C9.67255 4.28051 12.2873 3.64436 11.8664 4.56142C11.5666 5.21481 10.0835 7.91305 11.1412 8.20936C11.6682 8.35701 11.7464 8.42443 11.6394 8.83471C11.2834 10.2001 10.8578 11.7688 10.8578 13.1633C10.8578 14.613 10.2343 15.9052 10.0724 17.3526C9.91688 18.7434 9.94271 20.0777 9.56881 21.4374C9.56881 24.3758 9.56881 24.7455 9.56881 27.209C10.0077 30.5365 9.6447 31.5806 9.56881 33.2473C9.46695 35.4845 5.84138 37.8385 4.54173 39.6771C3.20445 41.569 2.82125 43.7511 2.4711 45.8699C1.99656 48.7414 2.13892 51.4599 2.13892 54.3383C2.13892 59.0815 2.23857 63.8347 2.23857 68.5696C2.23857 71.7728 2.24003 75.1313 1.75137 78.3104C1.4914 80.0017 1.83129 82.2504 2.37145 83.9126C2.64804 84.7637 2.74233 85.9835 3.34586 86.7354C4.56751 88.2574 7.74146 88.5108 9.8401 88.7852C11.4274 88.9927 12.7898 89.1093 14.3634 88.8547C15.3738 88.6912 16.4873 88.6289 17.5191 88.6289C19.2015 88.6289 20.8729 88.7929 22.5517 88.6202C23.672 88.5049 24.7175 88.3883 25.8459 88.3336C26.4061 88.3064 26.9188 88.5314 27.4626 88.3509C27.9653 88.1841 28.5379 88.0535 29.0792 87.9861C30.0978 87.8593 30.1009 87.7313 30.1533 86.9091" stroke="#FFD301" stroke-width="2" stroke-linecap="round"/>
<path d="M8.27921 85.9034C8.00631 85.9077 8.13063 85.9764 8.33339 86.0761C8.44188 86.3606 8.60372 86.4545 8.96463 86.496C9.52748 86.9221 10.5973 87.1727 11.2337 87.4621C11.8443 87.7397 12.8202 87.8806 13.5148 87.97C15.5523 88.2324 17.6271 88.4291 19.6905 88.4867C28.1466 88.7227 36.5106 89.4183 44.9606 88.6444C51.1564 88.0769 57.4051 88.0677 63.5989 87.4358C66.0198 87.1888 68.3505 86.776 70.6425 86.1747C71.5968 85.9243 72.4117 85.1463 73.0682 84.594C73.5125 84.2202 74.4641 83.2856 75.1491 83.1271C76.3776 82.8427 77.9119 82.5583 79.2105 82.768C81.3253 83.1094 83.954 82.8675 86.0928 82.7943C88.2661 82.7199 90.5155 82.8446 92.6857 82.9475C95.026 83.0585 97.2361 82.6793 99.5457 82.514C101.972 82.3404 104.351 81.8897 106.728 81.5069C107.903 81.3179 108.612 81.1005 109.633 81.647C110.422 82.0695 111.077 82.4161 112.064 82.0761C112.778 81.8304 114.192 81.0783 114.913 81.2529C115.468 81.3875 116.018 82.6901 116.387 82.514C117.001 82.2207 117.796 82.3815 118.345 81.9798C118.917 81.5623 119.118 81.0397 119.369 80.4823C119.594 79.9814 119.511 79.5611 119.475 79.046C119.428 78.3895 119.66 77.7628 119.669 77.1106C119.681 76.2841 119.469 75.4414 119.469 74.5971C119.469 73.7776 119.612 73.0087 119.464 72.1888C119.379 71.722 118.94 71.7876 118.356 71.5933C117.539 71.321 116.937 70.8413 116.17 70.5774C115.467 70.3354 116.282 72.4034 115.107 72.0706C114.27 71.8334 110.813 70.6604 110.434 71.4969C110.245 71.9138 110.158 71.9756 109.633 71.891C107.883 71.6094 105.874 71.2728 104.087 71.2728C102.23 71.2728 100.574 70.7797 98.7201 70.6516C96.9383 70.5286 95.2289 70.5491 93.4869 70.2533L86.0928 70.2533C81.8298 70.6005 80.4922 70.3134 78.357 70.2533C75.4907 70.1728 72.475 67.3053 70.1195 66.2774C67.6958 65.2197 64.9002 64.9166 62.1857 64.6397C58.507 64.2644 55.0242 64.377 51.3366 64.377C45.2599 64.377 39.1705 64.4558 33.1045 64.4558L33.068 64.4558C28.9753 64.4558 24.6861 64.4558 20.6252 64.0705C18.4584 63.8648 15.5776 64.1337 13.4481 64.5609C12.3576 64.7796 10.7949 64.8542 9.83167 65.3316C7.88187 66.2978 7.55712 68.8081 7.20563 70.4679C6.93977 71.7233 6.79045 72.8008 7.11661 74.0454C7.32602 74.8445 7.40591 75.7252 7.40591 76.5413C7.40591 77.8719 7.19579 79.1939 7.41704 80.5217C7.56469 81.4077 7.7141 82.2346 7.78425 83.1271C7.81907 83.5701 7.53081 83.9756 7.76199 84.4057C7.97572 84.8033 8.143 85.2562 8.22934 85.6843C8.24564 85.7651 8.26197 85.8379 8.27921 85.9034Z" fill="#F090BA"/>
<path d="M8.30723 85.9032C7.75844 85.9032 8.58118 86.1238 8.80797 86.3586C9.30265 86.8709 10.5318 87.1429 11.2337 87.4621C11.8443 87.7397 12.8202 87.8806 13.5148 87.97C15.5523 88.2324 17.6271 88.4291 19.6905 88.4867C28.1466 88.7227 36.5106 89.4183 44.9606 88.6444C51.1564 88.0769 57.4051 88.0677 63.5989 87.4358C66.0198 87.1888 68.3505 86.776 70.6425 86.1747C71.5968 85.9243 72.4117 85.1463 73.0683 84.594C73.5125 84.2202 74.4641 83.2856 75.1491 83.1271C76.3776 82.8427 77.9119 82.5583 79.2105 82.768C81.3253 83.1094 83.954 82.8675 86.0928 82.7943C88.2661 82.7199 90.5155 82.8446 92.6857 82.9475C95.026 83.0585 97.2361 82.6793 99.5457 82.514C101.972 82.3404 104.351 81.8897 106.728 81.5069C107.903 81.3179 108.612 81.1005 109.633 81.647C110.422 82.0695 111.077 82.4161 112.064 82.0761C112.778 81.8304 114.192 81.0783 114.913 81.2529C115.468 81.3875 116.018 82.6901 116.387 82.514C117.001 82.2207 117.796 82.3815 118.345 81.9798C118.917 81.5623 119.118 81.0397 119.369 80.4823C119.594 79.9814 119.511 79.5611 119.475 79.046C119.428 78.3895 119.66 77.7628 119.669 77.1106C119.681 76.2841 119.469 75.4414 119.469 74.5971C119.469 73.7776 119.612 73.0087 119.464 72.1888C119.379 71.722 118.94 71.7876 118.356 71.5933C117.539 71.321 116.937 70.8413 116.17 70.5774C115.467 70.3354 116.282 72.4034 115.107 72.0706C114.27 71.8334 110.813 70.6604 110.434 71.4969C110.245 71.9138 110.158 71.9756 109.633 71.891C107.883 71.6094 105.874 71.2728 104.087 71.2728C102.23 71.2728 100.574 70.7797 98.7201 70.6516C96.9383 70.5286 95.2289 70.5491 93.4869 70.2533C89.7224 70.2533 89.2489 70.2533 86.0928 70.2533C81.8298 70.6005 80.4922 70.3134 78.357 70.2533C75.4907 70.1728 72.475 67.3053 70.1195 66.2774C67.6958 65.2197 64.9002 64.9166 62.1857 64.6397C58.507 64.2644 55.0242 64.377 51.3366 64.377C45.2599 64.377 39.1705 64.4558 33.1045 64.4558C29.0007 64.4558 24.6981 64.4569 20.6252 64.0705C18.4584 63.8648 15.5776 64.1337 13.4481 64.5609C12.3576 64.7796 10.7949 64.8542 9.83167 65.3316C7.88187 66.2978 7.55712 68.8081 7.20562 70.4679C6.93977 71.7233 6.79045 72.8008 7.1166 74.0454C7.32602 74.8445 7.40592 75.7252 7.40592 76.5413C7.40592 77.8719 7.19578 79.1939 7.41704 80.5217C7.56469 81.4077 7.7141 82.2346 7.78425 83.1271C7.81907 83.5701 7.53081 83.9756 7.76199 84.4057C7.97571 84.8033 8.143 85.2562 8.22934 85.6843C8.39182 86.4899 8.55581 86.4923 9.60913 86.5338" stroke="#034E98" stroke-width="2" stroke-linecap="round"/>
</svg>
