<svg width="45" height="91" viewBox="0 0 45 91" fill="none" xmlns="http://www.w3.org/2000/svg">
<path d="M39.4246 88.0619C39.4246 88.4909 39.7055 87.8477 40.0046 87.6704C40.6572 87.2837 41.0036 86.3228 41.4102 85.774C41.7638 85.2967 41.9432 84.5337 42.0572 83.9906C42.3914 82.3978 42.642 80.7757 42.7153 79.1626C43.016 72.5517 43.902 66.0129 42.9161 59.4067C42.1933 54.563 42.1816 49.6778 41.3767 44.8356C41.0621 42.943 40.5363 41.1208 39.7704 39.329C39.4515 38.5829 38.4604 37.9458 37.7569 37.4326C37.2808 37.0852 36.0903 36.3413 35.8884 35.8058C35.5261 34.8454 35.1639 33.6459 35.431 32.6306C35.8659 30.9773 35.5577 28.9222 35.4645 27.2502C35.3697 25.5511 35.5286 23.7926 35.6597 22.0959C35.801 20.2663 35.318 18.5385 35.1075 16.7328C34.8864 14.8361 34.3122 12.9763 33.8247 11.1175C33.5839 10.1995 33.3071 9.64529 34.0031 8.84702C34.5413 8.22988 34.9828 7.71817 34.5497 6.94625C34.2368 6.38835 33.2788 5.28285 33.5012 4.71925C33.6726 4.28484 35.3318 3.85474 35.1075 3.56661C34.7339 3.08671 34.9387 2.4653 34.427 2.03555C33.8952 1.5889 33.2295 1.43132 32.5195 1.23523C31.8815 1.05902 31.3461 1.12416 30.69 1.15258C29.8539 1.18881 29.0555 1.00739 28.2247 1.00035C27.172 0.991425 26.0986 1.15693 25.0232 1.15693C23.9793 1.15693 23 1.04493 21.9555 1.16128C21.361 1.22752 21.4445 1.57059 21.197 2.02685C20.8501 2.66616 20.2392 3.13693 19.903 3.73624C19.5947 4.28566 22.2289 3.64851 21.8049 4.56702C21.5028 5.22143 20.0087 7.92391 21.0743 8.22068C21.6053 8.36857 21.684 8.43609 21.5762 8.84702C21.2176 10.2145 20.7888 11.7857 20.7888 13.1824C20.7888 14.6344 20.1606 15.9286 19.9976 17.3783C19.8409 18.7713 19.8669 20.1076 19.4902 21.4695C19.4902 24.4125 19.4902 24.7828 19.4902 27.2502C19.9324 30.5829 19.5667 31.6286 19.4902 33.2979C19.3876 35.5387 15.7351 37.8963 14.4258 39.7379C13.0785 41.6327 12.6925 43.8183 12.3397 45.9404C11.8617 48.8164 12.0051 51.5391 12.0051 54.4221C12.0051 59.1728 12.1055 63.9334 12.1055 68.6757C12.1055 71.884 12.1069 75.2477 11.6147 78.4319C11.3528 80.1258 11.6952 82.378 12.2393 84.0428C12.518 84.8953 12.613 86.117 13.221 86.8701C14.4517 88.3944 17.6493 88.6483 19.7635 88.9231C21.3627 89.1309 22.7351 89.2477 24.3204 88.9927C25.3383 88.829 26.4602 88.7665 27.4997 88.7665C29.1945 88.7665 30.8784 88.9308 32.5697 88.7578C33.6983 88.6424 34.7515 88.5256 35.8884 88.4707C36.4527 88.4435 36.9692 88.6689 37.517 88.4881C38.0235 88.321 38.6004 88.1903 39.1457 88.1228C40.1719 87.9957 40.1749 87.8675 40.2277 87.0441" stroke="#04417C" stroke-width="2" stroke-linecap="round"/>
<path d="M36.3923 88.0619C36.3923 88.4909 36.6733 87.8477 36.9724 87.6704C37.6249 87.2837 37.9714 86.3228 38.378 85.774C38.7316 85.2967 38.911 84.5337 39.025 83.9906C39.3592 82.3978 39.6098 80.7757 39.6831 79.1626C39.9837 72.5517 40.8698 66.0129 39.8839 59.4067C39.1611 54.563 39.1494 49.6778 38.3445 44.8356C38.0299 42.943 37.5041 41.1208 36.7382 39.329C36.4192 38.5829 35.4282 37.9458 34.7246 37.4326C34.2485 37.0852 33.0581 36.3413 32.8561 35.8058C32.4939 34.8454 32.1317 33.6459 32.3988 32.6306C32.8337 30.9773 32.5255 28.9222 32.4322 27.2502C32.3375 25.5511 32.4964 23.7926 32.6275 22.0959C32.7688 20.2663 32.2858 18.5385 32.0753 16.7328C31.8542 14.8361 31.28 12.9763 30.7924 11.1175C30.5517 10.1995 30.2748 9.64529 30.9709 8.84702C31.509 8.22988 31.9506 7.71817 31.5175 6.94625C31.2045 6.38835 30.2466 5.28285 30.4689 4.71925C30.6403 4.28484 32.2996 3.85474 32.0753 3.56661C31.7017 3.08671 31.9065 2.4653 31.3948 2.03555C30.863 1.5889 30.1973 1.43132 29.4873 1.23523C28.8493 1.05902 28.3139 1.12416 27.6578 1.15258C26.8216 1.18881 26.0233 1.00739 25.1925 1.00035C24.1397 0.991425 23.0664 1.15693 21.991 1.15693C20.9471 1.15693 19.9677 1.04493 18.9233 1.16128C18.3287 1.22752 18.4123 1.57059 18.1647 2.02685C17.8179 2.66616 17.207 3.13693 16.8707 3.73624C16.5625 4.28566 19.1967 3.64851 18.7727 4.56702C18.4706 5.22143 16.9765 7.92391 18.042 8.22068C18.573 8.36857 18.6518 8.43609 18.544 8.84702C18.1853 10.2145 17.7566 11.7857 17.7566 13.1824C17.7566 14.6344 17.1284 15.9286 16.9653 17.3783C16.8087 18.7713 16.8347 20.1076 16.458 21.4695C16.458 24.4125 16.458 24.7828 16.458 27.2502C16.9001 30.5829 16.5344 31.6286 16.458 33.2979C16.3554 35.5387 12.7029 37.8963 11.3935 39.7379C10.0463 41.6327 9.66027 43.8183 9.30752 45.9404C8.82945 48.8164 8.97286 51.5391 8.97286 54.4221C8.97286 59.1728 9.07326 63.9334 9.07326 68.6757C9.07326 71.884 9.07472 75.2477 8.58243 78.4319C8.32053 80.1258 8.66294 82.378 9.20712 84.0428C9.48576 84.8953 9.58076 86.117 10.1888 86.8701C11.4195 88.3944 14.6171 88.6483 16.7313 88.9231C18.3304 89.1309 19.7029 89.2477 21.2882 88.9927C22.3061 88.829 23.4279 88.7665 24.4674 88.7665C26.1623 88.7665 27.8462 88.9308 29.5375 88.7578C30.6661 88.6424 31.7193 88.5256 32.8561 88.4707C33.4205 88.4435 33.937 88.6689 34.4848 88.4881C34.9912 88.321 35.5682 88.1903 36.1135 88.1228C37.1396 87.9957 37.1427 87.8675 37.1955 87.0441" stroke="#FFD301" stroke-width="2" stroke-linecap="round"/>
<path d="M32.7683 88.0619C32.7683 88.4909 33.0492 87.8477 33.3484 87.6704C34.0009 87.2837 34.3474 86.3228 34.7539 85.774C35.1076 85.2967 35.287 84.5337 35.4009 83.9906C35.7352 82.3978 35.9857 80.7757 36.0591 79.1626C36.3597 72.5517 37.2458 66.0129 36.2599 59.4067C35.537 54.563 35.5254 49.6778 34.7205 44.8356C34.4059 42.943 33.88 41.1208 33.1141 39.329C32.7952 38.5829 31.8042 37.9458 31.1006 37.4326C30.6245 37.0852 29.4341 36.3413 29.2321 35.8058C28.8699 34.8454 28.5077 33.6459 28.7748 32.6306C29.2096 30.9773 28.9014 28.9222 28.8082 27.2502C28.7135 25.5511 28.8724 23.7926 29.0034 22.0959C29.1448 20.2663 28.6617 18.5385 28.4513 16.7328C28.2301 14.8361 27.6559 12.9763 27.1684 11.1175C26.9276 10.1995 26.6508 9.64529 27.3469 8.84702C27.885 8.22988 28.3266 7.71817 27.8935 6.94625C27.5805 6.38835 26.6225 5.28285 26.8449 4.71925C27.0163 4.28484 28.6756 3.85474 28.4513 3.56661C28.0776 3.08671 28.2825 2.4653 27.7708 2.03555C27.2389 1.5889 26.5733 1.43132 25.8632 1.23523C25.2253 1.05902 24.6899 1.12416 24.0338 1.15258C23.1976 1.18881 22.3993 1.00739 21.5685 1.00035C20.5157 0.991425 19.4424 1.15693 18.367 1.15693C17.3231 1.15693 16.3437 1.04493 15.2993 1.16128C14.7047 1.22752 14.7883 1.57059 14.5407 2.02685C14.1939 2.66616 13.5829 3.13693 13.2467 3.73624C12.9385 4.28566 15.5727 3.64851 15.1487 4.56702C14.8466 5.22143 13.3525 7.92391 14.418 8.22068C14.949 8.36857 15.0278 8.43609 14.92 8.84702C14.5613 10.2145 14.1326 11.7857 14.1326 13.1824C14.1326 14.6344 13.5044 15.9286 13.3413 17.3783C13.1846 18.7713 13.2107 20.1076 12.834 21.4695C12.834 24.4125 12.834 24.7828 12.834 27.2502C13.2761 30.5829 12.9104 31.6286 12.834 33.2979C12.7314 35.5387 9.07883 37.8963 7.76952 39.7379C6.42229 41.6327 6.03625 43.8183 5.68349 45.9404C5.20542 48.8164 5.34884 51.5391 5.34884 54.4221C5.34884 59.1728 5.44923 63.9334 5.44923 68.6757C5.44923 71.884 5.4507 75.2477 4.9584 78.4319C4.69651 80.1258 5.03892 82.378 5.5831 84.0428C5.86174 84.8953 5.95673 86.117 6.56475 86.8701C7.79548 88.3944 10.993 88.6483 13.1073 88.9231C14.7064 89.1309 16.0789 89.2477 17.6642 88.9927C18.6821 88.829 19.8039 88.7665 20.8434 88.7665C22.5383 88.7665 24.2221 88.9308 25.9134 88.7578C27.0421 88.6424 28.0953 88.5256 29.2321 88.4707C29.7965 88.4435 30.313 88.6689 30.8608 88.4881C31.3672 88.321 31.9441 88.1903 32.4894 88.1228C33.5156 87.9957 33.5187 87.8675 33.5715 87.0441" stroke="#F090BA" stroke-width="2" stroke-linecap="round"/>
<path d="M29.1443 88.0619C29.1443 88.4909 29.4252 87.8477 29.7244 87.6704C30.3769 87.2837 30.7233 86.3228 31.1299 85.774C31.4836 85.2967 31.663 84.5337 31.7769 83.9906C32.1112 82.3978 32.3617 80.7757 32.4351 79.1626C32.7357 72.5517 33.6217 66.0129 32.6359 59.4067C31.913 54.563 31.9014 49.6778 31.0965 44.8356C30.7819 42.943 30.256 41.1208 29.4901 39.329C29.1712 38.5829 28.1801 37.9458 27.4766 37.4326C27.0005 37.0852 25.8101 36.3413 25.6081 35.8058C25.2459 34.8454 24.8837 33.6459 25.1507 32.6306C25.5856 30.9773 25.2774 28.9222 25.1842 27.2502C25.0895 25.5511 25.2483 23.7926 25.3794 22.0959C25.5207 20.2663 25.0377 18.5385 24.8272 16.7328C24.6061 14.8361 24.0319 12.9763 23.5444 11.1175C23.3036 10.1995 23.0268 9.64529 23.7229 8.84702C24.261 8.22988 24.7025 7.71817 24.2695 6.94625C23.9565 6.38835 22.9985 5.28285 23.2209 4.71925C23.3923 4.28484 25.0516 3.85474 24.8272 3.56661C24.4536 3.08671 24.6585 2.4653 24.1468 2.03555C23.6149 1.5889 22.9492 1.43132 22.2392 1.23523C21.6012 1.05902 21.0659 1.12416 20.4098 1.15258C19.5736 1.18881 18.7753 1.00739 17.9445 1.00035C16.8917 0.991425 15.8183 1.15693 14.7429 1.15693C13.6991 1.15693 12.7197 1.04493 11.6753 1.16128C11.0807 1.22752 11.1642 1.57059 10.9167 2.02685C10.5699 2.66616 9.95892 3.13693 9.62269 3.73624C9.31446 4.28566 11.9487 3.64851 11.5247 4.56702C11.2226 5.22143 9.72844 7.92391 10.794 8.22068C11.325 8.36857 11.4038 8.43609 11.296 8.84702C10.9373 10.2145 10.5085 11.7857 10.5085 13.1824C10.5085 14.6344 9.88037 15.9286 9.7173 17.3783C9.56061 18.7713 9.58663 20.1076 9.20995 21.4695C9.20995 24.4125 9.20995 24.7828 9.20995 27.2502C9.6521 30.5829 9.2864 31.6286 9.20995 33.2979C9.10733 35.5387 5.4548 37.8963 4.14549 39.7379C2.79827 41.6327 2.41222 43.8183 2.05947 45.9404C1.5814 48.8164 1.72481 51.5391 1.72481 54.4221C1.72481 59.1728 1.82521 63.9334 1.82521 68.6757C1.82521 71.884 1.82668 75.2477 1.33438 78.4319C1.07248 80.1258 1.4149 82.378 1.95907 84.0428C2.23772 84.8953 2.33271 86.117 2.94073 86.8701C4.17146 88.3944 7.36901 88.6483 9.48326 88.9231C11.0824 89.1309 12.4549 89.2477 14.0402 88.9927C15.0581 88.829 16.1799 88.7665 17.2194 88.7665C18.9143 88.7665 20.5981 88.9308 22.2894 88.7578C23.418 88.6424 24.4713 88.5256 25.6081 88.4707C26.1725 88.4435 26.689 88.6689 27.2368 88.4881C27.7432 88.321 28.3201 88.1903 28.8654 88.1228C29.8916 87.9957 29.8947 87.8675 29.9475 87.0441" stroke="#E00819" stroke-width="2" stroke-linecap="round"/>
</svg>
