<svg width="57" height="53" viewBox="0 0 57 53" fill="none" xmlns="http://www.w3.org/2000/svg">
<path d="M51.3783 14.8829L52.9955 2.17194C36.0153 8.15358 19.0352 5.91046 2.05503 0.676529C2.05503 0.676529 0.707401 21.8615 0.437874 31.3324C6.90651 48.081 16.6094 51.7697 20.6523 51.5204C26.4741 52.7168 37.0934 45.0403 41.6754 41.0526C48.9526 36.5664 46.5268 27.5939 49.7612 28.3416C52.9955 29.0893 54.6126 29.0893 56.2298 21.6123C57.5235 15.6306 53.5345 14.6337 51.3783 14.8829Z" fill="white"/>
<path fill-rule="evenodd" clip-rule="evenodd" d="M1.62866 0.653422L2.05309 0.676509C1.62866 0.653422 1.62867 0.653258 1.62866 0.653422L1.62859 0.654401L1.5702 1.5826C1.53282 2.18052 1.47911 3.04522 1.41382 4.11244C1.28325 6.24685 1.10635 9.19144 0.921013 12.4321C0.550446 18.9117 0.145847 26.5806 0.0109177 31.3221L0.00883102 31.3955L0.0355377 31.4646C6.50373 48.2121 16.2696 52.1423 20.6179 51.9162C22.1731 52.2193 23.9951 51.9373 25.8881 51.3212C27.8133 50.6946 29.8585 49.7071 31.8509 48.5647C35.8212 46.288 39.6303 43.3677 41.9391 41.3613C45.694 39.0322 46.9343 35.552 47.6457 32.8266C47.7501 32.4266 47.8459 32.0311 47.9357 31.6605C47.9971 31.407 48.0557 31.1652 48.1123 30.9415C48.2556 30.3749 48.3921 29.8993 48.5506 29.5246C48.7119 29.1436 48.8757 28.9179 49.0404 28.8011C49.1785 28.7031 49.356 28.6536 49.6561 28.723C51.2429 29.0898 52.685 29.3516 53.8844 28.3534C54.4615 27.8731 54.9465 27.1295 55.3869 26.0635C55.8287 24.9941 56.2385 23.5678 56.6448 21.6893C57.3084 18.6212 56.6372 16.7171 55.3879 15.6253C54.3391 14.7086 52.9594 14.434 51.8587 14.4569L53.4978 1.57357L52.8422 1.80451C35.9939 7.7397 19.1257 5.52452 2.18754 0.303525L1.66124 0.141296L1.62866 0.653422ZM2.44531 1.21087C19.0761 6.27616 35.7732 8.44898 52.4899 2.76604L50.8907 15.3353L51.4291 15.273C52.429 15.1574 53.8211 15.3379 54.8038 16.1967C55.7646 17.0364 56.4411 18.6217 55.8109 21.5351C55.4086 23.3952 55.0099 24.7728 54.5925 25.7829C54.1738 26.7964 53.7492 27.4081 53.3156 27.769C52.4935 28.4531 51.5099 28.341 49.8624 27.9602C49.3539 27.8426 48.8997 27.9099 48.5229 28.1771C48.1729 28.4254 47.9386 28.813 47.7588 29.2381C47.5762 29.6695 47.4284 30.1928 47.2843 30.7624C47.2232 31.004 47.1636 31.2503 47.1021 31.5043C47.0147 31.8653 46.9236 32.2418 46.8191 32.6421C46.1174 35.3304 44.9367 38.5683 41.4376 40.7254L41.408 40.7437L41.3821 40.7663C39.1062 42.7469 35.3283 45.6454 31.4028 47.8964C29.4399 49.0219 27.4523 49.9785 25.6058 50.5794C23.7515 51.1829 22.0853 51.4125 20.7426 51.1366L20.683 51.1244L20.6221 51.1281C16.859 51.3601 7.30155 47.881 0.863068 31.2692C0.999729 26.5342 1.40145 18.9208 1.77016 12.4736C1.95543 9.23417 2.13227 6.29058 2.26281 4.15685C2.32807 3.08999 2.38176 2.22562 2.41912 1.62799L2.44531 1.21087Z" fill="black"/>
<path fill-rule="evenodd" clip-rule="evenodd" d="M24.8249 23.4912C24.8873 23.3968 24.9715 23.2805 25.078 23.1468C25.3731 22.7764 25.809 22.3107 26.3507 21.8567C27.4561 20.9302 28.8756 20.1555 30.3536 20.1555C31.8316 20.1555 33.2512 20.9302 34.3566 21.8567C34.8983 22.3107 35.3342 22.7764 35.6293 23.1468C35.7358 23.2805 35.82 23.3968 35.8824 23.4912C35.8308 23.5526 35.7652 23.6251 35.6846 23.707C35.3997 23.9969 34.9717 24.3612 34.4333 24.7169C33.3462 25.4351 31.9003 26.0599 30.3536 26.0599C28.807 26.0599 27.361 25.4351 26.274 24.7169C25.7356 24.3612 25.3076 23.9969 25.0226 23.707C24.9421 23.6251 24.8765 23.5526 24.8249 23.4912ZM35.9968 23.6869C35.9965 23.6863 35.9962 23.6855 35.9958 23.6846C35.9999 23.6966 36.0015 23.6981 35.9968 23.6869ZM24.7115 23.6846C24.7111 23.6855 24.7107 23.6862 24.7104 23.6869C24.7057 23.6981 24.7074 23.6966 24.7115 23.6846ZM30.3536 26.8462C26.7811 26.8462 23.885 23.9819 23.885 23.5231C23.885 23.0642 26.7811 19.3691 30.3536 19.3691C33.9262 19.3691 36.8223 23.0642 36.8223 23.5231C36.8223 23.9819 33.9262 26.8462 30.3536 26.8462Z" fill="black"/>
<path d="M27.1192 23.1077C27.1192 25.1724 28.2053 26.8462 29.545 26.8462C30.8847 26.8462 31.9707 25.1724 31.9707 23.1077C31.9707 21.0429 30.8847 19.3691 29.545 19.3691C28.2053 19.3691 27.1192 21.0429 27.1192 23.1077Z" fill="black"/>
<path fill-rule="evenodd" clip-rule="evenodd" d="M5.68466 13.2862C5.62416 13.496 5.75904 13.7114 5.98593 13.7674L17.7697 16.6731L16.1663 33.724L16.3064 33.8535C17.1972 34.6773 19.8313 36.0201 23.7074 35.4945C23.7891 35.4834 23.8713 35.4715 23.9541 35.4587L23.8184 34.6825L23.8143 34.6831L23.5841 34.7165C23.5834 34.7166 23.5828 34.7167 23.5822 34.7167C20.1769 35.178 17.8853 34.0827 17.0486 33.4178L18.6787 16.0835L6.20503 13.0076C5.97814 12.9517 5.74517 13.0764 5.68466 13.2862ZM14.7711 40.7154C14.5697 40.8272 14.5044 41.0687 14.6253 41.2549C15.6878 42.8925 17.3882 43.4954 19.0252 43.5945C20.6502 43.693 22.2539 43.3014 23.2431 42.9094C23.4589 42.8238 23.5589 42.5927 23.4664 42.3931C23.3739 42.1935 23.124 42.1011 22.9081 42.1866C22.0107 42.5423 20.5418 42.8984 19.0807 42.8099C17.6316 42.7221 16.2324 42.2035 15.3544 40.8503C15.2336 40.6641 14.9724 40.6037 14.7711 40.7154Z" fill="black"/>
<path fill-rule="evenodd" clip-rule="evenodd" d="M5.11938 19.0078C4.90355 19.0933 4.80357 19.3244 4.89607 19.524C5.32912 20.4584 6.28428 21.674 7.76936 22.2547C9.28899 22.849 11.2636 22.7407 13.6198 21.1845C13.8109 21.0583 13.8551 20.8127 13.7186 20.636C13.5821 20.4593 13.3166 20.4184 13.1255 20.5446C10.9536 21.9792 9.28967 21.9955 8.10056 21.5305C6.87691 21.052 6.05319 20.0245 5.67766 19.2142C5.58516 19.0147 5.33521 18.9222 5.11938 19.0078Z" fill="black"/>
</svg>
