<svg width="65" height="59" viewBox="0 0 65 59" fill="none" xmlns="http://www.w3.org/2000/svg">
<path d="M6.6515 16.8374L4.82471 2.47863C24.006 9.23568 43.1873 6.70178 62.3687 0.789368C62.3687 0.789368 63.891 24.7206 64.1955 35.4192C56.8883 54.339 45.9275 58.5058 41.3606 58.2243C34.7841 59.5757 22.7882 50.9041 17.6123 46.3994C9.39169 41.3317 12.1319 31.1961 8.47829 32.0407C4.82471 32.8853 2.99792 32.8853 1.17113 24.439C-0.290307 17.682 4.21578 16.5558 6.6515 16.8374Z" fill="white"/>
<path fill-rule="evenodd" clip-rule="evenodd" d="M62.8494 0.763297L62.37 0.789377C62.8494 0.763297 62.8494 0.763112 62.8494 0.763297L62.8495 0.764403L62.9155 1.81293C62.9577 2.48836 63.0184 3.46515 63.0921 4.67071C63.2396 7.08181 63.4395 10.4081 63.6488 14.0689C64.0674 21.3884 64.5245 30.0515 64.6769 35.4076L64.6793 35.4905L64.6491 35.5686C57.3424 54.4871 46.3106 58.9268 41.3986 58.6713C39.6418 59.0137 37.5837 58.6951 35.4452 57.9992C33.2704 57.2914 30.9601 56.1759 28.7094 54.8853C24.2245 52.3136 19.9216 49.0147 17.3135 46.7482C13.0718 44.1171 11.6707 40.1858 10.8671 37.1071C10.7492 36.6553 10.6409 36.2086 10.5395 35.7898C10.4702 35.5036 10.404 35.2304 10.3401 34.9777C10.1781 34.3377 10.024 33.8004 9.84488 33.3771C9.66273 32.9467 9.47774 32.6917 9.29163 32.5598C9.13561 32.4491 8.93512 32.3932 8.59611 32.4716C6.80363 32.886 5.17459 33.1817 3.8197 32.0541C3.16776 31.5115 2.61992 30.6716 2.12243 29.4674C1.62335 28.2593 1.16043 26.6481 0.701499 24.5261C-0.0481206 21.0602 0.709999 18.9094 2.12131 17.676C3.30609 16.6405 4.86456 16.3303 6.10801 16.3561L4.25645 1.80273L4.99702 2.06361C24.0294 8.76818 43.0842 6.26585 62.2181 0.368042L62.8126 0.184784L62.8494 0.763297ZM61.9269 1.39301C43.1403 7.11492 24.2787 9.56941 5.39502 3.14977L7.20144 17.3484L6.59326 17.2781C5.4638 17.1475 3.89121 17.3513 2.78111 18.3215C1.69581 19.27 0.9316 21.0608 1.64341 24.3519C2.09788 26.4532 2.54836 28.0093 3.01975 29.1504C3.49275 30.2953 3.97248 30.9862 4.46229 31.3939C5.39088 32.1667 6.50202 32.0401 8.36314 31.6099C8.93752 31.4771 9.45062 31.5531 9.87617 31.8549C10.2716 32.1354 10.5362 32.5733 10.7394 33.0534C10.9456 33.5408 11.1126 34.1319 11.2754 34.7753C11.3444 35.0483 11.4118 35.3265 11.4812 35.6134C11.5799 36.0213 11.6828 36.4465 11.8009 36.8987C12.5936 39.9355 13.9274 43.5932 17.88 46.0299L17.9135 46.0505L17.9428 46.076C20.5136 48.3135 24.7813 51.5877 29.2156 54.1305C31.433 55.4019 33.6782 56.4825 35.7641 57.1613C37.8588 57.843 39.741 58.1024 41.2577 57.7907L41.325 57.7769L41.3938 57.7811C45.6448 58.0432 56.4412 54.113 63.7143 35.3479C63.5599 29.999 63.1061 21.3987 62.6896 14.1158C62.4803 10.4564 62.2805 7.13121 62.1331 4.72088C62.0594 3.51572 61.9987 2.5393 61.9565 1.8642L61.9269 1.39301Z" fill="black"/>
<path fill-rule="evenodd" clip-rule="evenodd" d="M36.6454 26.5616C36.5749 26.4549 36.4798 26.3235 36.3595 26.1725C36.0262 25.754 35.5338 25.228 34.9218 24.7151C33.6731 23.6685 32.0695 22.7934 30.3999 22.7934C28.7303 22.7934 27.1267 23.6685 25.8781 24.7151C25.2661 25.228 24.7737 25.754 24.4404 26.1725C24.3201 26.3235 24.225 26.4549 24.1545 26.5616C24.2128 26.6309 24.2869 26.7127 24.3779 26.8053C24.6997 27.1328 25.1832 27.5443 25.7914 27.9461C27.0194 28.7575 28.6528 29.4632 30.3999 29.4632C32.1471 29.4632 33.7805 28.7575 35.0085 27.9461C35.6167 27.5443 36.1001 27.1328 36.422 26.8053C36.513 26.7127 36.5871 26.6309 36.6454 26.5616ZM24.0252 26.7827C24.0255 26.7819 24.0259 26.781 24.0264 26.78C24.0217 26.7935 24.0199 26.7952 24.0252 26.7827ZM36.7735 26.78C36.774 26.781 36.7743 26.7819 36.7747 26.7827C36.78 26.7952 36.7782 26.7935 36.7735 26.78ZM30.3999 30.3514C34.4356 30.3514 37.7071 27.1158 37.7071 26.5975C37.7071 26.0792 34.4356 21.9051 30.3999 21.9051C26.3643 21.9051 23.0928 26.0792 23.0928 26.5975C23.0928 27.1158 26.3643 30.3514 30.3999 30.3514Z" fill="black"/>
<path d="M34.0556 26.1283C34.0556 28.4607 32.8287 30.3514 31.3154 30.3514C29.802 30.3514 28.5752 28.4607 28.5752 26.1283C28.5752 23.7959 29.802 21.9051 31.3154 21.9051C32.8287 21.9051 34.0556 23.7959 34.0556 26.1283Z" fill="black"/>
<path fill-rule="evenodd" clip-rule="evenodd" d="M58.2676 15.0337C58.336 15.2707 58.1836 15.514 57.9273 15.5772L44.616 18.8597L46.4273 38.1208L46.269 38.2672C45.2627 39.1977 42.2871 40.7146 37.9085 40.1208C37.8163 40.1083 37.7234 40.0949 37.6299 40.0805L37.7832 39.2036L37.7878 39.2043L38.0479 39.242C38.0486 39.2421 38.0493 39.2422 38.05 39.2423C41.8967 39.7633 44.4853 38.526 45.4306 37.7749L43.5892 18.1936L57.6798 14.719C57.9361 14.6558 58.1993 14.7967 58.2676 15.0337ZM48.0033 46.0186C48.2308 46.1448 48.3045 46.4176 48.168 46.6279C46.9677 48.4779 45.047 49.1589 43.1978 49.2709C41.3621 49.3821 39.5505 48.9398 38.433 48.4969C38.1892 48.4003 38.0763 48.1392 38.1808 47.9137C38.2853 47.6883 38.5676 47.5839 38.8114 47.6805C39.8252 48.0823 41.4845 48.4845 43.135 48.3846C44.7719 48.2854 46.3525 47.6995 47.3444 46.1709C47.4808 45.9606 47.7758 45.8924 48.0033 46.0186Z" fill="black"/>
<path fill-rule="evenodd" clip-rule="evenodd" d="M58.9041 21.497C59.1479 21.5936 59.2608 21.8547 59.1563 22.0801C58.6671 23.1356 57.5882 24.5088 55.9106 25.1649C54.1939 25.8361 51.9633 25.7138 49.3017 23.9558C49.0859 23.8133 49.0359 23.5359 49.1901 23.3363C49.3443 23.1367 49.6442 23.0905 49.8601 23.233C52.3135 24.8536 54.1932 24.872 55.5364 24.3468C56.9187 23.8062 57.8492 22.6455 58.2734 21.7302C58.3779 21.5048 58.6603 21.4003 58.9041 21.497Z" fill="black"/>
</svg>
