<svg width="164" height="186" viewBox="0 0 164 186" fill="none" xmlns="http://www.w3.org/2000/svg">
<path d="M5.52637 80.9297L53.7995 69.8671L101.067 95.5122L53.7995 103.558L5.52637 80.9297Z" fill="#CCAA00"/>
<path d="M17.0908 8.01697H118.163L134.254 29.1365H26.6449L17.0908 8.01697Z" fill="#CCAA00"/>
<g filter="url(#filter0_d_171_1046)">
<circle cx="113.134" cy="10.5312" r="4.52561" fill="#E00819"/>
<path d="M107.604 21.0569C107.604 17.7432 110.324 15.0569 113.638 15.0569C116.951 15.0569 119.672 17.7432 119.672 21.0569V41.2049H107.604V21.0569Z" fill="#E00819"/>
<path d="M106.055 19.891C106.309 18.6819 107.456 18.0433 108.617 18.4646C109.779 18.8859 110.515 20.2075 110.261 21.4166L106.233 40.6173C105.979 41.8264 104.832 42.465 103.671 42.0437C102.509 41.6224 101.774 40.3007 102.027 39.0917L106.055 19.891Z" fill="#E00819"/>
<path d="M107.623 41.7475C107.625 40.1534 108.918 38.8631 110.512 38.8657C112.106 38.8682 113.398 40.1625 113.396 41.7566L113.379 60.4437C113.378 62.0378 112.084 63.3281 110.49 63.3255C108.896 63.323 107.605 62.0287 107.606 60.4346L107.623 41.7475Z" fill="#E00819"/>
<path d="M113.657 41.7475C113.658 40.1534 114.951 38.8631 116.546 38.8657C118.14 38.8682 119.431 40.1625 119.429 41.7566L119.412 60.4437C119.411 62.0378 118.117 63.3281 116.523 63.3255C114.929 63.323 113.638 62.0287 113.639 60.4346L113.657 41.7475Z" fill="#E00819"/>
<path d="M121.319 19.891C121.065 18.6819 119.918 18.0433 118.757 18.4646C117.595 18.8859 116.859 20.2075 117.113 21.4166L121.141 40.6173C121.395 41.8264 122.542 42.465 123.703 42.0437C124.865 41.6224 125.601 40.3007 125.347 39.0917L121.319 19.891Z" fill="#E00819"/>
</g>
<g filter="url(#filter1_d_171_1046)">
<circle cx="113.989" cy="16.5655" r="4.52561" fill="#E00819"/>
<path d="M108.458 27.0911C108.458 23.7774 111.178 21.0911 114.492 21.0911C117.806 21.0911 120.526 23.7774 120.526 27.0911V47.239H108.458V27.0911Z" fill="#E00819"/>
<path d="M106.91 25.9252C107.164 24.7161 108.311 24.0775 109.472 24.4988C110.633 24.9201 111.369 26.2417 111.115 27.4508L107.087 46.6515C106.834 47.8605 105.686 48.4992 104.525 48.0779C103.364 47.6566 102.628 46.3349 102.882 45.1259L106.91 25.9252Z" fill="#E00819"/>
<path d="M108.478 47.7817C108.479 46.1876 109.773 44.8973 111.367 44.8998C112.961 44.9024 114.252 46.1967 114.251 47.7908L114.234 66.4779C114.232 68.072 112.939 69.3622 111.344 69.3597C109.75 69.3572 108.459 68.0629 108.461 66.4687L108.478 47.7817Z" fill="#E00819"/>
<path d="M114.511 47.7817C114.512 46.1876 115.806 44.8973 117.4 44.8998C118.994 44.9024 120.285 46.1967 120.284 47.7908L120.267 66.4779C120.265 68.072 118.972 69.3622 117.378 69.3597C115.784 69.3572 114.492 68.0629 114.494 66.4687L114.511 47.7817Z" fill="#E00819"/>
<path d="M122.173 25.9252C121.919 24.7161 120.772 24.0775 119.611 24.4988C118.45 24.9201 117.714 26.2417 117.968 27.4508L121.996 46.6515C122.249 47.8605 123.397 48.4992 124.558 48.0779C125.719 47.6566 126.455 46.3349 126.201 45.1259L122.173 25.9252Z" fill="#E00819"/>
</g>
<g filter="url(#filter2_d_171_1046)">
<circle cx="118.164" cy="20.5882" r="4.52561" fill="#E00819"/>
<path d="M112.632 31.1138C112.632 27.8001 115.352 25.1138 118.666 25.1138C121.98 25.1138 124.7 27.8001 124.7 31.1138V51.2617H112.632V31.1138Z" fill="#E00819"/>
<path d="M111.085 29.9479C111.338 28.7388 112.485 28.1002 113.647 28.5215C114.808 28.9428 115.544 30.2644 115.29 31.4735L111.262 50.6742C111.008 51.8833 109.861 52.5219 108.7 52.1006C107.539 51.6793 106.803 50.3576 107.056 49.1486L111.085 29.9479Z" fill="#E00819"/>
<path d="M112.652 51.8044C112.653 50.2103 113.947 48.92 115.541 48.9225C117.135 48.9251 118.426 50.2194 118.424 51.8135L118.407 70.5006C118.406 72.0947 117.112 73.3849 115.518 73.3824C113.924 73.3799 112.633 72.0856 112.635 70.4915L112.652 51.8044Z" fill="#E00819"/>
<path d="M118.686 51.8044C118.687 50.2103 119.981 48.92 121.575 48.9225C123.169 48.9251 124.46 50.2194 124.459 51.8135L124.442 70.5006C124.44 72.0947 123.147 73.3849 121.552 73.3824C119.958 73.3799 118.667 72.0856 118.669 70.4915L118.686 51.8044Z" fill="#E00819"/>
<path d="M126.347 29.9479C126.093 28.7388 124.946 28.1002 123.785 28.5215C122.624 28.9428 121.888 30.2644 122.141 31.4735L126.17 50.6742C126.423 51.8833 127.57 52.5219 128.732 52.1006C129.893 51.6793 130.629 50.3576 130.375 49.1486L126.347 29.9479Z" fill="#E00819"/>
</g>
<g filter="url(#filter3_d_171_1046)">
<circle cx="122.186" cy="23.6053" r="4.52561" fill="#E00819"/>
<path d="M116.654 34.131C116.654 30.8173 119.375 28.131 122.688 28.131C126.002 28.131 128.723 30.8173 128.723 34.131V54.2789H116.654V34.131Z" fill="#E00819"/>
<path d="M115.107 32.965C115.361 31.7559 116.508 31.1173 117.669 31.5386C118.831 31.9599 119.566 33.2815 119.313 34.4906L115.284 53.6913C115.031 54.9003 113.884 55.539 112.722 55.1177C111.561 54.6964 110.825 53.3747 111.079 52.1657L115.107 32.965Z" fill="#E00819"/>
<path d="M116.675 54.8215C116.677 53.2273 117.97 51.9371 119.564 51.9396C121.158 51.9422 122.449 53.2365 122.448 54.8306L122.431 73.5177C122.429 75.1118 121.136 76.402 119.542 76.3995C117.948 76.397 116.657 75.1027 116.658 73.5085L116.675 54.8215Z" fill="#E00819"/>
<path d="M122.708 54.8215C122.71 53.2273 124.003 51.9371 125.597 51.9396C127.191 51.9422 128.483 53.2365 128.481 54.8306L128.464 73.5177C128.463 75.1118 127.169 76.402 125.575 76.3995C123.981 76.397 122.69 75.1027 122.691 73.5085L122.708 54.8215Z" fill="#E00819"/>
<path d="M130.369 32.965C130.116 31.7559 128.969 31.1173 127.807 31.5386C126.646 31.9599 125.91 33.2815 126.164 34.4906L130.192 53.6913C130.446 54.9003 131.593 55.539 132.754 55.1177C133.915 54.6964 134.651 53.3747 134.398 52.1657L130.369 32.965Z" fill="#E00819"/>
</g>
<g filter="url(#filter4_d_171_1046)">
<circle cx="101.065" cy="13.5483" r="4.52561" fill="#E00819"/>
<path d="M95.5342 24.0739C95.5342 20.7601 98.2546 18.0739 101.568 18.0739C104.882 18.0739 107.602 20.7601 107.602 24.0739V44.2218H95.5342V24.0739Z" fill="#E00819"/>
<path d="M93.986 22.9079C94.2397 21.6989 95.3868 21.0603 96.5481 21.4816C97.7094 21.9029 98.4452 23.2245 98.1916 24.4336L94.1634 43.6343C93.9097 44.8433 92.7626 45.4819 91.6013 45.0607C90.44 44.6394 89.7042 43.3177 89.9578 42.1086L93.986 22.9079Z" fill="#E00819"/>
<path d="M95.554 44.7645C95.5555 43.1703 96.8489 41.8801 98.443 41.8826C100.037 41.8851 101.328 43.1795 101.327 44.7736L101.31 63.4607C101.308 65.0548 100.015 66.345 98.4206 66.3425C96.8265 66.34 95.5354 65.0457 95.5369 63.4515L95.554 44.7645Z" fill="#E00819"/>
<path d="M101.587 44.7645C101.589 43.1703 102.882 41.8801 104.476 41.8826C106.07 41.8851 107.361 43.1795 107.36 44.7736L107.343 63.4607C107.341 65.0548 106.048 66.345 104.454 66.3425C102.86 66.34 101.569 65.0457 101.57 63.4515L101.587 44.7645Z" fill="#E00819"/>
<path d="M109.249 22.9079C108.996 21.6989 107.849 21.0603 106.687 21.4816C105.526 21.9029 104.79 23.2245 105.044 24.4336L109.072 43.6343C109.326 44.8433 110.473 45.4819 111.634 45.0607C112.795 44.6394 113.531 43.3177 113.278 42.1086L109.249 22.9079Z" fill="#E00819"/>
</g>
<g filter="url(#filter5_d_171_1046)">
<circle cx="100.915" cy="17.571" r="4.52561" fill="#E00819"/>
<path d="M95.3848 28.0966C95.3848 24.7829 98.1052 22.0966 101.419 22.0966C104.733 22.0966 107.453 24.7828 107.453 28.0966V48.2445H95.3848V28.0966Z" fill="#E00819"/>
<path d="M93.8366 26.9307C94.0903 25.7216 95.2373 25.083 96.3987 25.5043C97.56 25.9256 98.2958 27.2472 98.0422 28.4563L94.014 47.657C93.7603 48.866 92.6132 49.5047 91.4519 49.0834C90.2906 48.6621 89.5548 47.3404 89.8084 46.1314L93.8366 26.9307Z" fill="#E00819"/>
<path d="M95.4046 48.7872C95.406 47.193 96.6995 45.9028 98.2936 45.9053C99.8877 45.9079 101.179 47.2022 101.177 48.7963L101.16 67.4834C101.159 69.0775 99.8653 70.3677 98.2712 70.3652C96.6771 70.3627 95.386 69.0684 95.3875 67.4742L95.4046 48.7872Z" fill="#E00819"/>
<path d="M101.438 48.7872C101.439 47.193 102.733 45.9028 104.327 45.9053C105.921 45.9079 107.212 47.2022 107.211 48.7963L107.193 67.4834C107.192 69.0775 105.899 70.3677 104.304 70.3652C102.71 70.3627 101.419 69.0684 101.421 67.4742L101.438 48.7872Z" fill="#E00819"/>
<path d="M109.1 26.9307C108.846 25.7216 107.699 25.083 106.538 25.5043C105.377 25.9256 104.641 27.2472 104.894 28.4563L108.923 47.657C109.176 48.866 110.323 49.5047 111.485 49.0834C112.646 48.6621 113.382 47.3404 113.128 46.1314L109.1 26.9307Z" fill="#E00819"/>
</g>
<g filter="url(#filter6_d_171_1046)">
<circle cx="105.089" cy="21.5938" r="4.52561" fill="#E00819"/>
<path d="M99.5586 32.1194C99.5586 28.8057 102.279 26.1194 105.593 26.1194C108.906 26.1194 111.627 28.8057 111.627 32.1194V52.2674H99.5586V32.1194Z" fill="#E00819"/>
<path d="M98.0104 30.9535C98.2641 29.7444 99.4112 29.1058 100.572 29.5271C101.734 29.9484 102.47 31.27 102.216 32.4791L98.1878 51.6798C97.9341 52.8889 96.7871 53.5275 95.6257 53.1062C94.4644 52.6849 93.7286 51.3632 93.9822 50.1542L98.0104 30.9535Z" fill="#E00819"/>
<path d="M99.5784 52.81C99.5799 51.2159 100.873 49.9256 102.467 49.9282C104.062 49.9307 105.353 51.225 105.351 52.8191L105.334 71.5062C105.333 73.1003 104.039 74.3906 102.445 74.388C100.851 74.3855 99.5598 73.0912 99.5613 71.4971L99.5784 52.81Z" fill="#E00819"/>
<path d="M105.612 52.81C105.613 51.2159 106.907 49.9256 108.501 49.9282C110.095 49.9307 111.386 51.225 111.384 52.8191L111.367 71.5062C111.366 73.1003 110.072 74.3906 108.478 74.388C106.884 74.3855 105.593 73.0912 105.595 71.4971L105.612 52.81Z" fill="#E00819"/>
<path d="M113.274 30.9535C113.02 29.7444 111.873 29.1058 110.712 29.5271C109.55 29.9484 108.815 31.27 109.068 32.4791L113.096 51.6798C113.35 52.8889 114.497 53.5275 115.658 53.1062C116.82 52.6849 117.556 51.3632 117.302 50.1542L113.274 30.9535Z" fill="#E00819"/>
</g>
<g filter="url(#filter7_d_171_1046)">
<circle cx="109.111" cy="24.6111" r="4.52561" fill="#E00819"/>
<path d="M103.58 35.1366C103.58 31.8229 106.301 29.1366 109.614 29.1366C112.928 29.1366 115.648 31.8229 115.648 35.1366V55.2846H103.58V35.1366Z" fill="#E00819"/>
<path d="M102.032 33.9707C102.286 32.7616 103.433 32.123 104.594 32.5443C105.755 32.9656 106.491 34.2873 106.237 35.4963L102.209 54.697C101.956 55.9061 100.809 56.5447 99.6472 56.1234C98.4859 55.7021 97.7501 54.3805 98.0037 53.1714L102.032 33.9707Z" fill="#E00819"/>
<path d="M103.6 55.8272C103.601 54.2331 104.895 52.9428 106.489 52.9454C108.083 52.9479 109.374 54.2422 109.373 55.8363L109.356 74.5234C109.354 76.1175 108.061 77.4078 106.467 77.4053C104.872 77.4027 103.581 76.1084 103.583 74.5143L103.6 55.8272Z" fill="#E00819"/>
<path d="M109.633 55.8272C109.635 54.2331 110.928 52.9428 112.522 52.9454C114.116 52.9479 115.407 54.2422 115.406 55.8363L115.389 74.5234C115.387 76.1175 114.094 77.4078 112.5 77.4053C110.906 77.4027 109.615 76.1084 109.616 74.5143L109.633 55.8272Z" fill="#E00819"/>
<path d="M117.295 33.9707C117.042 32.7616 115.894 32.123 114.733 32.5443C113.572 32.9656 112.836 34.2873 113.09 35.4963L117.118 54.697C117.372 55.9061 118.519 56.5447 119.68 56.1234C120.841 55.7021 121.577 54.3805 121.323 53.1714L117.295 33.9707Z" fill="#E00819"/>
</g>
<g filter="url(#filter8_d_171_1046)">
<circle cx="82.9631" cy="13.5483" r="4.52561" fill="#E00819"/>
<path d="M77.4316 24.0739C77.4316 20.7601 80.1521 18.0739 83.4658 18.0739C86.7795 18.0739 89.4999 20.7601 89.4999 24.0739V44.2218H77.4316V24.0739Z" fill="#E00819"/>
<path d="M75.8854 22.9079C76.1391 21.6989 77.2862 21.0603 78.4475 21.4816C79.6088 21.9029 80.3446 23.2245 80.091 24.4336L76.0628 43.6343C75.8091 44.8433 74.6621 45.4819 73.5007 45.0607C72.3394 44.6394 71.6036 43.3177 71.8572 42.1086L75.8854 22.9079Z" fill="#E00819"/>
<path d="M77.4524 44.7645C77.4539 43.1703 78.7474 41.8801 80.3415 41.8826C81.9356 41.8851 83.2267 43.1795 83.2252 44.7736L83.2081 63.4607C83.2067 65.0548 81.9132 66.345 80.3191 66.3425C78.725 66.34 77.4339 65.0457 77.4353 63.4515L77.4524 44.7645Z" fill="#E00819"/>
<path d="M83.4856 44.7645C83.4871 43.1703 84.7806 41.8801 86.3747 41.8826C87.9688 41.8851 89.2599 43.1795 89.2584 44.7736L89.2413 63.4607C89.2399 65.0548 87.9464 66.345 86.3523 66.3425C84.7582 66.34 83.4671 65.0457 83.4685 63.4515L83.4856 44.7645Z" fill="#E00819"/>
<path d="M91.1487 22.9079C90.8951 21.6989 89.748 21.0603 88.5867 21.4816C87.4254 21.9029 86.6895 23.2245 86.9432 24.4336L90.9714 43.6343C91.225 44.8433 92.3721 45.4819 93.5334 45.0607C94.6948 44.6394 95.4306 43.3177 95.1769 42.1086L91.1487 22.9079Z" fill="#E00819"/>
</g>
<g filter="url(#filter9_d_171_1046)">
<circle cx="82.8147" cy="17.571" r="4.52561" fill="#E00819"/>
<path d="M77.2822 28.0966C77.2822 24.7829 80.0027 22.0966 83.3164 22.0966C86.6301 22.0966 89.3505 24.7828 89.3505 28.0966V48.2445H77.2822V28.0966Z" fill="#E00819"/>
<path d="M75.7351 26.9307C75.9887 25.7216 77.1358 25.083 78.2971 25.5043C79.4584 25.9256 80.1943 27.2472 79.9406 28.4563L75.9124 47.657C75.6587 48.866 74.5117 49.5047 73.3503 49.0834C72.189 48.6621 71.4532 47.3404 71.7069 46.1314L75.7351 26.9307Z" fill="#E00819"/>
<path d="M77.303 48.7872C77.3045 47.193 78.5979 45.9028 80.1921 45.9053C81.7862 45.9079 83.0773 47.2022 83.0758 48.7963L83.0587 67.4834C83.0572 69.0775 81.7638 70.3677 80.1697 70.3652C78.5755 70.3627 77.2844 69.0684 77.2859 67.4742L77.303 48.7872Z" fill="#E00819"/>
<path d="M83.3362 48.7872C83.3377 47.193 84.6312 45.9028 86.2253 45.9053C87.8194 45.9079 89.1105 47.2022 89.109 48.7963L89.0919 67.4834C89.0905 69.0775 87.797 70.3677 86.2029 70.3652C84.6088 70.3627 83.3177 69.0684 83.3191 67.4742L83.3362 48.7872Z" fill="#E00819"/>
<path d="M90.9974 26.9307C90.7437 25.7216 89.5966 25.083 88.4353 25.5043C87.274 25.9256 86.5382 27.2472 86.7918 28.4563L90.82 47.657C91.0737 48.866 92.2208 49.5047 93.3821 49.0834C94.5434 48.6621 95.2792 47.3404 95.0256 46.1314L90.9974 26.9307Z" fill="#E00819"/>
</g>
<g filter="url(#filter10_d_171_1046)">
<circle cx="86.9875" cy="21.5938" r="4.52561" fill="#E00819"/>
<path d="M81.457 32.1194C81.457 28.8057 84.1775 26.1194 87.4912 26.1194C90.8049 26.1194 93.5253 28.8057 93.5253 32.1194V52.2674H81.457V32.1194Z" fill="#E00819"/>
<path d="M79.9089 30.9535C80.1625 29.7444 81.3096 29.1058 82.4709 29.5271C83.6323 29.9484 84.3681 31.27 84.1144 32.4791L80.0862 51.6798C79.8326 52.8889 78.6855 53.5275 77.5242 53.1062C76.3628 52.6849 75.627 51.3632 75.8807 50.1542L79.9089 30.9535Z" fill="#E00819"/>
<path d="M81.4768 52.81C81.4783 51.2159 82.7718 49.9256 84.3659 49.9282C85.96 49.9307 87.2511 51.225 87.2496 52.8191L87.2325 71.5062C87.2311 73.1003 85.9376 74.3906 84.3435 74.388C82.7494 74.3855 81.4583 73.0912 81.4597 71.4971L81.4768 52.81Z" fill="#E00819"/>
<path d="M87.5101 52.81C87.5115 51.2159 88.805 49.9256 90.3991 49.9282C91.9932 49.9307 93.2843 51.225 93.2829 52.8191L93.2657 71.5062C93.2643 73.1003 91.9708 74.3906 90.3767 74.388C88.7826 74.3855 87.4915 73.0912 87.4929 71.4971L87.5101 52.81Z" fill="#E00819"/>
<path d="M95.1722 30.9535C94.9185 29.7444 93.7714 29.1058 92.6101 29.5271C91.4488 29.9484 90.713 31.27 90.9666 32.4791L94.9948 51.6798C95.2485 52.8889 96.3956 53.5275 97.5569 53.1062C98.7182 52.6849 99.454 51.3632 99.2004 50.1542L95.1722 30.9535Z" fill="#E00819"/>
</g>
<g filter="url(#filter11_d_171_1046)">
<circle cx="91.009" cy="24.6111" r="4.52561" fill="#E00819"/>
<path d="M85.4785 35.1366C85.4785 31.8229 88.199 29.1366 91.5127 29.1366C94.8264 29.1366 97.5468 31.8229 97.5468 35.1366V55.2846H85.4785V35.1366Z" fill="#E00819"/>
<path d="M83.9304 33.9707C84.184 32.7616 85.3311 32.123 86.4924 32.5443C87.6537 32.9656 88.3896 34.2873 88.1359 35.4963L84.1077 54.697C83.8541 55.9061 82.707 56.5447 81.5457 56.1234C80.3843 55.7021 79.6485 54.3805 79.9022 53.1714L83.9304 33.9707Z" fill="#E00819"/>
<path d="M85.4983 55.8272C85.4998 54.2331 86.7933 52.9428 88.3874 52.9454C89.9815 52.9479 91.2726 54.2422 91.2711 55.8363L91.254 74.5234C91.2526 76.1175 89.9591 77.4078 88.365 77.4053C86.7709 77.4027 85.4798 76.1084 85.4812 74.5143L85.4983 55.8272Z" fill="#E00819"/>
<path d="M91.5315 55.8272C91.533 54.2331 92.8265 52.9428 94.4206 52.9454C96.0147 52.9479 97.3058 54.2422 97.3043 55.8363L97.2872 74.5234C97.2858 76.1175 95.9923 77.4078 94.3982 77.4053C92.8041 77.4027 91.513 76.1084 91.5144 74.5143L91.5315 55.8272Z" fill="#E00819"/>
<path d="M99.1937 33.9707C98.94 32.7616 97.7929 32.123 96.6316 32.5443C95.4703 32.9656 94.7345 34.2873 94.9881 35.4963L99.0163 54.697C99.27 55.9061 100.417 56.5447 101.578 56.1234C102.74 55.7021 103.476 54.3805 103.222 53.1714L99.1937 33.9707Z" fill="#E00819"/>
</g>
<g filter="url(#filter12_d_171_1046)">
<circle cx="64.8615" cy="13.5483" r="4.52561" fill="#E00819"/>
<path d="M59.3301 24.0739C59.3301 20.7601 62.0505 18.0739 65.3642 18.0739C68.6779 18.0739 71.3984 20.7601 71.3984 24.0739V44.2218H59.3301V24.0739Z" fill="#E00819"/>
<path d="M57.7839 22.9079C58.0375 21.6989 59.1846 21.0603 60.3459 21.4816C61.5073 21.9029 62.2431 23.2245 61.9894 24.4336L57.9612 43.6343C57.7076 44.8433 56.5605 45.4819 55.3992 45.0607C54.2378 44.6394 53.502 43.3177 53.7557 42.1086L57.7839 22.9079Z" fill="#E00819"/>
<path d="M59.3509 44.7645C59.3523 43.1703 60.6458 41.8801 62.2399 41.8826C63.834 41.8851 65.1251 43.1795 65.1237 44.7736L65.1066 63.4607C65.1051 65.0548 63.8116 66.345 62.2175 66.3425C60.6234 66.34 59.3323 65.0457 59.3338 63.4515L59.3509 44.7645Z" fill="#E00819"/>
<path d="M65.3841 44.7645C65.3855 43.1703 66.679 41.8801 68.2731 41.8826C69.8672 41.8851 71.1583 43.1795 71.1569 44.7736L71.1398 63.4607C71.1383 65.0548 69.8448 66.345 68.2507 66.3425C66.6566 66.34 65.3655 65.0457 65.367 63.4515L65.3841 44.7645Z" fill="#E00819"/>
<path d="M73.0472 22.9079C72.7935 21.6989 71.6464 21.0603 70.4851 21.4816C69.3238 21.9029 68.588 23.2245 68.8416 24.4336L72.8698 43.6343C73.1235 44.8433 74.2706 45.4819 75.4319 45.0607C76.5932 44.6394 77.329 43.3177 77.0754 42.1086L73.0472 22.9079Z" fill="#E00819"/>
</g>
<g filter="url(#filter13_d_171_1046)">
<circle cx="67.9524" cy="17.571" r="4.52561" fill="#E00819"/>
<path d="M62.4219 28.0966C62.4219 24.7829 65.1423 22.0966 68.456 22.0966C71.7697 22.0966 74.4902 24.7828 74.4902 28.0966V48.2445H62.4219V28.0966Z" fill="#E00819"/>
<path d="M60.8737 26.9307C61.1274 25.7216 62.2745 25.083 63.4358 25.5043C64.5971 25.9256 65.3329 27.2472 65.0793 28.4563L61.0511 47.657C60.7974 48.866 59.6503 49.5047 58.489 49.0834C57.3277 48.6621 56.5919 47.3404 56.8455 46.1314L60.8737 26.9307Z" fill="#E00819"/>
<path d="M62.4417 48.7872C62.4432 47.193 63.7366 45.9028 65.3307 45.9053C66.9249 45.9079 68.216 47.2022 68.2145 48.7963L68.1974 67.4834C68.1959 69.0775 66.9025 70.3677 65.3083 70.3652C63.7142 70.3627 62.4231 69.0684 62.4246 67.4742L62.4417 48.7872Z" fill="#E00819"/>
<path d="M68.4749 48.7872C68.4764 47.193 69.7698 45.9028 71.3639 45.9053C72.9581 45.9079 74.2492 47.2022 74.2477 48.7963L74.2306 67.4834C74.2291 69.0775 72.9357 70.3677 71.3415 70.3652C69.7474 70.3627 68.4563 69.0684 68.4578 67.4742L68.4749 48.7872Z" fill="#E00819"/>
<path d="M76.137 26.9307C75.8834 25.7216 74.7363 25.083 73.575 25.5043C72.4136 25.9256 71.6778 27.2472 71.9315 28.4563L75.9597 47.657C76.2133 48.866 77.3604 49.5047 78.5217 49.0834C79.6831 48.6621 80.4189 47.3404 80.1652 46.1314L76.137 26.9307Z" fill="#E00819"/>
</g>
<g filter="url(#filter14_d_171_1046)">
<circle cx="68.884" cy="21.5938" r="4.52561" fill="#E00819"/>
<path d="M63.3535 32.1194C63.3535 28.8057 66.074 26.1194 69.3877 26.1194C72.7014 26.1194 75.4218 28.8057 75.4218 32.1194V52.2674H63.3535V32.1194Z" fill="#E00819"/>
<path d="M61.8054 30.9535C62.059 29.7444 63.2061 29.1058 64.3674 29.5271C65.5287 29.9484 66.2646 31.27 66.0109 32.4791L61.9827 51.6798C61.7291 52.8889 60.582 53.5275 59.4207 53.1062C58.2593 52.6849 57.5235 51.3632 57.7772 50.1542L61.8054 30.9535Z" fill="#E00819"/>
<path d="M63.3733 52.81C63.3748 51.2159 64.6683 49.9256 66.2624 49.9282C67.8565 49.9307 69.1476 51.225 69.1461 52.8191L69.129 71.5062C69.1276 73.1003 67.8341 74.3906 66.24 74.388C64.6459 74.3855 63.3548 73.0912 63.3562 71.4971L63.3733 52.81Z" fill="#E00819"/>
<path d="M69.4065 52.81C69.408 51.2159 70.7015 49.9256 72.2956 49.9282C73.8897 49.9307 75.1808 51.225 75.1793 52.8191L75.1622 71.5062C75.1608 73.1003 73.8673 74.3906 72.2732 74.388C70.6791 74.3855 69.388 73.0912 69.3894 71.4971L69.4065 52.81Z" fill="#E00819"/>
<path d="M77.0687 30.9535C76.815 29.7444 75.6679 29.1058 74.5066 29.5271C73.3453 29.9484 72.6095 31.27 72.8631 32.4791L76.8913 51.6798C77.145 52.8889 78.292 53.5275 79.4534 53.1062C80.6147 52.6849 81.3505 51.3632 81.0969 50.1542L77.0687 30.9535Z" fill="#E00819"/>
</g>
<g filter="url(#filter15_d_171_1046)">
<circle cx="72.9074" cy="24.6109" r="4.52561" fill="#E00819"/>
<path d="M67.376 35.1366C67.376 31.8229 70.0964 29.1366 73.4101 29.1366C76.7238 29.1366 79.4443 31.8229 79.4443 35.1366V55.2846H67.376V35.1366Z" fill="#E00819"/>
<path d="M65.8288 33.9706C66.0825 32.7615 67.2295 32.1229 68.3909 32.5442C69.5522 32.9655 70.288 34.2871 70.0343 35.4962L66.0061 54.6969C65.7525 55.906 64.6054 56.5446 63.4441 56.1233C62.2828 55.702 61.5469 54.3803 61.8006 53.1713L65.8288 33.9706Z" fill="#E00819"/>
<path d="M67.3968 55.8271C67.3982 54.233 68.6917 52.9427 70.2858 52.9452C71.8799 52.9478 73.171 54.2421 73.1696 55.8362L73.1525 74.5233C73.151 76.1174 71.8575 77.4077 70.2634 77.4051C68.6693 77.4026 67.3782 76.1083 67.3797 74.5142L67.3968 55.8271Z" fill="#E00819"/>
<path d="M73.43 55.8271C73.4314 54.233 74.7249 52.9427 76.319 52.9452C77.9131 52.9478 79.2042 54.2421 79.2028 55.8362L79.1857 74.5233C79.1842 76.1174 77.8907 77.4077 76.2966 77.4051C74.7025 77.4026 73.4114 76.1083 73.4129 74.5142L73.43 55.8271Z" fill="#E00819"/>
<path d="M81.0911 33.9706C80.8375 32.7615 79.6904 32.1229 78.5291 32.5442C77.3677 32.9655 76.6319 34.2871 76.8856 35.4962L80.9138 54.6969C81.1674 55.906 82.3145 56.5446 83.4758 56.1233C84.6372 55.702 85.373 54.3803 85.1193 53.1713L81.0911 33.9706Z" fill="#E00819"/>
</g>
<g filter="url(#filter16_d_171_1046)">
<circle cx="45.7532" cy="10.5313" r="4.52561" fill="#E00819"/>
<path d="M40.2227 21.0569C40.2227 17.7432 42.9431 15.0569 46.2568 15.0569C49.5705 15.0569 52.2909 17.7432 52.2909 21.0569V41.2049H40.2227V21.0569Z" fill="#E00819"/>
<path d="M38.6745 19.891C38.9282 18.6819 40.0752 18.0433 41.2366 18.4646C42.3979 18.8859 43.1337 20.2075 42.88 21.4166L38.8518 40.6173C38.5982 41.8264 37.4511 42.465 36.2898 42.0437C35.1285 41.6224 34.3927 40.3007 34.6463 39.0917L38.6745 19.891Z" fill="#E00819"/>
<path d="M40.2425 41.7475C40.2439 40.1534 41.5374 38.8631 43.1315 38.8657C44.7256 38.8682 46.0167 40.1625 46.0153 41.7566L45.9982 60.4437C45.9967 62.0378 44.7032 63.3281 43.1091 63.3255C41.515 63.323 40.2239 62.0287 40.2254 60.4346L40.2425 41.7475Z" fill="#E00819"/>
<path d="M46.2757 41.7475C46.2771 40.1534 47.5706 38.8631 49.1647 38.8657C50.7588 38.8682 52.0499 40.1625 52.0485 41.7566L52.0314 60.4437C52.0299 62.0378 50.7364 63.3281 49.1423 63.3255C47.5482 63.323 46.2571 62.0287 46.2586 60.4346L46.2757 41.7475Z" fill="#E00819"/>
<path d="M53.9378 19.891C53.6841 18.6819 52.5371 18.0433 51.3757 18.4646C50.2144 18.8859 49.4786 20.2075 49.7323 21.4166L53.7605 40.6173C54.0141 41.8264 55.1612 42.465 56.3225 42.0437C57.4838 41.6224 58.2197 40.3007 57.966 39.0917L53.9378 19.891Z" fill="#E00819"/>
</g>
<g filter="url(#filter17_d_171_1046)">
<circle cx="46.6838" cy="15.4845" r="4.52561" fill="#E00819"/>
<path d="M41.1514 26.01C41.1514 22.6963 43.8718 20.01 47.1855 20.01C50.4992 20.01 53.2197 22.6963 53.2197 26.01V46.158H41.1514V26.01Z" fill="#E00819"/>
<path d="M39.6042 24.8441C39.8578 23.635 41.0049 22.9964 42.1662 23.4177C43.3276 23.839 44.0634 25.1607 43.8097 26.3697L39.7815 45.5704C39.5279 46.7795 38.3808 47.4181 37.2195 46.9968C36.0582 46.5755 35.3223 45.2539 35.576 44.0448L39.6042 24.8441Z" fill="#E00819"/>
<path d="M41.1722 46.7005C41.1736 45.1064 42.4671 43.8161 44.0612 43.8187C45.6553 43.8212 46.9464 45.1155 46.945 46.7096L46.9278 65.3967C46.9264 66.9908 45.6329 68.2811 44.0388 68.2785C42.4447 68.276 41.1536 66.9817 41.155 65.3876L41.1722 46.7005Z" fill="#E00819"/>
<path d="M47.2054 46.7005C47.2068 45.1064 48.5003 43.8161 50.0944 43.8187C51.6885 43.8212 52.9796 45.1155 52.9782 46.7096L52.9611 65.3967C52.9596 66.9908 51.6661 68.2811 50.072 68.2785C48.4779 68.276 47.1868 66.9817 47.1883 65.3876L47.2054 46.7005Z" fill="#E00819"/>
<path d="M54.8665 24.8441C54.6129 23.635 53.4658 22.9964 52.3045 23.4177C51.1431 23.839 50.4073 25.1607 50.661 26.3697L54.6892 45.5704C54.9428 46.7795 56.0899 47.4181 57.2512 46.9968C58.4125 46.5755 59.1484 45.2539 58.8947 44.0448L54.8665 24.8441Z" fill="#E00819"/>
</g>
<g filter="url(#filter18_d_171_1046)">
<circle cx="49.7766" cy="20.5881" r="4.52561" fill="#E00819"/>
<path d="M44.2461 31.1137C44.2461 27.7999 46.9665 25.1136 50.2802 25.1136C53.5939 25.1136 56.3144 27.7999 56.3144 31.1136V51.2616H44.2461V31.1137Z" fill="#E00819"/>
<path d="M42.6979 29.9477C42.9516 28.7387 44.0987 28.1001 45.26 28.5214C46.4213 28.9426 47.1571 30.2643 46.9035 31.4734L42.8753 50.6741C42.6216 51.8831 41.4746 52.5217 40.3132 52.1005C39.1519 51.6792 38.4161 50.3575 38.6697 49.1484L42.6979 29.9477Z" fill="#E00819"/>
<path d="M44.2649 51.8042C44.2664 50.2101 45.5599 48.9199 47.154 48.9224C48.7481 48.9249 50.0392 50.2193 50.0377 51.8134L50.0206 70.5005C50.0192 72.0946 48.7257 73.3848 47.1316 73.3823C45.5375 73.3798 44.2464 72.0854 44.2478 70.4913L44.2649 51.8042Z" fill="#E00819"/>
<path d="M50.2991 51.8042C50.3006 50.2101 51.594 48.9199 53.1882 48.9224C54.7823 48.9249 56.0734 50.2193 56.0719 51.8134L56.0548 70.5005C56.0533 72.0946 54.7599 73.3848 53.1658 73.3823C51.5716 73.3798 50.2805 72.0854 50.282 70.4913L50.2991 51.8042Z" fill="#E00819"/>
<path d="M57.9612 29.9477C57.7076 28.7387 56.5605 28.1001 55.3992 28.5214C54.2379 28.9426 53.502 30.2643 53.7557 31.4734L57.7839 50.6741C58.0375 51.8831 59.1846 52.5217 60.3459 52.1005C61.5073 51.6792 62.2431 50.3575 61.9894 49.1484L57.9612 29.9477Z" fill="#E00819"/>
</g>
<g filter="url(#filter19_d_171_1046)">
<circle cx="53.799" cy="23.6053" r="4.52561" fill="#E00819"/>
<path d="M48.2686 34.1309C48.2686 30.8172 50.989 28.1309 54.3027 28.1309C57.6164 28.1309 60.3368 30.8172 60.3368 34.1309V54.2788H48.2686V34.1309Z" fill="#E00819"/>
<path d="M46.7204 32.965C46.9741 31.7559 48.1211 31.1173 49.2825 31.5386C50.4438 31.9599 51.1796 33.2815 50.9259 34.4906L46.8977 53.6913C46.6441 54.9003 45.497 55.539 44.3357 55.1177C43.1744 54.6964 42.4385 53.3747 42.6922 52.1657L46.7204 32.965Z" fill="#E00819"/>
<path d="M48.2884 54.8215C48.2898 53.2273 49.5833 51.9371 51.1774 51.9396C52.7715 51.9422 54.0626 53.2365 54.0612 54.8306L54.0441 73.5177C54.0426 75.1118 52.7491 76.402 51.155 76.3995C49.5609 76.397 48.2698 75.1027 48.2713 73.5085L48.2884 54.8215Z" fill="#E00819"/>
<path d="M54.3216 54.8215C54.323 53.2273 55.6165 51.9371 57.2106 51.9396C58.8047 51.9422 60.0958 53.2365 60.0944 54.8306L60.0773 73.5177C60.0758 75.1118 58.7823 76.402 57.1882 76.3995C55.5941 76.397 54.303 75.1027 54.3045 73.5085L54.3216 54.8215Z" fill="#E00819"/>
<path d="M61.9847 32.965C61.731 31.7559 60.5839 31.1173 59.4226 31.5386C58.2613 31.9599 57.5255 33.2815 57.7791 34.4906L61.8073 53.6913C62.061 54.9003 63.2081 55.539 64.3694 55.1177C65.5307 54.6964 66.2665 53.3747 66.0129 52.1657L61.9847 32.965Z" fill="#E00819"/>
</g>
<g filter="url(#filter20_d_171_1046)">
<circle cx="25.6399" cy="9.52561" r="4.52561" fill="#E00819"/>
<path d="M20.1094 20.0512C20.1094 16.7374 22.8298 14.0511 26.1435 14.0511C29.4572 14.0511 32.1777 16.7374 32.1777 20.0511V40.1991H20.1094V20.0512Z" fill="#E00819"/>
<path d="M18.5612 18.8852C18.8149 17.6762 19.962 17.0376 21.1233 17.4589C22.2846 17.8801 23.0204 19.2018 22.7668 20.4109L18.7386 39.6116C18.4849 40.8206 17.3378 41.4592 16.1765 41.038C15.0152 40.6167 14.2794 39.295 14.533 38.0859L18.5612 18.8852Z" fill="#E00819"/>
<path d="M20.1292 40.7417C20.1307 39.1476 21.4241 37.8574 23.0182 37.8599C24.6124 37.8624 25.9035 39.1568 25.902 40.7509L25.8849 59.438C25.8834 61.0321 24.59 62.3223 22.9958 62.3198C21.4017 62.3173 20.1106 61.0229 20.1121 59.4288L20.1292 40.7417Z" fill="#E00819"/>
<path d="M26.1624 40.7417C26.1639 39.1476 27.4573 37.8574 29.0514 37.8599C30.6456 37.8624 31.9367 39.1568 31.9352 40.7509L31.9181 59.438C31.9166 61.0321 30.6232 62.3223 29.029 62.3198C27.4349 62.3173 26.1438 61.0229 26.1453 59.4288L26.1624 40.7417Z" fill="#E00819"/>
<path d="M33.8245 18.8852C33.5709 17.6762 32.4238 17.0376 31.2625 17.4589C30.1011 17.8801 29.3653 19.2018 29.619 20.4109L33.6472 39.6116C33.9008 40.8206 35.0479 41.4592 36.2092 41.038C37.3706 40.6167 38.1064 39.295 37.8527 38.0859L33.8245 18.8852Z" fill="#E00819"/>
</g>
<g filter="url(#filter21_d_171_1046)">
<circle cx="27.6516" cy="13.5483" r="4.52561" fill="#E00819"/>
<path d="M22.1211 24.0739C22.1211 20.7601 24.8415 18.0739 28.1552 18.0739C31.4689 18.0739 34.1894 20.7601 34.1894 24.0739V44.2218H22.1211V24.0739Z" fill="#E00819"/>
<path d="M20.5729 22.9079C20.8266 21.6989 21.9737 21.0603 23.135 21.4816C24.2963 21.9029 25.0321 23.2245 24.7785 24.4336L20.7503 43.6343C20.4966 44.8433 19.3496 45.4819 18.1882 45.0607C17.0269 44.6394 16.2911 43.3177 16.5447 42.1086L20.5729 22.9079Z" fill="#E00819"/>
<path d="M22.1409 44.7645C22.1424 43.1703 23.4358 41.8801 25.03 41.8826C26.6241 41.8851 27.9152 43.1795 27.9137 44.7736L27.8966 63.4607C27.8951 65.0548 26.6017 66.345 25.0076 66.3425C23.4134 66.34 22.1223 65.0457 22.1238 63.4515L22.1409 44.7645Z" fill="#E00819"/>
<path d="M28.1741 44.7645C28.1756 43.1703 29.469 41.8801 31.0632 41.8826C32.6573 41.8851 33.9484 43.1795 33.9469 44.7736L33.9298 63.4607C33.9283 65.0548 32.6349 66.345 31.0408 66.3425C29.4466 66.34 28.1555 65.0457 28.157 63.4515L28.1741 44.7645Z" fill="#E00819"/>
<path d="M35.8362 22.9079C35.5826 21.6989 34.4355 21.0603 33.2742 21.4816C32.1129 21.9029 31.377 23.2245 31.6307 24.4336L35.6589 43.6343C35.9125 44.8433 37.0596 45.4819 38.2209 45.0607C39.3823 44.6394 40.1181 43.3177 39.8644 42.1086L35.8362 22.9079Z" fill="#E00819"/>
</g>
<g filter="url(#filter22_d_171_1046)">
<circle cx="29.6614" cy="17.571" r="4.52561" fill="#E00819"/>
<path d="M24.1309 28.0966C24.1309 24.7829 26.8513 22.0966 30.165 22.0966C33.4787 22.0966 36.1992 24.7828 36.1992 28.0966V48.2445H24.1309V28.0966Z" fill="#E00819"/>
<path d="M22.5827 26.9307C22.8364 25.7216 23.9834 25.083 25.1448 25.5043C26.3061 25.9256 27.0419 27.2472 26.7883 28.4563L22.76 47.657C22.5064 48.866 21.3593 49.5047 20.198 49.0834C19.0367 48.6621 18.3009 47.3404 18.5545 46.1314L22.5827 26.9307Z" fill="#E00819"/>
<path d="M24.1507 48.7872C24.1521 47.193 25.4456 45.9028 27.0397 45.9053C28.6338 45.9079 29.9249 47.2022 29.9235 48.7963L29.9064 67.4834C29.9049 69.0775 28.6114 70.3677 27.0173 70.3652C25.4232 70.3627 24.1321 69.0684 24.1336 67.4742L24.1507 48.7872Z" fill="#E00819"/>
<path d="M30.1839 48.7872C30.1853 47.193 31.4788 45.9028 33.0729 45.9053C34.667 45.9079 35.9581 47.2022 35.9567 48.7963L35.9396 67.4834C35.9381 69.0775 34.6446 70.3677 33.0505 70.3652C31.4564 70.3627 30.1653 69.0684 30.1668 67.4742L30.1839 48.7872Z" fill="#E00819"/>
<path d="M37.846 26.9307C37.5923 25.7216 36.4453 25.083 35.2839 25.5043C34.1226 25.9256 33.3868 27.2472 33.6405 28.4563L37.6687 47.657C37.9223 48.866 39.0694 49.5047 40.2307 49.0834C41.392 48.6621 42.1279 47.3404 41.8742 46.1314L37.846 26.9307Z" fill="#E00819"/>
</g>
<g filter="url(#filter23_d_171_1046)">
<circle cx="33.6838" cy="20.5881" r="4.52561" fill="#E00819"/>
<path d="M28.1533 31.1137C28.1533 27.7999 30.8738 25.1136 34.1875 25.1136C37.5012 25.1136 40.2216 27.7999 40.2216 31.1136V51.2616H28.1533V31.1137Z" fill="#E00819"/>
<path d="M26.6052 29.9477C26.8588 28.7387 28.0059 28.1001 29.1672 28.5214C30.3286 28.9426 31.0644 30.2643 30.8107 31.4734L26.7825 50.6741C26.5289 51.8831 25.3818 52.5217 24.2205 52.1005C23.0591 51.6792 22.3233 50.3575 22.577 49.1484L26.6052 29.9477Z" fill="#E00819"/>
<path d="M28.1722 51.8042C28.1736 50.2101 29.4671 48.9199 31.0612 48.9224C32.6553 48.9249 33.9464 50.2193 33.945 51.8134L33.9278 70.5005C33.9264 72.0946 32.6329 73.3848 31.0388 73.3823C29.4447 73.3798 28.1536 72.0854 28.155 70.4913L28.1722 51.8042Z" fill="#E00819"/>
<path d="M34.2063 51.8042C34.2078 50.2101 35.5013 48.9199 37.0954 48.9224C38.6895 48.9249 39.9806 50.2193 39.9791 51.8134L39.962 70.5005C39.9606 72.0946 38.6671 73.3848 37.073 73.3823C35.4789 73.3798 34.1878 72.0854 34.1892 70.4913L34.2063 51.8042Z" fill="#E00819"/>
<path d="M41.8685 29.9477C41.6148 28.7387 40.4677 28.1001 39.3064 28.5214C38.1451 28.9426 37.4093 30.2643 37.6629 31.4734L41.6911 50.6741C41.9448 51.8831 43.0918 52.5217 44.2532 52.1005C45.4145 51.6792 46.1503 50.3575 45.8967 49.1484L41.8685 29.9477Z" fill="#E00819"/>
</g>
<path d="M21.6163 8.01715C20.1077 7.5143 16.085 8.01713 16.085 8.01713L26.6447 29.6395L136.768 30.1423L119.168 8.01713C119.168 8.01713 118.163 7.51431 117.157 8.01715M30.1646 8.01713C30.1646 8.01713 40.7244 7.5143 41.7301 8.01715M49.7756 8.01715C51.2841 7.5143 108.609 7.51431 109.111 8.01716" stroke="#FFD301"/>
<path d="M138.779 30.9137L135.75 95.5007H123.128L122.627 95.5067L37.8027 96.5179H25.1806L22.6562 91.9408V88.8895L17.1025 72.107H15.5879L14.0732 68.5471L14.5761 7.01135L15.5879 9.89404L24.7617 27.3537L26.1904 30.9137H34.7734H131.206H138.779Z" fill="#FFD301"/>
<path d="M26.1904 30.9137L25.1806 96.5179M26.1904 30.9137H34.7734M26.1904 30.9137L24.7617 27.3537M25.1806 96.5179H37.8027M25.1806 96.5179L22.6562 91.9408V88.8895M138.779 30.9137L135.75 95.5007H123.128L122.627 95.5067M138.779 30.9137L119.593 7.01135H116.151M138.779 30.9137H131.206M14.5761 7.01135L14.0732 68.5471L15.5879 72.107H17.1025M14.5761 7.01135L15.5879 9.89404M14.5761 7.01135H21.6159M37.8027 96.5179L34.7734 30.9137M37.8027 96.5179L122.627 95.5067M17.1025 72.107L22.6562 88.8895M17.1025 72.107L15.5882 27.3631M22.6562 88.8895C22.6562 87.6276 23.5001 63.2521 24.2063 43.1191M34.7734 30.9137H131.206M122.627 95.5067L131.206 30.9137M15.5879 9.89404L24.7617 27.3537M15.5879 9.89404L15.5169 15.1483M24.7617 27.3537C24.7007 29.0783 24.8319 28.9216 24.7617 30.9137M15.5882 27.3631L15.5879 27.3537L15.5169 19.7253M15.5882 27.3631C15.6391 28.2434 21.737 38.5588 24.2063 43.1191M24.2063 43.1191C24.286 40.8483 24.3639 38.6314 24.4387 36.5078M15.5169 19.7253L24.4387 36.5078M15.5169 19.7253V15.1483M24.4387 36.5078C24.4816 35.2879 24.7211 32.0646 24.7617 30.9137M15.5169 15.1483C15.52 15.5552 24.7617 30.9137 24.7617 30.9137M34.9165 34.0134C36.1282 34.4202 99.3982 33.4565 130.701 32.9479M35.2783 35.9993C36.0861 35.9993 99.2299 34.9821 130.701 34.4736M35.7831 49.7304L128.681 48.7132M35.2783 38.0335H130.26M130.058 39.5592H35.1726M21.1131 9.04559H17.5932C17.5932 9.45244 24.5075 22.4377 27.2002 28.8794L134.74 29.388L118.584 9.04559H117.659M30.1643 9.04559H41.4469M50.1524 9.04559H62.8493M66.4949 9.04559H80.9517M29.6615 7.01135H42.7354M84.9745 9.04559H99.3982M102.574 9.04559H108.608M48.7696 7.01135H110.117" stroke="black" stroke-linecap="round" stroke-linejoin="round"/>
<path d="M99.2186 40.3763H65.8965L71.1255 48.7133L94.5292 48.2447L99.2186 40.3763Z" stroke="black" stroke-linecap="round" stroke-linejoin="round"/>
<g filter="url(#filter24_d_171_1046)">
<circle cx="55.8098" cy="89.9808" r="4.52561" fill="#E00819"/>
<path d="M50.2793 100.506C50.2793 97.1928 52.9997 94.5065 56.3134 94.5065C59.6272 94.5065 62.3476 97.1928 62.3476 100.506V120.654H50.2793V100.506Z" fill="#E00819"/>
<path d="M48.7331 99.3406C48.9868 98.1315 50.1338 97.4929 51.2952 97.9142C52.4565 98.3355 53.1923 99.6571 52.9386 100.866L48.9104 120.067C48.6568 121.276 47.5097 121.915 46.3484 121.493C45.1871 121.072 44.4512 119.75 44.7049 118.541L48.7331 99.3406Z" fill="#E00819"/>
<path d="M50.2991 121.197C50.3006 119.603 51.594 118.313 53.1882 118.315C54.7823 118.318 56.0734 119.612 56.0719 121.206L56.0548 139.893C56.0533 141.487 54.7599 142.778 53.1658 142.775C51.5716 142.772 50.2805 141.478 50.282 139.884L50.2991 121.197Z" fill="#E00819"/>
<path d="M56.3333 121.197C56.3348 119.603 57.6282 118.313 59.2223 118.315C60.8165 118.318 62.1076 119.612 62.1061 121.206L62.089 139.893C62.0875 141.487 60.7941 142.778 59.1999 142.775C57.6058 142.772 56.3147 141.478 56.3162 139.884L56.3333 121.197Z" fill="#E00819"/>
<path d="M63.9954 99.3406C63.7418 98.1315 62.5947 97.4929 61.4334 97.9142C60.272 98.3355 59.5362 99.6571 59.7899 100.866L63.8181 120.067C64.0717 121.276 65.2188 121.915 66.3801 121.493C67.5415 121.072 68.2773 119.75 68.0236 118.541L63.9954 99.3406Z" fill="#E00819"/>
</g>
<g filter="url(#filter25_d_171_1046)">
<path d="M12.0625 89.4439C12.0625 86.1301 14.7829 83.4438 18.0966 83.4438C21.4104 83.4438 24.1308 86.1301 24.1308 89.4438V109.592H12.0625V89.4439Z" fill="#E00819"/>
<path d="M10.5153 88.2779C10.769 87.0689 11.9161 86.4303 13.0774 86.8516C14.2387 87.2728 14.9745 88.5945 14.7209 89.8036L10.6927 109.004C10.439 110.213 9.29194 110.852 8.13061 110.431C6.96929 110.009 6.23347 108.688 6.48712 107.479L10.5153 88.2779Z" fill="#E00819"/>
<path d="M12.0833 110.134C12.0848 108.54 13.3782 107.25 14.9723 107.253C16.5665 107.255 17.8576 108.549 17.8561 110.144L17.839 128.831C17.8375 130.425 16.5441 131.715 14.9499 131.713C13.3558 131.71 12.0647 130.416 12.0662 128.822L12.0833 110.134Z" fill="#E00819"/>
<path d="M18.1165 110.134C18.118 108.54 19.4114 107.25 21.0055 107.253C22.5997 107.255 23.8908 108.549 23.8893 110.144L23.8722 128.831C23.8707 130.425 22.5773 131.715 20.9831 131.713C19.389 131.71 18.0979 130.416 18.0994 128.822L18.1165 110.134Z" fill="#E00819"/>
<path d="M25.7776 88.2779C25.524 87.0689 24.3769 86.4303 23.2156 86.8516C22.0543 87.2728 21.3184 88.5945 21.5721 89.8036L25.6003 109.004C25.854 110.213 27.001 110.852 28.1624 110.431C29.3237 110.009 30.0595 108.688 29.8058 107.479L25.7776 88.2779Z" fill="#E00819"/>
<circle cx="17.594" cy="78.9183" r="4.52561" fill="#E00819"/>
</g>
<path d="M2.50854 80.9297L13.0683 78.4154V80.2382L7.53699 81.4325L54.3016 103.836L136.265 88.4723V85.9581L142.3 88.4723L140.288 147.808L133.751 149.414L64.8614 166.334L54.3016 168.928L54.0805 168.803L44.4559 163.396L9.54837 143.785L8.03984 144.288L1 140.265L2.50854 80.9297Z" fill="#FFD301"/>
<path d="M2.50854 80.9297L13.0683 78.4154V80.2382L7.53699 81.4325L54.3016 103.836L136.265 88.4723V85.9581L142.3 88.4723M2.50854 80.9297L1 140.265L8.03984 144.288M2.50854 80.9297L6.02846 82.6725M54.3016 106.575L54.0805 168.803M54.3016 106.575L48.7703 103.836M54.3016 106.575L60.8386 105.23M142.3 88.4723L140.288 147.808L133.751 149.414M142.3 88.4723L135.61 89.8485M8.03984 144.288L9.54837 143.785L44.4559 163.396M8.03984 144.288L6.61174 100.541M54.0805 168.803L54.3016 168.928L64.8614 166.334M54.0805 168.803L44.4559 163.396M6.02846 82.6725L48.7703 103.836M6.02846 82.6725L6.17428 87.1396M48.7703 103.836L48.4566 108.166M44.4559 163.396L47.5156 121.157M6.61174 100.541L47.5156 121.157M6.61174 100.541L6.3201 91.6066M47.5156 121.157L48.143 112.497M6.3201 91.6066L48.143 112.497M6.3201 91.6066L6.17428 87.1396M48.143 112.497L48.4566 108.166M6.17428 87.1396L48.4566 108.166M60.8386 105.23L135.61 89.8485M60.8386 105.23L61.0319 108.166M64.8614 166.334L133.751 149.414M64.8614 166.334L61.9534 122.163M135.61 89.8485L135.464 94.5065M133.751 149.414L135.088 106.575M61.0319 108.166L135.464 94.5065M61.0319 108.166L61.317 112.497M135.464 94.5065L135.355 98.0264M61.317 112.497L135.355 98.0264M61.317 112.497L61.9534 122.163M135.355 98.0264L135.088 106.575M61.9534 122.163L135.088 106.575M90.0037 116.129L106.598 112.609L111.123 103.558L85.478 108.586L90.0037 116.129ZM18.5996 98.0264L35.1935 106.575L32.6793 113.615L21.1138 107.58L18.5996 98.0264Z" stroke="black"/>
<g filter="url(#filter26_d_171_1046)">
<circle cx="27.6516" cy="121.157" r="4.52561" fill="#E00819"/>
<path d="M22.1211 131.683C22.1211 128.369 24.8415 125.683 28.1552 125.683C31.4689 125.683 34.1894 128.369 34.1894 131.683V151.831H22.1211V131.683Z" fill="#E00819"/>
<path d="M20.5729 130.517C20.8266 129.308 21.9737 128.669 23.135 129.09C24.2963 129.512 25.0321 130.833 24.7785 132.042L20.7503 151.243C20.4966 152.452 19.3496 153.091 18.1882 152.67C17.0269 152.248 16.2911 150.927 16.5447 149.718L20.5729 130.517Z" fill="#E00819"/>
<path d="M22.1409 152.373C22.1424 150.779 23.4358 149.489 25.03 149.492C26.6241 149.494 27.9152 150.788 27.9137 152.382L27.8966 171.07C27.8951 172.664 26.6017 173.954 25.0076 173.951C23.4134 173.949 22.1223 172.655 22.1238 171.06L22.1409 152.373Z" fill="#E00819"/>
<path d="M28.1741 152.373C28.1756 150.779 29.469 149.489 31.0632 149.492C32.6573 149.494 33.9484 150.788 33.9469 152.382L33.9298 171.07C33.9283 172.664 32.6349 173.954 31.0408 173.951C29.4466 173.949 28.1555 172.655 28.157 171.06L28.1741 152.373Z" fill="#E00819"/>
<path d="M35.8362 130.517C35.5826 129.308 34.4355 128.669 33.2742 129.09C32.1129 129.512 31.377 130.833 31.6307 132.042L35.6589 151.243C35.9125 152.452 37.0596 153.091 38.2209 152.67C39.3823 152.248 40.1181 150.927 39.8644 149.718L35.8362 130.517Z" fill="#E00819"/>
</g>
<g filter="url(#filter27_d_171_1046)">
<circle cx="58.8274" cy="121.157" r="4.52561" fill="#E00819"/>
<path d="M53.2969 131.683C53.2969 128.369 56.0173 125.683 59.331 125.683C62.6447 125.683 65.3652 128.369 65.3652 131.683V151.831H53.2969V131.683Z" fill="#E00819"/>
<path d="M51.7487 130.517C52.0024 129.308 53.1495 128.669 54.3108 129.091C55.4721 129.512 56.2079 130.834 55.9543 132.043L51.9261 151.243C51.6724 152.452 50.5253 153.091 49.364 152.67C48.2027 152.248 47.4669 150.927 47.7205 149.718L51.7487 130.517Z" fill="#E00819"/>
<path d="M53.3157 152.373C53.3172 150.779 54.6106 149.489 56.2048 149.492C57.7989 149.494 59.09 150.788 59.0885 152.383L59.0714 171.07C59.0699 172.664 57.7765 173.954 56.1824 173.952C54.5882 173.949 53.2971 172.655 53.2986 171.061L53.3157 152.373Z" fill="#E00819"/>
<path d="M59.3499 152.373C59.3514 150.779 60.6448 149.489 62.2389 149.492C63.8331 149.494 65.1242 150.788 65.1227 152.383L65.1056 171.07C65.1041 172.664 63.8107 173.954 62.2165 173.952C60.6224 173.949 59.3313 172.655 59.3328 171.061L59.3499 152.373Z" fill="#E00819"/>
<path d="M67.012 130.517C66.7584 129.308 65.6113 128.669 64.45 129.091C63.2886 129.512 62.5528 130.834 62.8065 132.043L66.8347 151.243C67.0883 152.452 68.2354 153.091 69.3967 152.67C70.5581 152.248 71.2939 150.927 71.0402 149.718L67.012 130.517Z" fill="#E00819"/>
</g>
<g filter="url(#filter28_d_171_1046)">
<circle cx="41.7307" cy="125.18" r="4.52561" fill="#E00819"/>
<path d="M36.2002 135.706C36.2002 132.392 38.9206 129.706 42.2343 129.706C45.548 129.706 48.2685 132.392 48.2685 135.706V155.854H36.2002V135.706Z" fill="#E00819"/>
<path d="M34.652 134.54C34.9057 133.331 36.0528 132.692 37.2141 133.113C38.3754 133.535 39.1112 134.856 38.8576 136.065L34.8294 155.266C34.5757 156.475 33.4287 157.114 32.2673 156.692C31.106 156.271 30.3702 154.949 30.6238 153.74L34.652 134.54Z" fill="#E00819"/>
<path d="M36.22 156.396C36.2215 154.802 37.5149 153.512 39.1091 153.514C40.7032 153.517 41.9943 154.811 41.9928 156.405L41.9757 175.092C41.9742 176.687 40.6808 177.977 39.0867 177.974C37.4925 177.972 36.2014 176.677 36.2029 175.083L36.22 156.396Z" fill="#E00819"/>
<path d="M42.2532 156.396C42.2547 154.802 43.5481 153.512 45.1423 153.514C46.7364 153.517 48.0275 154.811 48.026 156.405L48.0089 175.092C48.0074 176.687 46.714 177.977 45.1199 177.974C43.5257 177.972 42.2346 176.677 42.2361 175.083L42.2532 156.396Z" fill="#E00819"/>
<path d="M49.9153 134.54C49.6617 133.331 48.5146 132.692 47.3533 133.113C46.192 133.535 45.4561 134.856 45.7098 136.065L49.738 155.266C49.9917 156.475 51.1387 157.114 52.3 156.692C53.4614 156.271 54.1972 154.949 53.9435 153.74L49.9153 134.54Z" fill="#E00819"/>
</g>
<g filter="url(#filter29_d_171_1046)">
<circle cx="147.327" cy="111.1" r="4.52561" fill="#E00819"/>
<path d="M141.797 121.626C141.797 118.312 144.517 115.626 147.831 115.626C151.145 115.626 153.865 118.312 153.865 121.626V141.774H141.797V121.626Z" fill="#E00819"/>
<path d="M140.249 120.46C140.502 119.251 141.649 118.612 142.811 119.034C143.972 119.455 144.708 120.777 144.454 121.986L140.426 141.186C140.172 142.395 139.025 143.034 137.864 142.613C136.703 142.191 135.967 140.87 136.221 139.661L140.249 120.46Z" fill="#E00819"/>
<path d="M141.817 142.316C141.818 140.722 143.112 139.432 144.706 139.435C146.3 139.437 147.591 140.731 147.589 142.326L147.572 161.013C147.571 162.607 146.277 163.897 144.683 163.895C143.089 163.892 141.798 162.598 141.8 161.004L141.817 142.316Z" fill="#E00819"/>
<path d="M147.85 142.316C147.851 140.722 149.145 139.432 150.739 139.435C152.333 139.437 153.624 140.731 153.623 142.326L153.606 161.013C153.604 162.607 152.311 163.897 150.717 163.895C149.122 163.892 147.831 162.598 147.833 161.004L147.85 142.316Z" fill="#E00819"/>
<path d="M155.512 120.46C155.258 119.251 154.111 118.612 152.95 119.034C151.789 119.455 151.053 120.777 151.306 121.986L155.335 141.186C155.588 142.395 156.735 143.034 157.897 142.613C159.058 142.191 159.794 140.87 159.54 139.661L155.512 120.46Z" fill="#E00819"/>
</g>
<g filter="url(#filter30_d_171_1046)">
<circle cx="134.253" cy="119.146" r="4.52561" fill="#E00819"/>
<path d="M128.723 129.671C128.723 126.358 131.443 123.671 134.757 123.671C138.071 123.671 140.791 126.358 140.791 129.671V149.819H128.723V129.671Z" fill="#E00819"/>
<path d="M127.175 128.505C127.428 127.296 128.575 126.658 129.737 127.079C130.898 127.5 131.634 128.822 131.38 130.031L127.352 149.232C127.098 150.441 125.951 151.079 124.79 150.658C123.628 150.237 122.893 148.915 123.146 147.706L127.175 128.505Z" fill="#E00819"/>
<path d="M128.742 150.362C128.744 148.768 130.037 147.478 131.632 147.48C133.226 147.483 134.517 148.777 134.515 150.371L134.498 169.058C134.497 170.652 133.203 171.943 131.609 171.94C130.015 171.938 128.724 170.643 128.725 169.049L128.742 150.362Z" fill="#E00819"/>
<path d="M134.776 150.362C134.777 148.768 136.071 147.478 137.665 147.48C139.259 147.483 140.55 148.777 140.548 150.371L140.531 169.058C140.53 170.652 139.236 171.943 137.642 171.94C136.048 171.938 134.757 170.643 134.759 169.049L134.776 150.362Z" fill="#E00819"/>
<path d="M142.438 128.505C142.184 127.296 141.037 126.658 139.876 127.079C138.714 127.5 137.979 128.822 138.232 130.031L142.26 149.232C142.514 150.441 143.661 151.079 144.823 150.658C145.984 150.237 146.72 148.915 146.466 147.706L142.438 128.505Z" fill="#E00819"/>
</g>
<defs>
<filter id="filter0_d_171_1046" x="96.9775" y="1.00562" width="31.4189" height="65.3199" filterUnits="userSpaceOnUse" color-interpolation-filters="sRGB">
<feFlood flood-opacity="0" result="BackgroundImageFix"/>
<feColorMatrix in="SourceAlpha" type="matrix" values="0 0 0 0 0 0 0 0 0 0 0 0 0 0 0 0 0 0 127 0" result="hardAlpha"/>
<feOffset dx="-1" dy="-1"/>
<feGaussianBlur stdDeviation="2"/>
<feComposite in2="hardAlpha" operator="out"/>
<feColorMatrix type="matrix" values="0 0 0 0 0 0 0 0 0 0 0 0 0 0 0 0 0 0 0.25 0"/>
<feBlend mode="normal" in2="BackgroundImageFix" result="effect1_dropShadow_171_1046"/>
<feBlend mode="normal" in="SourceGraphic" in2="effect1_dropShadow_171_1046" result="shape"/>
</filter>
<filter id="filter1_d_171_1046" x="97.832" y="7.03992" width="31.4189" height="65.3198" filterUnits="userSpaceOnUse" color-interpolation-filters="sRGB">
<feFlood flood-opacity="0" result="BackgroundImageFix"/>
<feColorMatrix in="SourceAlpha" type="matrix" values="0 0 0 0 0 0 0 0 0 0 0 0 0 0 0 0 0 0 127 0" result="hardAlpha"/>
<feOffset dx="-1" dy="-1"/>
<feGaussianBlur stdDeviation="2"/>
<feComposite in2="hardAlpha" operator="out"/>
<feColorMatrix type="matrix" values="0 0 0 0 0 0 0 0 0 0 0 0 0 0 0 0 0 0 0.25 0"/>
<feBlend mode="normal" in2="BackgroundImageFix" result="effect1_dropShadow_171_1046"/>
<feBlend mode="normal" in="SourceGraphic" in2="effect1_dropShadow_171_1046" result="shape"/>
</filter>
<filter id="filter2_d_171_1046" x="102.007" y="11.0626" width="31.418" height="65.3198" filterUnits="userSpaceOnUse" color-interpolation-filters="sRGB">
<feFlood flood-opacity="0" result="BackgroundImageFix"/>
<feColorMatrix in="SourceAlpha" type="matrix" values="0 0 0 0 0 0 0 0 0 0 0 0 0 0 0 0 0 0 127 0" result="hardAlpha"/>
<feOffset dx="-1" dy="-1"/>
<feGaussianBlur stdDeviation="2"/>
<feComposite in2="hardAlpha" operator="out"/>
<feColorMatrix type="matrix" values="0 0 0 0 0 0 0 0 0 0 0 0 0 0 0 0 0 0 0.25 0"/>
<feBlend mode="normal" in2="BackgroundImageFix" result="effect1_dropShadow_171_1046"/>
<feBlend mode="normal" in="SourceGraphic" in2="effect1_dropShadow_171_1046" result="shape"/>
</filter>
<filter id="filter3_d_171_1046" x="106.029" y="14.0797" width="31.418" height="65.3198" filterUnits="userSpaceOnUse" color-interpolation-filters="sRGB">
<feFlood flood-opacity="0" result="BackgroundImageFix"/>
<feColorMatrix in="SourceAlpha" type="matrix" values="0 0 0 0 0 0 0 0 0 0 0 0 0 0 0 0 0 0 127 0" result="hardAlpha"/>
<feOffset dx="-1" dy="-1"/>
<feGaussianBlur stdDeviation="2"/>
<feComposite in2="hardAlpha" operator="out"/>
<feColorMatrix type="matrix" values="0 0 0 0 0 0 0 0 0 0 0 0 0 0 0 0 0 0 0.25 0"/>
<feBlend mode="normal" in2="BackgroundImageFix" result="effect1_dropShadow_171_1046"/>
<feBlend mode="normal" in="SourceGraphic" in2="effect1_dropShadow_171_1046" result="shape"/>
</filter>
<filter id="filter4_d_171_1046" x="84.9082" y="4.02271" width="31.4189" height="65.3198" filterUnits="userSpaceOnUse" color-interpolation-filters="sRGB">
<feFlood flood-opacity="0" result="BackgroundImageFix"/>
<feColorMatrix in="SourceAlpha" type="matrix" values="0 0 0 0 0 0 0 0 0 0 0 0 0 0 0 0 0 0 127 0" result="hardAlpha"/>
<feOffset dx="-1" dy="-1"/>
<feGaussianBlur stdDeviation="2"/>
<feComposite in2="hardAlpha" operator="out"/>
<feColorMatrix type="matrix" values="0 0 0 0 0 0 0 0 0 0 0 0 0 0 0 0 0 0 0.25 0"/>
<feBlend mode="normal" in2="BackgroundImageFix" result="effect1_dropShadow_171_1046"/>
<feBlend mode="normal" in="SourceGraphic" in2="effect1_dropShadow_171_1046" result="shape"/>
</filter>
<filter id="filter5_d_171_1046" x="84.7588" y="8.04541" width="31.4189" height="65.3198" filterUnits="userSpaceOnUse" color-interpolation-filters="sRGB">
<feFlood flood-opacity="0" result="BackgroundImageFix"/>
<feColorMatrix in="SourceAlpha" type="matrix" values="0 0 0 0 0 0 0 0 0 0 0 0 0 0 0 0 0 0 127 0" result="hardAlpha"/>
<feOffset dx="-1" dy="-1"/>
<feGaussianBlur stdDeviation="2"/>
<feComposite in2="hardAlpha" operator="out"/>
<feColorMatrix type="matrix" values="0 0 0 0 0 0 0 0 0 0 0 0 0 0 0 0 0 0 0.25 0"/>
<feBlend mode="normal" in2="BackgroundImageFix" result="effect1_dropShadow_171_1046"/>
<feBlend mode="normal" in="SourceGraphic" in2="effect1_dropShadow_171_1046" result="shape"/>
</filter>
<filter id="filter6_d_171_1046" x="88.9326" y="12.0682" width="31.4189" height="65.3198" filterUnits="userSpaceOnUse" color-interpolation-filters="sRGB">
<feFlood flood-opacity="0" result="BackgroundImageFix"/>
<feColorMatrix in="SourceAlpha" type="matrix" values="0 0 0 0 0 0 0 0 0 0 0 0 0 0 0 0 0 0 127 0" result="hardAlpha"/>
<feOffset dx="-1" dy="-1"/>
<feGaussianBlur stdDeviation="2"/>
<feComposite in2="hardAlpha" operator="out"/>
<feColorMatrix type="matrix" values="0 0 0 0 0 0 0 0 0 0 0 0 0 0 0 0 0 0 0.25 0"/>
<feBlend mode="normal" in2="BackgroundImageFix" result="effect1_dropShadow_171_1046"/>
<feBlend mode="normal" in="SourceGraphic" in2="effect1_dropShadow_171_1046" result="shape"/>
</filter>
<filter id="filter7_d_171_1046" x="92.9541" y="15.0854" width="31.4189" height="65.3198" filterUnits="userSpaceOnUse" color-interpolation-filters="sRGB">
<feFlood flood-opacity="0" result="BackgroundImageFix"/>
<feColorMatrix in="SourceAlpha" type="matrix" values="0 0 0 0 0 0 0 0 0 0 0 0 0 0 0 0 0 0 127 0" result="hardAlpha"/>
<feOffset dx="-1" dy="-1"/>
<feGaussianBlur stdDeviation="2"/>
<feComposite in2="hardAlpha" operator="out"/>
<feColorMatrix type="matrix" values="0 0 0 0 0 0 0 0 0 0 0 0 0 0 0 0 0 0 0.25 0"/>
<feBlend mode="normal" in2="BackgroundImageFix" result="effect1_dropShadow_171_1046"/>
<feBlend mode="normal" in="SourceGraphic" in2="effect1_dropShadow_171_1046" result="shape"/>
</filter>
<filter id="filter8_d_171_1046" x="66.8076" y="4.02271" width="31.4189" height="65.3198" filterUnits="userSpaceOnUse" color-interpolation-filters="sRGB">
<feFlood flood-opacity="0" result="BackgroundImageFix"/>
<feColorMatrix in="SourceAlpha" type="matrix" values="0 0 0 0 0 0 0 0 0 0 0 0 0 0 0 0 0 0 127 0" result="hardAlpha"/>
<feOffset dx="-1" dy="-1"/>
<feGaussianBlur stdDeviation="2"/>
<feComposite in2="hardAlpha" operator="out"/>
<feColorMatrix type="matrix" values="0 0 0 0 0 0 0 0 0 0 0 0 0 0 0 0 0 0 0.25 0"/>
<feBlend mode="normal" in2="BackgroundImageFix" result="effect1_dropShadow_171_1046"/>
<feBlend mode="normal" in="SourceGraphic" in2="effect1_dropShadow_171_1046" result="shape"/>
</filter>
<filter id="filter9_d_171_1046" x="66.6572" y="8.04541" width="31.418" height="65.3198" filterUnits="userSpaceOnUse" color-interpolation-filters="sRGB">
<feFlood flood-opacity="0" result="BackgroundImageFix"/>
<feColorMatrix in="SourceAlpha" type="matrix" values="0 0 0 0 0 0 0 0 0 0 0 0 0 0 0 0 0 0 127 0" result="hardAlpha"/>
<feOffset dx="-1" dy="-1"/>
<feGaussianBlur stdDeviation="2"/>
<feComposite in2="hardAlpha" operator="out"/>
<feColorMatrix type="matrix" values="0 0 0 0 0 0 0 0 0 0 0 0 0 0 0 0 0 0 0.25 0"/>
<feBlend mode="normal" in2="BackgroundImageFix" result="effect1_dropShadow_171_1046"/>
<feBlend mode="normal" in="SourceGraphic" in2="effect1_dropShadow_171_1046" result="shape"/>
</filter>
<filter id="filter10_d_171_1046" x="70.8311" y="12.0682" width="31.4189" height="65.3198" filterUnits="userSpaceOnUse" color-interpolation-filters="sRGB">
<feFlood flood-opacity="0" result="BackgroundImageFix"/>
<feColorMatrix in="SourceAlpha" type="matrix" values="0 0 0 0 0 0 0 0 0 0 0 0 0 0 0 0 0 0 127 0" result="hardAlpha"/>
<feOffset dx="-1" dy="-1"/>
<feGaussianBlur stdDeviation="2"/>
<feComposite in2="hardAlpha" operator="out"/>
<feColorMatrix type="matrix" values="0 0 0 0 0 0 0 0 0 0 0 0 0 0 0 0 0 0 0.25 0"/>
<feBlend mode="normal" in2="BackgroundImageFix" result="effect1_dropShadow_171_1046"/>
<feBlend mode="normal" in="SourceGraphic" in2="effect1_dropShadow_171_1046" result="shape"/>
</filter>
<filter id="filter11_d_171_1046" x="74.8525" y="15.0854" width="31.4189" height="65.3198" filterUnits="userSpaceOnUse" color-interpolation-filters="sRGB">
<feFlood flood-opacity="0" result="BackgroundImageFix"/>
<feColorMatrix in="SourceAlpha" type="matrix" values="0 0 0 0 0 0 0 0 0 0 0 0 0 0 0 0 0 0 127 0" result="hardAlpha"/>
<feOffset dx="-1" dy="-1"/>
<feGaussianBlur stdDeviation="2"/>
<feComposite in2="hardAlpha" operator="out"/>
<feColorMatrix type="matrix" values="0 0 0 0 0 0 0 0 0 0 0 0 0 0 0 0 0 0 0.25 0"/>
<feBlend mode="normal" in2="BackgroundImageFix" result="effect1_dropShadow_171_1046"/>
<feBlend mode="normal" in="SourceGraphic" in2="effect1_dropShadow_171_1046" result="shape"/>
</filter>
<filter id="filter12_d_171_1046" x="48.7061" y="4.02271" width="31.4189" height="65.3198" filterUnits="userSpaceOnUse" color-interpolation-filters="sRGB">
<feFlood flood-opacity="0" result="BackgroundImageFix"/>
<feColorMatrix in="SourceAlpha" type="matrix" values="0 0 0 0 0 0 0 0 0 0 0 0 0 0 0 0 0 0 127 0" result="hardAlpha"/>
<feOffset dx="-1" dy="-1"/>
<feGaussianBlur stdDeviation="2"/>
<feComposite in2="hardAlpha" operator="out"/>
<feColorMatrix type="matrix" values="0 0 0 0 0 0 0 0 0 0 0 0 0 0 0 0 0 0 0.25 0"/>
<feBlend mode="normal" in2="BackgroundImageFix" result="effect1_dropShadow_171_1046"/>
<feBlend mode="normal" in="SourceGraphic" in2="effect1_dropShadow_171_1046" result="shape"/>
</filter>
<filter id="filter13_d_171_1046" x="51.7959" y="8.04541" width="31.4189" height="65.3198" filterUnits="userSpaceOnUse" color-interpolation-filters="sRGB">
<feFlood flood-opacity="0" result="BackgroundImageFix"/>
<feColorMatrix in="SourceAlpha" type="matrix" values="0 0 0 0 0 0 0 0 0 0 0 0 0 0 0 0 0 0 127 0" result="hardAlpha"/>
<feOffset dx="-1" dy="-1"/>
<feGaussianBlur stdDeviation="2"/>
<feComposite in2="hardAlpha" operator="out"/>
<feColorMatrix type="matrix" values="0 0 0 0 0 0 0 0 0 0 0 0 0 0 0 0 0 0 0.25 0"/>
<feBlend mode="normal" in2="BackgroundImageFix" result="effect1_dropShadow_171_1046"/>
<feBlend mode="normal" in="SourceGraphic" in2="effect1_dropShadow_171_1046" result="shape"/>
</filter>
<filter id="filter14_d_171_1046" x="52.7275" y="12.0682" width="31.4189" height="65.3198" filterUnits="userSpaceOnUse" color-interpolation-filters="sRGB">
<feFlood flood-opacity="0" result="BackgroundImageFix"/>
<feColorMatrix in="SourceAlpha" type="matrix" values="0 0 0 0 0 0 0 0 0 0 0 0 0 0 0 0 0 0 127 0" result="hardAlpha"/>
<feOffset dx="-1" dy="-1"/>
<feGaussianBlur stdDeviation="2"/>
<feComposite in2="hardAlpha" operator="out"/>
<feColorMatrix type="matrix" values="0 0 0 0 0 0 0 0 0 0 0 0 0 0 0 0 0 0 0.25 0"/>
<feBlend mode="normal" in2="BackgroundImageFix" result="effect1_dropShadow_171_1046"/>
<feBlend mode="normal" in="SourceGraphic" in2="effect1_dropShadow_171_1046" result="shape"/>
</filter>
<filter id="filter15_d_171_1046" x="56.751" y="15.0853" width="31.418" height="65.3198" filterUnits="userSpaceOnUse" color-interpolation-filters="sRGB">
<feFlood flood-opacity="0" result="BackgroundImageFix"/>
<feColorMatrix in="SourceAlpha" type="matrix" values="0 0 0 0 0 0 0 0 0 0 0 0 0 0 0 0 0 0 127 0" result="hardAlpha"/>
<feOffset dx="-1" dy="-1"/>
<feGaussianBlur stdDeviation="2"/>
<feComposite in2="hardAlpha" operator="out"/>
<feColorMatrix type="matrix" values="0 0 0 0 0 0 0 0 0 0 0 0 0 0 0 0 0 0 0.25 0"/>
<feBlend mode="normal" in2="BackgroundImageFix" result="effect1_dropShadow_171_1046"/>
<feBlend mode="normal" in="SourceGraphic" in2="effect1_dropShadow_171_1046" result="shape"/>
</filter>
<filter id="filter16_d_171_1046" x="29.5967" y="1.00574" width="31.4189" height="65.3198" filterUnits="userSpaceOnUse" color-interpolation-filters="sRGB">
<feFlood flood-opacity="0" result="BackgroundImageFix"/>
<feColorMatrix in="SourceAlpha" type="matrix" values="0 0 0 0 0 0 0 0 0 0 0 0 0 0 0 0 0 0 127 0" result="hardAlpha"/>
<feOffset dx="-1" dy="-1"/>
<feGaussianBlur stdDeviation="2"/>
<feComposite in2="hardAlpha" operator="out"/>
<feColorMatrix type="matrix" values="0 0 0 0 0 0 0 0 0 0 0 0 0 0 0 0 0 0 0.25 0"/>
<feBlend mode="normal" in2="BackgroundImageFix" result="effect1_dropShadow_171_1046"/>
<feBlend mode="normal" in="SourceGraphic" in2="effect1_dropShadow_171_1046" result="shape"/>
</filter>
<filter id="filter17_d_171_1046" x="30.5264" y="5.95886" width="31.418" height="65.3197" filterUnits="userSpaceOnUse" color-interpolation-filters="sRGB">
<feFlood flood-opacity="0" result="BackgroundImageFix"/>
<feColorMatrix in="SourceAlpha" type="matrix" values="0 0 0 0 0 0 0 0 0 0 0 0 0 0 0 0 0 0 127 0" result="hardAlpha"/>
<feOffset dx="-1" dy="-1"/>
<feGaussianBlur stdDeviation="2"/>
<feComposite in2="hardAlpha" operator="out"/>
<feColorMatrix type="matrix" values="0 0 0 0 0 0 0 0 0 0 0 0 0 0 0 0 0 0 0.25 0"/>
<feBlend mode="normal" in2="BackgroundImageFix" result="effect1_dropShadow_171_1046"/>
<feBlend mode="normal" in="SourceGraphic" in2="effect1_dropShadow_171_1046" result="shape"/>
</filter>
<filter id="filter18_d_171_1046" x="33.6201" y="11.0625" width="31.4189" height="65.3198" filterUnits="userSpaceOnUse" color-interpolation-filters="sRGB">
<feFlood flood-opacity="0" result="BackgroundImageFix"/>
<feColorMatrix in="SourceAlpha" type="matrix" values="0 0 0 0 0 0 0 0 0 0 0 0 0 0 0 0 0 0 127 0" result="hardAlpha"/>
<feOffset dx="-1" dy="-1"/>
<feGaussianBlur stdDeviation="2"/>
<feComposite in2="hardAlpha" operator="out"/>
<feColorMatrix type="matrix" values="0 0 0 0 0 0 0 0 0 0 0 0 0 0 0 0 0 0 0.25 0"/>
<feBlend mode="normal" in2="BackgroundImageFix" result="effect1_dropShadow_171_1046"/>
<feBlend mode="normal" in="SourceGraphic" in2="effect1_dropShadow_171_1046" result="shape"/>
</filter>
<filter id="filter19_d_171_1046" x="37.6426" y="14.0797" width="31.4199" height="65.3198" filterUnits="userSpaceOnUse" color-interpolation-filters="sRGB">
<feFlood flood-opacity="0" result="BackgroundImageFix"/>
<feColorMatrix in="SourceAlpha" type="matrix" values="0 0 0 0 0 0 0 0 0 0 0 0 0 0 0 0 0 0 127 0" result="hardAlpha"/>
<feOffset dx="-1" dy="-1"/>
<feGaussianBlur stdDeviation="2"/>
<feComposite in2="hardAlpha" operator="out"/>
<feColorMatrix type="matrix" values="0 0 0 0 0 0 0 0 0 0 0 0 0 0 0 0 0 0 0.25 0"/>
<feBlend mode="normal" in2="BackgroundImageFix" result="effect1_dropShadow_171_1046"/>
<feBlend mode="normal" in="SourceGraphic" in2="effect1_dropShadow_171_1046" result="shape"/>
</filter>
<filter id="filter20_d_171_1046" x="9.4834" y="0" width="31.4189" height="65.3198" filterUnits="userSpaceOnUse" color-interpolation-filters="sRGB">
<feFlood flood-opacity="0" result="BackgroundImageFix"/>
<feColorMatrix in="SourceAlpha" type="matrix" values="0 0 0 0 0 0 0 0 0 0 0 0 0 0 0 0 0 0 127 0" result="hardAlpha"/>
<feOffset dx="-1" dy="-1"/>
<feGaussianBlur stdDeviation="2"/>
<feComposite in2="hardAlpha" operator="out"/>
<feColorMatrix type="matrix" values="0 0 0 0 0 0 0 0 0 0 0 0 0 0 0 0 0 0 0.25 0"/>
<feBlend mode="normal" in2="BackgroundImageFix" result="effect1_dropShadow_171_1046"/>
<feBlend mode="normal" in="SourceGraphic" in2="effect1_dropShadow_171_1046" result="shape"/>
</filter>
<filter id="filter21_d_171_1046" x="11.4951" y="4.02271" width="31.4189" height="65.3198" filterUnits="userSpaceOnUse" color-interpolation-filters="sRGB">
<feFlood flood-opacity="0" result="BackgroundImageFix"/>
<feColorMatrix in="SourceAlpha" type="matrix" values="0 0 0 0 0 0 0 0 0 0 0 0 0 0 0 0 0 0 127 0" result="hardAlpha"/>
<feOffset dx="-1" dy="-1"/>
<feGaussianBlur stdDeviation="2"/>
<feComposite in2="hardAlpha" operator="out"/>
<feColorMatrix type="matrix" values="0 0 0 0 0 0 0 0 0 0 0 0 0 0 0 0 0 0 0.25 0"/>
<feBlend mode="normal" in2="BackgroundImageFix" result="effect1_dropShadow_171_1046"/>
<feBlend mode="normal" in="SourceGraphic" in2="effect1_dropShadow_171_1046" result="shape"/>
</filter>
<filter id="filter22_d_171_1046" x="13.5049" y="8.04541" width="31.4189" height="65.3198" filterUnits="userSpaceOnUse" color-interpolation-filters="sRGB">
<feFlood flood-opacity="0" result="BackgroundImageFix"/>
<feColorMatrix in="SourceAlpha" type="matrix" values="0 0 0 0 0 0 0 0 0 0 0 0 0 0 0 0 0 0 127 0" result="hardAlpha"/>
<feOffset dx="-1" dy="-1"/>
<feGaussianBlur stdDeviation="2"/>
<feComposite in2="hardAlpha" operator="out"/>
<feColorMatrix type="matrix" values="0 0 0 0 0 0 0 0 0 0 0 0 0 0 0 0 0 0 0.25 0"/>
<feBlend mode="normal" in2="BackgroundImageFix" result="effect1_dropShadow_171_1046"/>
<feBlend mode="normal" in="SourceGraphic" in2="effect1_dropShadow_171_1046" result="shape"/>
</filter>
<filter id="filter23_d_171_1046" x="17.5273" y="11.0625" width="31.4189" height="65.3198" filterUnits="userSpaceOnUse" color-interpolation-filters="sRGB">
<feFlood flood-opacity="0" result="BackgroundImageFix"/>
<feColorMatrix in="SourceAlpha" type="matrix" values="0 0 0 0 0 0 0 0 0 0 0 0 0 0 0 0 0 0 127 0" result="hardAlpha"/>
<feOffset dx="-1" dy="-1"/>
<feGaussianBlur stdDeviation="2"/>
<feComposite in2="hardAlpha" operator="out"/>
<feColorMatrix type="matrix" values="0 0 0 0 0 0 0 0 0 0 0 0 0 0 0 0 0 0 0.25 0"/>
<feBlend mode="normal" in2="BackgroundImageFix" result="effect1_dropShadow_171_1046"/>
<feBlend mode="normal" in="SourceGraphic" in2="effect1_dropShadow_171_1046" result="shape"/>
</filter>
<filter id="filter24_d_171_1046" x="40.6553" y="85.4552" width="31.418" height="65.3198" filterUnits="userSpaceOnUse" color-interpolation-filters="sRGB">
<feFlood flood-opacity="0" result="BackgroundImageFix"/>
<feColorMatrix in="SourceAlpha" type="matrix" values="0 0 0 0 0 0 0 0 0 0 0 0 0 0 0 0 0 0 127 0" result="hardAlpha"/>
<feOffset dy="4"/>
<feGaussianBlur stdDeviation="2"/>
<feComposite in2="hardAlpha" operator="out"/>
<feColorMatrix type="matrix" values="0 0 0 0 0 0 0 0 0 0 0 0 0 0 0 0 0 0 0.25 0"/>
<feBlend mode="normal" in2="BackgroundImageFix" result="effect1_dropShadow_171_1046"/>
<feBlend mode="normal" in="SourceGraphic" in2="effect1_dropShadow_171_1046" result="shape"/>
</filter>
<filter id="filter25_d_171_1046" x="2.4375" y="74.3927" width="31.418" height="65.3198" filterUnits="userSpaceOnUse" color-interpolation-filters="sRGB">
<feFlood flood-opacity="0" result="BackgroundImageFix"/>
<feColorMatrix in="SourceAlpha" type="matrix" values="0 0 0 0 0 0 0 0 0 0 0 0 0 0 0 0 0 0 127 0" result="hardAlpha"/>
<feOffset dy="4"/>
<feGaussianBlur stdDeviation="2"/>
<feComposite in2="hardAlpha" operator="out"/>
<feColorMatrix type="matrix" values="0 0 0 0 0 0 0 0 0 0 0 0 0 0 0 0 0 0 0.25 0"/>
<feBlend mode="normal" in2="BackgroundImageFix" result="effect1_dropShadow_171_1046"/>
<feBlend mode="normal" in="SourceGraphic" in2="effect1_dropShadow_171_1046" result="shape"/>
</filter>
<filter id="filter26_d_171_1046" x="12.4951" y="116.632" width="31.4189" height="65.3198" filterUnits="userSpaceOnUse" color-interpolation-filters="sRGB">
<feFlood flood-opacity="0" result="BackgroundImageFix"/>
<feColorMatrix in="SourceAlpha" type="matrix" values="0 0 0 0 0 0 0 0 0 0 0 0 0 0 0 0 0 0 127 0" result="hardAlpha"/>
<feOffset dy="4"/>
<feGaussianBlur stdDeviation="2"/>
<feComposite in2="hardAlpha" operator="out"/>
<feColorMatrix type="matrix" values="0 0 0 0 0 0 0 0 0 0 0 0 0 0 0 0 0 0 0.25 0"/>
<feBlend mode="normal" in2="BackgroundImageFix" result="effect1_dropShadow_171_1046"/>
<feBlend mode="normal" in="SourceGraphic" in2="effect1_dropShadow_171_1046" result="shape"/>
</filter>
<filter id="filter27_d_171_1046" x="43.6709" y="116.632" width="31.4189" height="65.3198" filterUnits="userSpaceOnUse" color-interpolation-filters="sRGB">
<feFlood flood-opacity="0" result="BackgroundImageFix"/>
<feColorMatrix in="SourceAlpha" type="matrix" values="0 0 0 0 0 0 0 0 0 0 0 0 0 0 0 0 0 0 127 0" result="hardAlpha"/>
<feOffset dy="4"/>
<feGaussianBlur stdDeviation="2"/>
<feComposite in2="hardAlpha" operator="out"/>
<feColorMatrix type="matrix" values="0 0 0 0 0 0 0 0 0 0 0 0 0 0 0 0 0 0 0.25 0"/>
<feBlend mode="normal" in2="BackgroundImageFix" result="effect1_dropShadow_171_1046"/>
<feBlend mode="normal" in="SourceGraphic" in2="effect1_dropShadow_171_1046" result="shape"/>
</filter>
<filter id="filter28_d_171_1046" x="26.5742" y="120.654" width="31.4189" height="65.3198" filterUnits="userSpaceOnUse" color-interpolation-filters="sRGB">
<feFlood flood-opacity="0" result="BackgroundImageFix"/>
<feColorMatrix in="SourceAlpha" type="matrix" values="0 0 0 0 0 0 0 0 0 0 0 0 0 0 0 0 0 0 127 0" result="hardAlpha"/>
<feOffset dy="4"/>
<feGaussianBlur stdDeviation="2"/>
<feComposite in2="hardAlpha" operator="out"/>
<feColorMatrix type="matrix" values="0 0 0 0 0 0 0 0 0 0 0 0 0 0 0 0 0 0 0.25 0"/>
<feBlend mode="normal" in2="BackgroundImageFix" result="effect1_dropShadow_171_1046"/>
<feBlend mode="normal" in="SourceGraphic" in2="effect1_dropShadow_171_1046" result="shape"/>
</filter>
<filter id="filter29_d_171_1046" x="132.171" y="106.575" width="31.4189" height="65.3198" filterUnits="userSpaceOnUse" color-interpolation-filters="sRGB">
<feFlood flood-opacity="0" result="BackgroundImageFix"/>
<feColorMatrix in="SourceAlpha" type="matrix" values="0 0 0 0 0 0 0 0 0 0 0 0 0 0 0 0 0 0 127 0" result="hardAlpha"/>
<feOffset dy="4"/>
<feGaussianBlur stdDeviation="2"/>
<feComposite in2="hardAlpha" operator="out"/>
<feColorMatrix type="matrix" values="0 0 0 0 0 0 0 0 0 0 0 0 0 0 0 0 0 0 0.25 0"/>
<feBlend mode="normal" in2="BackgroundImageFix" result="effect1_dropShadow_171_1046"/>
<feBlend mode="normal" in="SourceGraphic" in2="effect1_dropShadow_171_1046" result="shape"/>
</filter>
<filter id="filter30_d_171_1046" x="119.097" y="114.62" width="31.4189" height="65.3198" filterUnits="userSpaceOnUse" color-interpolation-filters="sRGB">
<feFlood flood-opacity="0" result="BackgroundImageFix"/>
<feColorMatrix in="SourceAlpha" type="matrix" values="0 0 0 0 0 0 0 0 0 0 0 0 0 0 0 0 0 0 127 0" result="hardAlpha"/>
<feOffset dy="4"/>
<feGaussianBlur stdDeviation="2"/>
<feComposite in2="hardAlpha" operator="out"/>
<feColorMatrix type="matrix" values="0 0 0 0 0 0 0 0 0 0 0 0 0 0 0 0 0 0 0.25 0"/>
<feBlend mode="normal" in2="BackgroundImageFix" result="effect1_dropShadow_171_1046"/>
<feBlend mode="normal" in="SourceGraphic" in2="effect1_dropShadow_171_1046" result="shape"/>
</filter>
</defs>
</svg>
