<svg width="101" height="85" viewBox="0 0 101 85" fill="none" xmlns="http://www.w3.org/2000/svg">
<path d="M4.55833 57.8671L3.43093 49.0116C15.2687 53.1789 27.1064 51.6161 38.9441 47.9697C38.9441 47.9697 39.8836 62.7289 40.0715 69.3272C35.5619 80.9956 28.7975 83.5655 25.979 83.3918C21.9203 84.2253 14.5171 78.8772 11.3227 76.099C6.24944 72.9736 7.94054 66.7226 5.68573 67.2435C3.43093 67.7644 2.30353 67.7644 1.17612 62.5553C0.274202 58.388 3.05513 57.6934 4.55833 57.8671Z" fill="white"/>
<path fill-rule="evenodd" clip-rule="evenodd" d="M39.24 47.9537L38.9441 47.9698C39.24 47.9537 39.24 47.9536 39.24 47.9537L39.2401 47.9544L39.2808 48.6011C39.3068 49.0176 39.3443 49.62 39.3898 50.3636C39.4808 51.8506 39.6041 53.902 39.7333 56.1597C39.9917 60.6739 40.2738 66.0168 40.3678 69.32L40.3693 69.3712L40.3507 69.4194C35.8413 81.087 29.0331 83.8251 26.0017 83.6676C24.9174 83.8788 23.6473 83.6823 22.3275 83.2531C20.9853 82.8166 19.5595 82.1286 18.1705 81.3327C15.4026 79.7466 12.7471 77.712 11.1376 76.3142C8.51981 74.6915 7.65512 72.2669 7.15916 70.3682C7.08638 70.0896 7.01959 69.814 6.95699 69.5558C6.91419 69.3792 6.87335 69.2108 6.83389 69.0549C6.73397 68.6602 6.63884 68.3288 6.5283 68.0678C6.41588 67.8023 6.30172 67.6451 6.18686 67.5637C6.09057 67.4955 5.96684 67.461 5.75762 67.5093C4.65139 67.7649 3.64603 67.9473 2.80986 67.2518C2.40752 66.9172 2.06942 66.3992 1.7624 65.6565C1.45439 64.9114 1.1687 63.9177 0.885467 62.6091C0.42284 60.4715 0.890713 59.145 1.7617 58.3843C2.49289 57.7457 3.4547 57.5544 4.22209 57.5704L3.0794 48.5948L3.53644 48.7557C15.2822 52.8906 27.0419 51.3473 38.8504 47.7099L39.2173 47.5969L39.24 47.9537ZM38.6707 48.3421C27.0765 51.871 15.4361 53.3847 3.78207 49.4255L4.8969 58.1823L4.52156 58.1389C3.82452 58.0584 2.85399 58.1841 2.1689 58.7825C1.4991 59.3675 1.02747 60.4719 1.46677 62.5016C1.74724 63.7976 2.02525 64.7573 2.31618 65.461C2.60808 66.1671 2.90415 66.5932 3.20643 66.8446C3.77952 67.3213 4.46526 67.2432 5.61384 66.9779C5.96832 66.896 6.28498 66.9429 6.54761 67.129C6.79167 67.3019 6.95495 67.572 7.08035 67.8682C7.20762 68.1687 7.31067 68.5333 7.41112 68.9301C7.45374 69.0985 7.4953 69.2701 7.53815 69.447C7.59907 69.6985 7.66259 69.9608 7.73543 70.2397C8.22464 72.1126 9.04779 74.3684 11.4872 75.8712L11.5078 75.8839L11.5259 75.8996C13.1125 77.2796 15.7463 79.2989 18.4829 80.8671C19.8514 81.6512 21.237 82.3177 22.5243 82.7363C23.8171 83.1568 24.9786 83.3167 25.9147 83.1245L25.9562 83.116L25.9987 83.1186C28.6222 83.2802 35.2851 80.8563 39.7737 69.2832C39.6785 65.9844 39.3984 60.6803 39.1414 56.1886C39.0122 53.9318 38.8889 51.881 38.7979 50.3945C38.7524 49.6512 38.715 49.049 38.6889 48.6327L38.6707 48.3421Z" fill="black"/>
<path fill-rule="evenodd" clip-rule="evenodd" d="M23.0688 63.8645C23.0253 63.7987 22.9666 63.7177 22.8924 63.6245C22.6867 63.3664 22.3828 63.042 22.0051 62.7257C21.2345 62.0802 20.2448 61.5405 19.2144 61.5405C18.1841 61.5405 17.1944 62.0802 16.4238 62.7257C16.0461 63.042 15.7422 63.3664 15.5365 63.6245C15.4623 63.7177 15.4036 63.7987 15.3601 63.8645C15.396 63.9072 15.4418 63.9577 15.4979 64.0148C15.6966 64.2168 15.9949 64.4705 16.3703 64.7184C17.1281 65.2187 18.1362 65.654 19.2144 65.654C20.2927 65.654 21.3007 65.2187 22.0586 64.7184C22.4339 64.4705 22.7323 64.2168 22.931 64.0148C22.9871 63.9577 23.0328 63.9072 23.0688 63.8645ZM15.2803 64.0008C15.2805 64.0003 15.2807 63.9998 15.281 63.9992C15.2781 64.0075 15.277 64.0086 15.2803 64.0008ZM23.1479 63.9992C23.1482 63.9998 23.1484 64.0003 23.1486 64.0008C23.1519 64.0086 23.1508 64.0075 23.1479 63.9992ZM19.2144 66.2018C21.705 66.2018 23.7241 64.2063 23.7241 63.8866C23.7241 63.567 21.705 60.9927 19.2144 60.9927C16.7239 60.9927 14.7048 63.567 14.7048 63.8866C14.7048 64.2063 16.7239 66.2018 19.2144 66.2018Z" fill="black"/>
<path d="M21.4694 63.5972C21.4694 65.0357 20.7122 66.2018 19.7783 66.2018C18.8443 66.2018 18.0872 65.0357 18.0872 63.5972C18.0872 62.1588 18.8443 60.9927 19.7783 60.9927C20.7122 60.9927 21.4694 62.1588 21.4694 63.5972Z" fill="black"/>
<path fill-rule="evenodd" clip-rule="evenodd" d="M36.4121 56.7547C36.4543 56.9008 36.3602 57.0509 36.2021 57.0899L27.987 59.1143L29.1048 70.9933L29.0072 71.0836C28.3861 71.6575 26.5497 72.593 23.8475 72.2268C23.7906 72.2191 23.7332 72.2108 23.6755 72.2019L23.7701 71.6611L23.773 71.6615L23.9335 71.6848C23.934 71.6848 23.9344 71.6849 23.9348 71.685C26.3088 72.0063 27.9064 71.2432 28.4897 70.78L27.3533 58.7035L36.0493 56.5606C36.2075 56.5216 36.3699 56.6085 36.4121 56.7547ZM30.0775 75.8642C30.2179 75.942 30.2634 76.1102 30.1791 76.24C29.4384 77.3809 28.253 77.8009 27.1118 77.87C25.9789 77.9385 24.8608 77.6657 24.1712 77.3926C24.0207 77.333 23.951 77.172 24.0155 77.033C24.08 76.8939 24.2543 76.8295 24.4047 76.8891C25.0304 77.1369 26.0544 77.385 27.073 77.3233C28.0832 77.2622 29.0587 76.9008 29.6708 75.9581C29.755 75.8284 29.9371 75.7863 30.0775 75.8642Z" fill="black"/>
<path fill-rule="evenodd" clip-rule="evenodd" d="M36.8061 60.741C36.9565 60.8006 37.0262 60.9616 36.9617 61.1006C36.6598 61.7516 35.994 62.5985 34.9586 63.0031C33.8992 63.4171 32.5226 63.3417 30.88 62.2574C30.7468 62.1695 30.7159 61.9984 30.8111 61.8753C30.9062 61.7523 31.0914 61.7237 31.2246 61.8117C32.7387 62.8111 33.8987 62.8225 34.7277 62.4985C35.5808 62.1652 36.1551 61.4493 36.4169 60.8848C36.4813 60.7458 36.6556 60.6814 36.8061 60.741Z" fill="black"/>
<path d="M96.4417 58.3881L97.5691 49.5325C85.7313 53.6999 73.8936 52.1371 62.0559 48.4907C62.0559 48.4907 61.1164 63.2499 60.9285 69.8482C65.4381 81.5166 72.2025 84.0865 75.021 83.9128C79.0797 84.7463 86.4829 79.3982 89.6773 76.62C94.7506 73.4946 93.0595 67.2436 95.3143 67.7645C97.5691 68.2854 98.6965 68.2854 99.8239 63.0763C100.726 58.909 97.9449 58.2144 96.4417 58.3881Z" fill="white"/>
<path fill-rule="evenodd" clip-rule="evenodd" d="M61.7597 48.4747L62.0556 48.4908C61.7597 48.4747 61.7597 48.4746 61.7597 48.4747L61.7597 48.4754L61.719 49.1221C61.6929 49.5386 61.6555 50.141 61.61 50.8845C61.5189 52.3716 61.3956 54.423 61.2664 56.6807C61.0081 61.1949 60.726 66.5378 60.6319 69.841L60.6305 69.8922L60.6491 69.9404C65.1584 81.608 71.9667 84.3461 74.9981 84.1886C76.0823 84.3998 77.3525 84.2033 78.6723 83.7741C80.0144 83.3376 81.4402 82.6496 82.8292 81.8536C85.5971 80.2676 88.2526 78.233 89.8622 76.8352C92.4799 75.2125 93.3446 72.7879 93.8406 70.8892C93.9134 70.6106 93.9802 70.335 94.0428 70.0768C94.0856 69.9002 94.1264 69.7318 94.1659 69.5759C94.2658 69.1812 94.3609 68.8498 94.4715 68.5888C94.5839 68.3233 94.698 68.1661 94.8129 68.0847C94.9092 68.0165 95.0329 67.982 95.2421 68.0303C96.3484 68.2859 97.3537 68.4683 98.1899 67.7728C98.5922 67.4382 98.9303 66.9202 99.2374 66.1775C99.5454 65.4324 99.8311 64.4387 100.114 63.1301C100.577 60.9925 100.109 59.666 99.2381 58.9053C98.5069 58.2667 97.5451 58.0754 96.7777 58.0914L97.9204 49.1158L97.4633 49.2767C85.7175 53.4116 73.9578 51.8683 62.1494 48.2309L61.7825 48.1179L61.7597 48.4747ZM62.3291 48.8631C73.9232 52.392 85.5636 53.9057 97.2177 49.9465L96.1029 58.7033L96.4782 58.6599C97.1752 58.5794 98.1458 58.7051 98.8309 59.3035C99.5007 59.8885 99.9723 60.9929 99.533 63.0226C99.2525 64.3186 98.9745 65.2783 98.6836 65.982C98.3917 66.6881 98.0956 67.1142 97.7933 67.3656C97.2202 67.8423 96.5345 67.7642 95.3859 67.4988C95.0314 67.417 94.7148 67.4639 94.4521 67.65C94.2081 67.8229 94.0448 68.093 93.9194 68.3892C93.7921 68.6897 93.6891 69.0543 93.5886 69.4511C93.546 69.6195 93.5045 69.7911 93.4616 69.968C93.4007 70.2195 93.3372 70.4818 93.2643 70.7607C92.7751 72.6336 91.952 74.8894 89.5126 76.3922L89.4919 76.4049L89.4739 76.4206C87.8873 77.8006 85.2535 79.8199 82.5168 81.3881C81.1484 82.1722 79.7627 82.8387 78.4755 83.2573C77.1827 83.6778 76.0211 83.8377 75.0851 83.6455L75.0435 83.637L75.0011 83.6396C72.3776 83.8012 65.7146 81.3773 61.226 69.8042C61.3213 66.5054 61.6013 61.2013 61.8584 56.7096C61.9876 54.4528 62.1108 52.402 62.2018 50.9155C62.2473 50.1722 62.2848 49.57 62.3108 49.1537L62.3291 48.8631Z" fill="black"/>
<path fill-rule="evenodd" clip-rule="evenodd" d="M77.9309 64.3855C77.9745 64.3197 78.0331 64.2387 78.1074 64.1455C78.3131 63.8874 78.617 63.563 78.9947 63.2467C79.7653 62.6012 80.7549 62.0615 81.7853 62.0615C82.8157 62.0615 83.8054 62.6012 84.576 63.2467C84.9536 63.563 85.2575 63.8874 85.4632 64.1455C85.5375 64.2387 85.5962 64.3197 85.6397 64.3855C85.6037 64.4282 85.558 64.4787 85.5018 64.5358C85.3032 64.7378 85.0048 64.9915 84.6294 65.2394C83.8716 65.7397 82.8636 66.175 81.7853 66.175C80.707 66.175 79.699 65.7397 78.9412 65.2394C78.5658 64.9915 78.2674 64.7378 78.0688 64.5358C78.0126 64.4787 77.9669 64.4282 77.9309 64.3855ZM85.7195 64.5218C85.7193 64.5213 85.719 64.5208 85.7188 64.5202C85.7216 64.5285 85.7228 64.5296 85.7195 64.5218ZM77.8519 64.5202C77.8516 64.5208 77.8514 64.5213 77.8511 64.5218C77.8479 64.5296 77.849 64.5285 77.8519 64.5202ZM81.7853 66.7228C79.2947 66.7228 77.2757 64.7273 77.2757 64.4076C77.2757 64.088 79.2947 61.5137 81.7853 61.5137C84.2759 61.5137 86.2949 64.088 86.2949 64.4076C86.2949 64.7273 84.2759 66.7228 81.7853 66.7228Z" fill="black"/>
<path d="M79.5304 64.1182C79.5304 65.5567 80.2875 66.7228 81.2215 66.7228C82.1555 66.7228 82.9126 65.5567 82.9126 64.1182C82.9126 62.6798 82.1555 61.5137 81.2215 61.5137C80.2875 61.5137 79.5304 62.6798 79.5304 64.1182Z" fill="black"/>
<path fill-rule="evenodd" clip-rule="evenodd" d="M64.5877 57.2757C64.5455 57.4218 64.6395 57.5719 64.7977 57.6109L73.0127 59.6353L71.8949 71.5143L71.9926 71.6046C72.6136 72.1785 74.45 73.114 77.1523 72.7478C77.2092 72.7401 77.2665 72.7318 77.3242 72.7229L77.2296 72.1821L77.2268 72.1825L77.0662 72.2058C77.0658 72.2058 77.0654 72.2059 77.0649 72.206C74.6909 72.5273 73.0934 71.7642 72.51 71.301L73.6464 59.2245L64.9504 57.0816C64.7923 57.0426 64.6298 57.1295 64.5877 57.2757ZM70.9223 76.3852C70.7819 76.463 70.7364 76.6312 70.8206 76.761C71.5614 77.9019 72.7468 78.3219 73.888 78.391C75.0209 78.4595 76.1389 78.1867 76.8285 77.9136C76.979 77.854 77.0487 77.693 76.9842 77.554C76.9197 77.4149 76.7455 77.3505 76.595 77.4101C75.9694 77.6579 74.9453 77.906 73.9267 77.8443C72.9165 77.7832 71.941 77.4218 71.3289 76.4791C71.2447 76.3494 71.0626 76.3073 70.9223 76.3852Z" fill="black"/>
<path fill-rule="evenodd" clip-rule="evenodd" d="M64.1937 61.262C64.0432 61.3216 63.9735 61.4826 64.038 61.6216C64.3399 62.2726 65.0058 63.1195 66.0411 63.5241C67.1005 63.9381 68.4772 63.8627 70.1197 62.7784C70.253 62.6905 70.2838 62.5194 70.1887 62.3963C70.0935 62.2732 69.9084 62.2447 69.7752 62.3327C68.261 63.3321 67.101 63.3435 66.272 63.0195C65.419 62.6862 64.8447 61.9703 64.5829 61.4058C64.5184 61.2668 64.3442 61.2024 64.1937 61.262Z" fill="black"/>
<path d="M97.6287 49.4633C102.668 -17.6442 -6.70658 -12.4399 3.37127 48.9155C6.61292 50.1561 8.61349 50.6484 12.5599 51.1068C4.77608 -0.49167 92.8812 -5.0689 89.2179 51.3807C92.2971 51.1494 94.2579 50.6269 97.6287 49.4633Z" fill="#034E98"/>
<path d="M3 40.5L12 44.5V48.5L3 45V40.5Z" fill="white"/>
<path d="M4 30.5L13 35.5L12 40L3 35.5L4 30.5Z" fill="white"/>
<path d="M8 21.5L17 27L14.5 31.5L5.5 26.5L8 21.5Z" fill="white"/>
<path d="M15.5 12.9999L22.5 20.4999L19.5 23.9999L11.5 17.4999L15.5 12.9999Z" fill="white"/>
<path d="M25 6.49992L30.5 15.4999L25.8383 18.2331L19.5 9.99991L25 6.49992Z" fill="white"/>
<path d="M36.2695 2.2425L39.2875 12.349L34.0822 13.8005L30.0578 4.22113L36.2695 2.2425Z" fill="white"/>
<path d="M48.5001 0.999968L49.5001 11L44.0001 11.544L42.2108 1.30886L48.5001 0.999968Z" fill="white"/>
<path d="M59.9999 2.00002L58.9999 11.5L53.9891 10.5L53.9891 1.00002L59.9999 2.00002Z" fill="white"/>
<path d="M71.3042 4.69129L68.6359 14.3725L63.5001 12.5L65.1843 2.6415L71.3042 4.69129Z" fill="white"/>
<path d="M80.9998 10.5L75.4999 18.5001L71.4999 16.0001L76.4999 7.50005L80.9998 10.5Z" fill="white"/>
<path d="M88.1186 17.1108L80.7458 23.4268L77.5235 19.982L84.5418 13.0542L88.1186 17.1108Z" fill="white"/>
<path d="M93 24.5001L85 29.5001L82.5 25.5001L90.6457 20.3446L93 24.5001Z" fill="white"/>
<path d="M96.0003 33.0001L88.0002 36.0001L86.5002 32.0001L95.0002 28.0001L96.0003 33.0001Z" fill="white"/>
<path d="M97.5001 40.5001L89 43.0001L88.6618 39.0165L97.0001 36.5001L97.5001 40.5001Z" fill="white"/>
<path d="M97.5002 47L89.5002 49.5L89.5002 46L97.5002 43.5L97.5002 47Z" fill="white"/>
<path fill-rule="evenodd" clip-rule="evenodd" d="M3.6394 48.7214C6.65933 49.8688 8.60411 50.3538 12.2142 50.7897C10.3833 37.9843 14.4456 28.0582 21.5558 21.253C28.7248 14.3915 38.9711 10.7226 49.3353 10.4519C59.7001 10.1812 70.2069 13.3085 77.8952 20.0687C85.532 26.7837 90.3617 37.06 89.5334 51.0806C92.3299 50.8441 94.2225 50.3412 97.346 49.2683C98.5459 32.6561 92.6909 20.5406 83.4088 12.6401C74.0867 4.70555 61.2811 1.00004 48.6177 1.28962C35.9538 1.5792 23.4609 5.8636 14.7652 13.8737C6.10678 21.8496 1.19117 33.5386 3.6394 48.7214ZM83.8104 12.2371C93.2711 20.2896 99.1897 32.6312 97.9244 49.4822C97.9164 49.5894 97.8413 49.6823 97.7325 49.7199C94.3484 50.8881 92.359 51.4196 89.2419 51.6537C89.1563 51.6601 89.0719 51.6319 89.0105 51.5764C88.9492 51.5208 88.9169 51.4435 88.922 51.3642C89.8333 37.3219 85.0386 27.106 77.4866 20.4656C69.9287 13.8201 59.5826 10.7323 49.352 10.9995C39.1209 11.2667 29.0293 14.8888 21.9823 21.6335C14.942 28.3718 10.9192 38.2466 12.8534 51.0689C12.8662 51.1533 12.8357 51.2384 12.7709 51.2991C12.7061 51.3598 12.6144 51.3891 12.5229 51.3785C8.55221 50.9173 6.52572 50.4192 3.25783 49.1685C3.16192 49.1318 3.09377 49.0514 3.0782 48.9566C0.545343 33.5362 5.51843 21.6181 14.3467 13.4858C23.1668 5.36102 35.813 1.03444 48.6031 0.741967C61.3937 0.449484 74.357 4.19086 83.8104 12.2371Z" fill="black"/>
<path d="M89.5001 51.5C93.6212 -4.66611 4.29341 -0.173294 12.5356 51.1786C14.9283 51.4524 16.7229 51.4524 20.2883 51.4524C13.9223 8.26669 85.9794 4.75411 82.9834 52C85.8132 52 86.6474 52.0095 89.5001 51.5Z" fill="#FFD301"/>
<circle cx="16.5" cy="39.5" r="2.5" fill="white"/>
<circle cx="16.5" cy="47.5" r="2.5" fill="white"/>
<circle cx="19.5" cy="31.5" r="2.5" fill="white"/>
<circle cx="23.5" cy="25.5" r="2.5" fill="white"/>
<circle cx="30.5" cy="19.5" r="2.5" fill="white"/>
<circle cx="39.5" cy="15.5" r="2.5" fill="white"/>
<circle cx="49.5" cy="14.5" r="2.5" fill="white"/>
<circle cx="60.5" cy="15.5" r="2.5" fill="white"/>
<circle cx="70.5" cy="19.5" r="2.5" fill="white"/>
<circle cx="77.5" cy="24.5" r="2.5" fill="white"/>
<circle cx="82.5" cy="31.5" r="2.5" fill="white"/>
<circle cx="85.5" cy="39.5" r="2.5" fill="white"/>
<circle cx="86.5" cy="47.5" r="2.5" fill="white"/>
<path fill-rule="evenodd" clip-rule="evenodd" d="M13.0895 50.676C15.258 50.9108 16.9758 50.9189 20.1836 50.9192C18.7009 40.3404 22 32.1537 27.7801 26.5536C33.61 20.9052 41.9422 17.909 50.3696 17.7246C58.7977 17.5402 67.3414 20.1677 73.5929 25.7911C79.798 31.3729 83.7194 39.8835 83.0535 51.4596C85.5601 51.4589 86.7458 51.4417 89.2851 51.0012C90.2394 37.3219 85.4786 27.3573 77.9471 20.8662C70.3712 14.3368 59.9646 11.2986 49.6718 11.5554C39.3784 11.8122 29.2246 15.3638 22.1558 21.9829C15.1324 28.5594 11.1329 38.1839 13.0895 50.676ZM78.3552 20.4738C86.0686 27.1217 90.8901 37.3184 89.8625 51.2451C89.8535 51.3673 89.7553 51.4687 89.6232 51.4922C86.7643 52 85.5547 52 82.7399 52C82.6582 52 82.5801 51.9693 82.524 51.9152C82.4679 51.8611 82.4388 51.7884 82.4436 51.7141C83.1826 40.1246 79.2937 31.6789 73.1756 26.1755C67.0528 20.6678 58.6716 18.0835 50.3839 18.2649C42.0955 18.4462 33.9209 21.3932 28.2127 26.9237C22.5103 32.4485 19.2475 40.5722 20.8161 51.1533C20.8275 51.2305 20.8018 51.3085 20.7454 51.3672C20.689 51.4259 20.6076 51.4596 20.5219 51.4596H20.5087C16.9821 51.4596 15.1843 51.4596 12.7914 51.1873C12.659 51.1723 12.5539 51.0786 12.5346 50.9585C10.4772 38.2123 14.5311 28.3472 21.7301 21.6062C28.922 14.8719 39.2307 11.2753 49.6555 11.0152C60.0809 10.7551 70.6481 13.8313 78.3552 20.4738Z" fill="black"/>
<path d="M82.6966 51.9284C86.0264 4.34648 13.7441 7.72904 20.4037 51.2325C22.337 51.4645 26.5111 50.808 29.7812 50.2478C26.5111 19.1554 73.1837 20.2759 71.9946 50.808C74.3728 51.5126 80.0211 51.9284 82.6966 51.9284Z" fill="#F090BA"/>
<path fill-rule="evenodd" clip-rule="evenodd" d="M20.6654 50.9828C21.5967 51.0556 22.9877 50.9551 24.5526 50.7656C26.1474 50.5725 27.8933 50.2908 29.4608 50.0239C28.7115 42.3112 31.0263 36.5519 34.9498 32.7359C38.9116 28.8828 44.486 27.0384 50.1136 27.1448C55.7411 27.2512 61.4369 29.3082 65.652 33.2754C69.8326 37.2101 72.5409 43.0091 72.2983 50.6071C73.4755 50.9224 75.3413 51.1793 77.2641 51.3599C79.1632 51.5384 81.0918 51.6402 82.4181 51.6531C83.1721 39.9573 79.3132 31.4127 73.2227 25.8227C67.0827 20.1873 58.6489 17.5307 50.3079 17.6973C41.9661 17.8638 33.7384 20.8534 28.0117 26.4846C22.3284 32.073 19.0862 40.2846 20.6654 50.9828ZM73.6404 25.434C79.9137 31.1918 83.8295 39.9831 82.9924 51.9461C82.9823 52.0902 82.8529 52.2023 82.6966 52.2023C81.3464 52.2023 79.2551 52.0976 77.2041 51.9049C75.1599 51.7129 73.1256 51.4307 71.9041 51.0688C71.7776 51.0313 71.6936 50.9207 71.6984 50.7981C71.993 43.2336 69.3245 37.5138 65.229 33.6592C61.1297 29.8009 55.5847 27.7962 50.1015 27.6925C44.6183 27.5889 39.212 29.3859 35.3795 33.1133C31.5511 36.8367 29.2655 42.5136 30.0762 50.2212C30.0911 50.3627 29.9864 50.4911 29.8352 50.5171C28.1994 50.7973 26.3318 51.1026 24.6297 51.3088C22.9374 51.5137 21.3751 51.6253 20.3655 51.5041C20.2333 51.4883 20.1289 51.3928 20.1102 51.2709C18.4339 40.3206 21.7245 31.8669 27.5797 26.1094C33.4288 20.3579 41.8149 17.3189 50.2951 17.1496C58.7759 16.9803 67.3721 19.6808 73.6404 25.434Z" fill="black"/>
<path d="M72.4342 50.8329C73.3234 18.7857 25.009 19.8813 29.7515 50.2851C31.0647 50.4397 36.719 48.7412 38.9402 48.3677C40.1258 34.6723 62.0599 37.1375 62.0599 48.3677C63.6753 48.8375 70.6169 50.8329 72.4342 50.8329Z" fill="#E00819"/>
<path fill-rule="evenodd" clip-rule="evenodd" d="M30.0105 50.0202C30.1167 50.0173 30.2451 50.0077 30.396 49.9905C30.6696 49.9594 30.9982 49.9059 31.3688 49.835C32.11 49.6933 33.0028 49.4854 33.9298 49.2596C34.3737 49.1514 34.8264 49.0389 35.2735 48.9278C36.5638 48.607 37.808 48.2977 38.6643 48.1379C39.0128 44.7491 40.6262 42.3285 42.8765 40.7905C45.1655 39.2261 48.0906 38.59 50.9621 38.7472C56.6146 39.0564 62.2244 42.4704 62.354 48.166C63.2786 48.4337 65.2544 48.9983 67.2509 49.5126C68.331 49.7908 69.4142 50.0536 70.3389 50.2466C71.0856 50.4024 71.7107 50.5087 72.1444 50.5451C72.2912 42.7432 69.4806 36.9716 65.2655 33.1473C60.9959 29.2734 55.2657 27.3799 49.6498 27.4137C44.0332 27.4476 38.549 29.4086 34.7634 33.2226C31.0209 36.9931 28.9126 42.601 30.0105 50.0202ZM65.6809 32.7564C70.076 36.7441 72.9546 42.7606 72.7304 50.8399C72.7263 50.9884 72.5949 51.1068 72.4341 51.1068C71.9422 51.1068 71.137 50.9747 70.2083 50.7809C69.2699 50.5851 68.1761 50.3197 67.0917 50.0403C64.9224 49.4815 62.7795 48.8641 61.9709 48.629C61.8475 48.5931 61.7635 48.4873 61.7635 48.3677C61.7635 42.9541 56.4717 39.5974 50.9271 39.294C48.1669 39.143 45.3861 39.7567 43.229 41.2309C41.079 42.7003 39.5256 45.0398 39.2356 48.3896C39.2249 48.5133 39.1254 48.615 38.9932 48.6372C38.1654 48.7764 36.8512 49.103 35.4518 49.4508C34.9992 49.5633 34.5377 49.678 34.0809 49.7893C33.1525 50.0155 32.2467 50.2266 31.4889 50.3715C31.1101 50.4439 30.7642 50.5006 30.4685 50.5343C30.1779 50.5673 29.916 50.5806 29.714 50.5568C29.5818 50.5412 29.4771 50.446 29.4581 50.3242C28.2616 42.6536 30.4096 36.7986 34.3265 32.8523C38.2382 28.9112 43.8878 26.9006 49.6459 26.8659C55.4046 26.8313 61.2899 28.7725 65.6809 32.7564Z" fill="black"/>
</svg>
