<svg width="430" height="1475" viewBox="0 0 430 1475" fill="none" xmlns="http://www.w3.org/2000/svg">
<rect width="430" height="1475" fill="#034E98"/>
<path d="M79.8673 144C79.8673 144 86.486 117.925 128.325 93.9312C326.397 -19.6605 423.292 1241.56 423.292 1241.56L403.792 1246.51C403.792 1246.51 305.573 -43.9969 111.706 90.0502C73.1809 116.688 68.3672 147.5 68.3672 147.5L79.8673 144Z" fill="#034E98"/>
<path d="M68.3672 147.5C68.3672 147.5 73.1809 116.688 111.706 90.0502C305.573 -43.9969 403.792 1246.51 403.792 1246.51L382.276 1246.4C382.276 1246.4 281.949 -65.8494 92.9835 86.1739C56.8919 115.21 52.8672 150.5 52.8672 150.5L68.3672 147.5Z" fill="#FFD301"/>
<path d="M52.8672 150.5C52.8672 150.5 56.8919 115.21 92.9835 86.1739C281.949 -65.8494 382.276 1246.4 382.276 1246.4L360.792 1239.56C360.792 1239.56 256.722 -82.9521 72.0026 81.2441C36.8344 112.505 31.8672 151.5 31.8672 151.5L52.8672 150.5Z" fill="#F090BA"/>
<path d="M31.8672 151.5C31.8672 151.5 36.8344 112.505 72.0026 81.2441C256.722 -82.9521 360.792 1239.56 360.792 1239.56L337.308 1231.16C337.308 1231.16 232.965 -95.5962 49.8545 72.6854C14.938 104.774 10 146 10 146L31.8672 151.5Z" fill="#E00819"/>
<path d="M53.4598 149.876C53.4955 149.645 53.5426 149.356 53.603 149.014C53.7817 148.003 54.0775 146.522 54.5451 144.653C55.4803 140.915 57.1024 135.624 59.8482 129.428C65.3392 117.036 75.3233 101.023 93.2969 86.5634C100.765 80.5552 108.071 76.8658 115.218 75.297C117.653 77.7671 120.071 80.4939 122.47 83.468C118.818 85.0199 115.135 87.0713 111.422 89.6389C92.0902 103.005 81.2044 117.429 75.1508 128.525C72.1245 134.072 70.3069 138.785 69.2449 142.117C68.714 143.784 68.3719 145.104 68.1622 146.011C68.0573 146.465 67.9855 146.815 67.9397 147.053C67.9383 147.06 67.937 147.067 67.9356 147.074L53.4598 149.876ZM79.4599 143.601L69.0156 146.78C69.0494 146.621 69.0894 146.44 69.1365 146.237C69.3405 145.354 69.6754 144.06 70.1977 142.421C71.2423 139.144 73.0358 134.489 76.0286 129.004C82.0131 118.034 92.7967 103.733 111.99 90.4614C115.741 87.8683 119.45 85.815 123.119 84.2793C125.218 86.9231 127.303 89.756 129.374 92.7716C128.942 93.007 128.509 93.249 128.076 93.4975C107.097 105.529 94.9285 118.093 88.0013 127.67C84.5383 132.458 82.3869 136.496 81.0995 139.345C80.4559 140.769 80.0283 141.896 79.7608 142.669C79.6271 143.056 79.5334 143.355 79.4727 143.558C79.4682 143.573 79.464 143.587 79.4599 143.601ZM10.5555 145.624C10.5566 145.616 10.5577 145.609 10.5589 145.601C10.603 145.295 10.6724 144.841 10.7732 144.25C10.975 143.069 11.3024 141.343 11.8043 139.17C12.8082 134.823 14.5099 128.691 17.2992 121.558C22.8785 107.291 32.8047 89.0335 50.1929 73.0536C61.5743 62.5939 72.5873 57.9974 83.2367 58.4632C90.6782 58.7888 97.9942 61.5885 105.183 66.6662C94.2719 66.1644 83.095 70.7152 71.6705 80.8704C54.0171 96.5624 43.9442 114.195 38.2847 127.904C35.4548 134.759 33.7275 140.635 32.7072 144.8C32.1971 146.882 31.8636 148.537 31.6574 149.674C31.5651 150.183 31.4984 150.587 31.4526 150.88L10.5555 145.624ZM52.4271 150.02L32.4505 150.972C32.4946 150.692 32.5571 150.317 32.6413 149.853C32.8442 148.734 33.1735 147.099 33.6785 145.037C34.6886 140.914 36.4011 135.087 39.209 128.286C44.8251 114.682 54.8199 97.1868 72.3348 81.6178C83.8138 71.4142 94.9186 67.0366 105.656 67.6929C106.004 67.7142 106.353 67.7408 106.7 67.7726C109.278 69.7127 111.839 71.9452 114.384 74.4612C107.261 76.1422 100.021 79.8703 92.6701 85.7843C74.5521 100.36 64.4781 116.511 58.9339 129.023C56.162 135.278 54.5222 140.625 53.575 144.411C53.1013 146.304 52.8007 147.807 52.6183 148.84C52.5276 149.353 52.4661 149.75 52.4271 150.02ZM115.131 73.7932C112.982 71.6665 110.817 69.7346 108.636 68.0049C113.619 68.7443 118.545 70.5676 123.413 73.4166C120.806 73.4032 118.183 73.6638 115.544 74.2052C115.406 74.0671 115.269 73.9297 115.131 73.7932ZM116.385 75.0594C119.328 74.5071 122.243 74.3141 125.132 74.4665C127.754 76.1357 130.359 78.1023 132.948 80.357C129.8 80.8865 126.629 81.7871 123.433 83.0701C121.102 80.167 118.753 77.4938 116.385 75.0594ZM134.238 80.1606C131.913 78.0913 129.568 76.2466 127.204 74.6354C127.242 74.6395 127.279 74.6437 127.317 74.6479C132.649 75.2526 137.912 77.0354 143.104 79.9296C140.171 79.6809 137.215 79.7546 134.238 80.1606ZM124.084 83.8871C127.395 82.5809 130.672 81.6961 133.918 81.2162C134.979 82.1717 136.038 83.1756 137.093 84.2273C138.305 85.4346 139.512 86.7043 140.715 88.0351C137.26 89.0369 133.775 90.4531 130.261 92.2973C128.217 89.3163 126.157 86.5108 124.084 83.8871ZM141.792 87.7363C140.466 86.2568 139.136 84.8505 137.799 83.5189C136.941 82.6638 136.08 81.8393 135.216 81.0456C138.587 80.6583 141.923 80.7079 145.225 81.1758C147.576 82.6281 149.912 84.308 152.233 86.2092C148.784 86.2997 145.303 86.804 141.792 87.7363ZM130.828 93.1291C134.408 91.2588 137.95 89.8427 141.457 88.8637C160.268 110.099 177.996 146.292 194.583 193.127C230.299 293.976 260.62 443.857 285.173 598.905C309.725 753.944 328.505 914.117 341.148 1035.53C347.469 1096.24 352.255 1147.26 355.462 1183.1C357.065 1201.02 358.273 1215.14 359.08 1224.79C359.484 1229.61 359.787 1233.31 359.99 1235.81C360.039 1236.42 360.083 1236.96 360.12 1237.42L360.218 1238.64L360.233 1238.83L337.781 1230.8L337.73 1230.16C337.679 1229.53 337.603 1228.57 337.501 1227.32C337.298 1224.82 336.994 1221.1 336.59 1216.26C335.781 1206.59 334.57 1192.41 332.965 1174.44C329.754 1138.49 324.963 1087.31 318.641 1026.43C305.997 904.676 287.231 744.08 262.742 588.741C238.254 433.411 208.039 283.303 172.491 182.537C159.344 145.272 145.454 114.712 130.828 93.1291ZM361.264 1239.18L361.215 1238.56C361.164 1237.92 361.088 1236.98 360.987 1235.73C360.784 1233.23 360.48 1229.53 360.077 1224.7C359.269 1215.06 358.061 1200.93 356.458 1183.01C353.251 1147.16 348.464 1096.14 342.142 1035.43C329.499 914.004 310.717 753.812 286.161 598.749C261.607 443.694 231.275 293.735 195.526 192.793C179.033 146.224 161.365 110.021 142.536 88.5759C146.201 87.6445 149.826 87.1906 153.412 87.1944C155.389 88.8804 157.355 90.7267 159.31 92.7295C180.057 113.979 199.448 152.678 217.434 203.492C253.396 305.091 283.647 454.831 307.998 609.357C332.347 763.875 350.792 923.146 363.15 1043.79C369.329 1104.11 373.986 1154.77 377.098 1190.36C378.654 1208.15 379.824 1222.17 380.605 1231.74C380.996 1236.53 381.289 1240.2 381.484 1242.68C381.582 1243.92 381.656 1244.86 381.704 1245.49L381.721 1245.7L361.264 1239.18ZM382.74 1245.9L382.701 1245.41C382.653 1244.78 382.579 1243.84 382.481 1242.6C382.286 1240.12 381.992 1236.45 381.602 1231.66C380.821 1222.09 379.651 1208.06 378.094 1190.27C374.982 1154.68 370.324 1104.01 364.145 1043.69C351.786 923.035 333.339 763.744 308.986 609.202C284.634 454.668 254.372 304.85 218.377 203.158C200.384 152.326 180.935 113.447 160.025 92.0309C158.352 90.3171 156.669 88.7141 154.975 87.2251C158.063 87.343 161.122 87.8003 164.153 88.5843C164.187 88.5929 164.22 88.6016 164.253 88.6103C169.427 91.9339 174.528 96.2842 179.554 101.599C200.718 123.978 220.43 163.308 238.661 214.364C275.115 316.452 305.562 465.16 329.955 618.091C354.348 771.014 372.682 928.128 384.919 1047.01C391.037 1106.46 395.631 1156.34 398.695 1191.36C400.227 1208.87 401.377 1222.67 402.144 1232.09C402.527 1236.8 402.815 1240.41 403.006 1242.85C403.102 1244.07 403.174 1244.99 403.222 1245.61L403.252 1246.01L382.74 1245.9ZM153.781 86.1962C151.785 84.5094 149.774 82.981 147.749 81.6162C152.408 82.5817 157.011 84.3821 161.558 86.976C158.984 86.4833 156.392 86.2213 153.781 86.1962ZM180.281 100.912C176.07 96.4599 171.794 92.6636 167.452 89.5694C177.753 93.0594 187.77 100.333 197.499 110.967C219.035 134.507 239.041 174.377 257.505 225.496C294.426 327.715 325.102 474.679 349.592 625.227C374.082 775.767 392.382 929.859 404.56 1046.32C410.649 1104.55 415.208 1153.37 418.244 1187.63C419.762 1204.76 420.9 1218.25 421.658 1227.46C422.036 1232.07 422.321 1235.6 422.51 1237.98C422.605 1239.17 422.676 1240.08 422.723 1240.68L422.761 1241.18L404.245 1245.88L404.219 1245.54C404.171 1244.92 404.099 1243.99 404.003 1242.77C403.811 1240.33 403.524 1236.72 403.14 1232.01C402.374 1222.59 401.224 1208.79 399.691 1191.28C396.627 1156.25 392.033 1106.36 385.914 1046.91C373.676 928.016 355.339 770.881 330.943 617.933C306.548 464.994 276.09 316.209 239.603 214.028C221.364 162.949 201.596 123.451 180.281 100.912Z" stroke="black"/>
<path d="M418.038 1262.12L422.84 1241.14C393.455 1248.34 365.428 1241.78 337.894 1230.23C337.894 1230.23 332.145 1265.42 330.132 1281.2C338.186 1310.26 353.805 1318.03 360.607 1318.28C370.146 1321.24 389.172 1310.16 397.493 1304.25C410.404 1297.96 407.827 1282.56 413.113 1284.34C418.399 1286.13 421.103 1286.39 425.041 1274.17C428.192 1264.38 421.685 1262.06 418.038 1262.12Z" fill="white"/>
<path d="M367.274 1302.52C367.016 1303.5 366.146 1304.29 364.812 1304.73C363.484 1305.16 361.762 1305.21 359.971 1304.74C358.18 1304.27 356.704 1303.38 355.759 1302.35C354.811 1301.32 354.442 1300.2 354.699 1299.22C354.767 1298.96 354.844 1298.84 354.897 1298.78C354.937 1298.74 354.976 1298.72 355.044 1298.72C355.132 1298.71 355.269 1298.73 355.477 1298.81C355.68 1298.88 355.918 1299 356.197 1299.15C356.419 1299.27 356.663 1299.41 356.927 1299.56C357.962 1300.16 359.309 1300.94 360.86 1301.35C362.411 1301.76 363.967 1301.74 365.163 1301.73C365.469 1301.72 365.75 1301.72 366.003 1301.72C366.321 1301.73 366.584 1301.74 366.798 1301.78C367.016 1301.81 367.146 1301.86 367.22 1301.91C367.278 1301.95 367.302 1301.98 367.316 1302.04C367.335 1302.12 367.341 1302.26 367.274 1302.52Z" stroke="black"/>
<path fill-rule="evenodd" clip-rule="evenodd" d="M337.187 1230.12L337.893 1230.23C337.187 1230.12 337.187 1230.12 337.187 1230.12L337.187 1230.12L336.936 1231.67C336.775 1232.66 336.543 1234.1 336.257 1235.87C335.687 1239.41 334.905 1244.31 334.06 1249.69C332.372 1260.46 330.43 1273.21 329.422 1281.11L329.406 1281.23L329.439 1281.35C337.494 1310.41 353.177 1318.59 360.487 1318.93C363.038 1319.7 366.131 1319.53 369.399 1318.81C372.722 1318.08 376.305 1316.77 379.826 1315.19C386.841 1312.04 393.693 1307.78 397.886 1304.81C404.55 1301.54 407.198 1295.93 408.837 1291.49C409.078 1290.84 409.304 1290.19 409.515 1289.59C409.659 1289.18 409.797 1288.78 409.929 1288.42C410.262 1287.49 410.569 1286.72 410.896 1286.12C411.228 1285.51 411.539 1285.16 411.834 1284.99C412.081 1284.85 412.386 1284.8 412.877 1284.96C415.47 1285.84 417.838 1286.52 420.009 1285.04C421.053 1284.34 421.987 1283.17 422.9 1281.47C423.815 1279.75 424.736 1277.44 425.725 1274.36C427.341 1269.35 426.533 1266.05 424.623 1264.02C423.021 1262.32 420.759 1261.63 418.914 1261.49L423.781 1240.22L422.646 1240.5C393.49 1247.64 365.646 1241.15 338.18 1229.63L337.326 1229.27L337.187 1230.12ZM338.461 1231.19C365.438 1242.4 393.004 1248.79 421.898 1242.05L417.15 1262.79L418.061 1262.78C419.752 1262.75 422.051 1263.28 423.552 1264.88C425.021 1266.44 425.89 1269.2 424.356 1273.97C423.376 1277.01 422.482 1279.25 421.617 1280.87C420.75 1282.49 419.939 1283.44 419.154 1283.97C417.666 1284.98 416.04 1284.63 413.347 1283.72C412.516 1283.44 411.746 1283.48 411.072 1283.87C410.445 1284.22 409.99 1284.83 409.619 1285.51C409.242 1286.2 408.909 1287.05 408.574 1287.98C408.432 1288.37 408.291 1288.78 408.147 1289.19C407.941 1289.78 407.726 1290.39 407.486 1291.05C405.868 1295.42 403.36 1300.64 397.152 1303.67L397.099 1303.69L397.052 1303.73C392.919 1306.66 386.123 1310.88 379.187 1313.99C375.718 1315.55 372.236 1316.82 369.049 1317.52C365.848 1318.22 363.024 1318.33 360.824 1317.65L360.726 1317.62L360.624 1317.62C354.292 1317.38 338.882 1309.99 330.856 1281.16C331.865 1273.27 333.793 1260.62 335.474 1249.9C336.318 1244.52 337.099 1239.63 337.67 1236.08C337.955 1234.31 338.187 1232.88 338.348 1231.88L338.461 1231.19Z" fill="black"/>
<path fill-rule="evenodd" clip-rule="evenodd" d="M372.213 1272.12C372.333 1271.97 372.493 1271.79 372.693 1271.59C373.247 1271.02 374.053 1270.31 375.034 1269.64C377.036 1268.28 379.537 1267.22 382.009 1267.46C384.481 1267.7 386.727 1269.23 388.423 1270.96C389.254 1271.81 389.906 1272.66 390.339 1273.33C390.495 1273.57 390.616 1273.78 390.705 1273.95C390.609 1274.04 390.487 1274.15 390.339 1274.27C389.814 1274.71 389.039 1275.25 388.079 1275.76C386.143 1276.78 383.622 1277.58 381.035 1277.33C378.448 1277.07 376.133 1275.79 374.434 1274.41C373.592 1273.73 372.936 1273.05 372.508 1272.51C372.387 1272.36 372.289 1272.23 372.213 1272.12ZM390.864 1274.29C390.864 1274.29 390.863 1274.29 390.863 1274.29C390.868 1274.31 390.87 1274.31 390.864 1274.29ZM371.991 1272.43C371.99 1272.43 371.99 1272.43 371.989 1272.43C371.979 1272.45 371.982 1272.44 371.991 1272.43ZM380.905 1278.64C374.931 1278.05 370.56 1272.79 370.636 1272.02C370.711 1271.25 376.164 1265.56 382.139 1266.14C388.114 1266.73 392.347 1273.39 392.272 1274.16C392.196 1274.92 386.88 1279.23 380.905 1278.64Z" fill="black"/>
<path d="M376.111 1271.86C375.771 1275.31 377.311 1278.29 379.551 1278.51C381.792 1278.73 383.884 1276.11 384.225 1272.66C384.566 1269.21 383.026 1266.23 380.785 1266.01C378.545 1265.79 376.452 1268.41 376.111 1271.86Z" fill="black"/>
<path fill-rule="evenodd" clip-rule="evenodd" d="M341.886 1251.91C341.751 1252.25 341.941 1252.63 342.311 1252.76L361.538 1259.56L356.044 1287.79L356.257 1288.03C357.611 1289.56 361.794 1292.24 368.363 1292C368.502 1291.99 368.641 1291.99 368.782 1291.98L368.683 1290.66L368.676 1290.66L368.285 1290.68L368.282 1290.68C362.511 1290.89 358.86 1288.68 357.57 1287.43L363.156 1258.73L342.803 1251.53C342.432 1251.4 342.022 1251.57 341.886 1251.91Z" fill="black"/>
<path fill-rule="evenodd" clip-rule="evenodd" d="M339.999 1261.37C339.623 1261.48 339.418 1261.85 339.54 1262.2C340.11 1263.83 341.507 1266.02 343.895 1267.24C346.338 1268.48 349.658 1268.63 353.855 1266.42C354.196 1266.24 354.31 1265.83 354.111 1265.52C353.912 1265.2 353.475 1265.09 353.134 1265.27C349.265 1267.3 346.48 1267.06 344.568 1266.08C342.601 1265.08 341.392 1263.23 340.898 1261.81C340.776 1261.46 340.374 1261.27 339.999 1261.37Z" fill="black"/>
<path d="M12.5676 163.168L10.3537 145.778C33.5996 153.961 56.8455 150.893 80.0913 143.732C80.0913 143.732 81.9363 172.715 82.3052 185.672C73.4497 208.585 60.1663 213.632 54.6316 213.291C46.6616 214.928 32.1237 204.426 25.851 198.97C15.8884 192.832 19.2093 180.557 14.7815 181.58C10.3537 182.603 8.13983 182.603 5.92594 172.374C4.15482 164.191 9.61576 162.827 12.5676 163.168Z" fill="white"/>
<path fill-rule="evenodd" clip-rule="evenodd" d="M80.6738 143.701L80.0928 143.732C80.6738 143.701 80.6738 143.701 80.6738 143.701L80.6739 143.702L80.7539 144.972C80.805 145.79 80.8786 146.973 80.9679 148.433C81.1467 151.353 81.3889 155.381 81.6426 159.815C82.1499 168.679 82.7038 179.171 82.8885 185.658L82.8914 185.758L82.8548 185.853C73.9998 208.765 60.6303 214.142 54.6776 213.832C52.5484 214.247 50.0542 213.861 47.4626 213.018C44.8269 212.161 42.0271 210.81 39.2995 209.247C33.8642 206.133 28.6495 202.137 25.4888 199.392C20.3483 196.206 18.6503 191.445 17.6763 187.716C17.5334 187.169 17.4023 186.628 17.2793 186.121C17.1953 185.774 17.1151 185.443 17.0376 185.137C16.8414 184.362 16.6546 183.711 16.4375 183.199C16.2168 182.678 15.9926 182.369 15.767 182.209C15.5779 182.075 15.335 182.007 14.9241 182.102C12.7518 182.604 10.7776 182.962 9.13558 181.597C8.3455 180.939 7.68157 179.922 7.07866 178.464C6.47382 177.001 5.91281 175.049 5.35663 172.48C4.44816 168.282 5.36693 165.677 7.0773 164.183C8.51314 162.929 10.4019 162.554 11.9088 162.585L9.66488 144.959L10.5624 145.275C33.6277 153.395 56.7203 150.365 79.9087 143.222L80.6292 143L80.6738 143.701ZM79.5558 144.463C56.7883 151.393 33.9299 154.366 11.0447 146.591L13.2339 163.787L12.4969 163.701C11.1281 163.543 9.22224 163.79 7.87691 164.965C6.56163 166.114 5.63549 168.283 6.49814 172.269C7.0489 174.813 7.59484 176.698 8.16613 178.08C8.73935 179.466 9.32074 180.303 9.91433 180.797C11.0397 181.733 12.3863 181.58 14.6418 181.059C15.3379 180.898 15.9597 180.99 16.4754 181.355C16.9547 181.695 17.2753 182.225 17.5216 182.807C17.7715 183.397 17.9739 184.113 18.1711 184.892C18.2548 185.223 18.3364 185.56 18.4206 185.907C18.5402 186.401 18.6649 186.916 18.808 187.464C19.7686 191.142 21.3851 195.571 26.1753 198.522L26.2158 198.547L26.2513 198.578C29.3669 201.288 34.5389 205.253 39.913 208.333C42.6002 209.873 45.3212 211.181 47.849 212.004C50.3876 212.829 52.8394 213.377 54.6776 213C59.8293 213.317 72.9076 208.312 81.7219 185.586C81.5348 179.108 80.9849 168.692 80.4801 159.872C80.2265 155.44 79.9844 151.413 79.8057 148.494C79.7163 147.034 79.6428 145.852 79.5917 145.034L79.5558 144.463Z" fill="black"/>
<path fill-rule="evenodd" clip-rule="evenodd" d="M48.9186 174.945C48.8331 174.816 48.7179 174.657 48.5721 174.474C48.1681 173.967 47.5714 173.33 46.8298 172.709C45.3165 171.441 43.3731 170.381 41.3497 170.381C39.3263 170.381 37.3829 171.441 35.8697 172.709C35.128 173.33 34.5313 173.967 34.1274 174.474C33.9815 174.657 33.8663 174.816 33.7808 174.945C33.8515 175.029 33.9413 175.128 34.0515 175.24C34.4416 175.637 35.0275 176.135 35.7646 176.622C37.2528 177.604 39.2323 178.459 41.3497 178.459C43.4671 178.459 45.4466 177.604 46.9348 176.622C47.6719 176.135 48.2578 175.637 48.6479 175.24C48.7581 175.128 48.8479 175.029 48.9186 174.945ZM33.6242 175.213C33.6246 175.212 33.625 175.211 33.6256 175.209C33.6199 175.226 33.6177 175.228 33.6242 175.213ZM49.0739 175.209C49.0744 175.211 49.0749 175.212 49.0753 175.213C49.0817 175.228 49.0795 175.226 49.0739 175.209ZM41.3497 179.535C46.2405 179.535 50.2053 175.616 50.2053 174.988C50.2053 174.361 46.2405 169.305 41.3497 169.305C36.4589 169.305 32.4941 174.361 32.4941 174.988C32.4941 175.616 36.4589 179.535 41.3497 179.535Z" fill="black"/>
<path d="M45.7764 174.42C45.7764 177.245 44.2897 179.535 42.4556 179.535C40.6216 179.535 39.1348 177.245 39.1348 174.42C39.1348 171.595 40.6216 169.5 42.4556 169.5C44.2897 169.5 45.7764 171.595 45.7764 174.42Z" fill="black"/>
<path fill-rule="evenodd" clip-rule="evenodd" d="M75.1203 160.983C75.2031 161.27 75.0185 161.565 74.7079 161.641L58.5759 165.617L60.7709 188.944L60.5792 189.121C59.3596 190.248 55.7534 192.085 50.447 191.366C50.3352 191.351 50.2227 191.335 50.1094 191.317L50.2952 190.255L50.3008 190.256L50.616 190.302L50.6186 190.302C55.2804 190.933 58.4175 189.434 59.563 188.525L57.3315 164.81L74.4079 160.602C74.7185 160.525 75.0375 160.696 75.1203 160.983Z" fill="black"/>
<path fill-rule="evenodd" clip-rule="evenodd" d="M75.8935 168.811C76.189 168.928 76.3259 169.244 76.1993 169.517C75.6064 170.796 74.2988 172.459 72.2657 173.253C70.1853 174.066 67.482 173.918 64.2565 171.789C63.9949 171.616 63.9343 171.28 64.1212 171.039C64.308 170.797 64.6715 170.741 64.9331 170.914C67.9065 172.876 70.1844 172.898 71.8123 172.262C73.4875 171.608 74.6152 170.202 75.1293 169.093C75.2559 168.82 75.5981 168.694 75.8935 168.811Z" fill="black"/>
<path d="M62.5 198.5C62.5 199.515 61.8594 200.503 60.6794 201.261C59.5047 202.017 57.8516 202.5 56 202.5C54.1484 202.5 52.4953 202.017 51.3206 201.261C50.1406 200.503 49.5 199.515 49.5 198.5C49.5 198.234 49.5431 198.095 49.5805 198.027C49.6086 197.976 49.6409 197.948 49.7063 197.927C49.7897 197.899 49.9278 197.884 50.1475 197.906C50.3633 197.926 50.6224 197.978 50.9312 198.054C51.1762 198.114 51.4479 198.189 51.7423 198.27C52.8954 198.587 54.3964 199 56 199C57.6036 199 59.1046 198.587 60.2577 198.27C60.5521 198.189 60.8238 198.114 61.0688 198.054C61.3776 197.978 61.6367 197.926 61.8525 197.906C62.0722 197.884 62.2103 197.899 62.2937 197.927C62.3591 197.948 62.3914 197.976 62.4195 198.027C62.4569 198.095 62.5 198.234 62.5 198.5Z" stroke="black"/>
</svg>
