<svg width="430" height="1751" viewBox="0 0 430 1751" fill="none" xmlns="http://www.w3.org/2000/svg">
<rect width="430" height="1751" fill="#034E98"/>
<path d="M80.8673 83.3284C80.8673 83.3284 121.482 20.6015 159.337 50.0584C358.838 205.299 406 1678.12 406 1678.12L393 1683C393 1683 338.013 181.312 142.719 46.2331C104.379 19.715 69.3672 86.7782 69.3672 86.7782L80.8673 83.3284Z" fill="#034E98"/>
<path d="M69.3672 86.7782C69.3672 86.7782 104.379 19.715 142.719 46.2331C338.013 181.312 393 1683 393 1683H374.5C374.5 1683 314.389 159.773 123.996 42.4124C84.7224 18.2036 53.8672 89.7352 53.8672 89.7352L69.3672 86.7782Z" fill="#FFD301"/>
<path d="M53.8672 89.7352C53.8672 89.7352 84.7224 18.2036 123.996 42.4124C314.389 159.773 374.5 1683 374.5 1683L354.5 1680.58C354.5 1680.58 289.162 142.915 103.015 37.5534C62.211 14.4575 32.8672 90.7209 32.8672 90.7209L53.8672 89.7352Z" fill="#F090BA"/>
<path d="M32.8672 90.7209C32.8672 90.7209 62.211 14.4575 103.015 37.5534C289.162 142.915 354.5 1680.58 354.5 1680.58L336.5 1676.64C336.5 1676.64 265.406 130.453 80.8673 29.1175C39.4404 6.36888 11 85.2998 11 85.2998L32.8672 90.7209Z" fill="#E00819"/>
<path d="M54.7151 89.0644C54.9484 88.5529 55.285 87.8284 55.7201 86.926C56.6371 85.0245 57.9915 82.3334 59.7394 79.179C63.2366 72.8676 68.3026 64.7135 74.5851 57.3193C80.4861 50.374 87.4328 44.1321 95.1304 40.6972C97.2608 42.8069 99.3767 45.1136 101.478 47.6127C97.8578 50.1392 94.4534 53.0884 91.3133 56.2066C84.5079 62.9646 78.912 70.549 75.0198 76.4382C73.0728 79.3841 71.5502 81.9087 70.5139 83.6978C69.9957 84.5924 69.5989 85.3032 69.3314 85.7911C69.2041 86.0233 69.106 86.205 69.038 86.332L54.7151 89.0644ZM80.5492 82.9018L70.3853 85.9508C70.6371 85.4964 70.9697 84.9059 71.3792 84.199C72.4073 82.4242 73.9196 79.9166 75.854 76.9896C79.7246 71.1332 85.278 63.6092 92.018 56.9161C95.1525 53.8035 98.5367 50.8776 102.121 48.3837C103.674 50.2628 105.22 52.2471 106.757 54.3346C106.366 54.6398 105.978 54.9476 105.593 55.2578C98.1133 61.2872 91.8287 68.2361 87.4166 73.6725C85.2096 76.3918 83.469 78.7353 82.2795 80.4C81.6848 81.2323 81.2277 81.8951 80.9188 82.3505C80.7644 82.5782 80.647 82.754 80.5681 82.8733C80.5615 82.8832 80.5552 82.8927 80.5492 82.9018ZM108.14 54.5311C110.885 52.4375 113.772 50.494 116.769 48.8119C123.357 55.2901 129.798 63.6091 136.092 73.6343C146.772 90.6458 157.004 112.532 166.798 138.579C186.386 190.672 204.202 259.35 220.351 338.826C252.648 497.774 278.264 699.84 298.065 898.628C317.866 1097.41 331.85 1292.91 340.883 1438.71C345.4 1511.61 348.68 1572.08 350.83 1614.33C351.905 1635.46 352.697 1652.02 353.221 1663.31C353.483 1668.95 353.678 1673.28 353.807 1676.19C353.872 1677.65 353.92 1678.75 353.952 1679.49L353.973 1679.96L336.982 1676.23L336.947 1675.5L336.896 1674.41C336.867 1673.79 336.831 1673.05 336.79 1672.18C336.65 1669.25 336.439 1664.9 336.156 1659.23C335.59 1647.88 334.736 1631.22 333.584 1609.98C331.28 1567.5 327.781 1506.7 323.007 1433.43C313.458 1286.89 298.804 1090.44 278.383 890.828C257.962 691.216 231.773 488.423 199.152 329.193C182.842 249.58 164.921 180.84 145.302 128.827C135.493 102.821 125.254 80.9824 114.572 64.0526C112.447 60.6839 110.302 57.5079 108.14 54.5311ZM354.981 1680.14L354.951 1679.45C354.919 1678.71 354.871 1677.6 354.806 1676.15C354.677 1673.23 354.482 1668.91 354.22 1663.26C353.696 1651.98 352.903 1635.41 351.828 1614.28C349.678 1572.03 346.399 1511.55 341.881 1438.64C332.847 1292.84 318.863 1097.33 299.06 898.529C279.258 699.73 253.638 497.624 221.331 338.627C205.177 259.13 187.349 190.392 167.734 138.227C157.926 112.144 147.667 90.1909 136.939 73.1026C130.69 63.1477 124.273 54.8308 117.683 48.3088C120.495 46.7923 123.399 45.5124 126.37 44.5588C137.23 52.0461 147.693 64.1806 157.76 80.4405C168.636 98.0067 179.03 120.354 188.956 146.777C208.807 199.624 226.767 268.723 242.97 348.365C275.374 507.646 300.735 709.032 320.148 906.765C339.56 1104.49 353.024 1298.56 361.634 1443.19C365.939 1515.51 369.03 1575.47 371.046 1617.34C372.054 1638.28 372.792 1654.7 373.279 1665.89C373.522 1671.48 373.703 1675.76 373.822 1678.65C373.882 1680.09 373.927 1681.18 373.956 1681.92L373.977 1682.43L354.981 1680.14ZM80.6266 29.5557C82.3401 30.4967 84.0448 31.564 85.7407 32.7555C81.8796 33.0041 78.1689 34.0371 74.6316 35.6629C66.036 39.6137 58.483 47.0541 52.2433 55.1715C45.9985 63.2954 41.0391 72.1372 37.6424 78.9423C35.9434 82.3461 34.634 85.2434 33.7489 87.2906C33.3063 88.3143 32.9697 89.1256 32.7436 89.6817C32.6723 89.857 32.6119 90.007 32.5627 90.1302L11.6633 84.9491C11.702 84.8463 11.7465 84.7288 11.7967 84.5972C12.0139 84.0277 12.3384 83.1942 12.7662 82.1409C13.622 80.034 14.8912 77.0479 16.5436 73.5351C19.8495 66.5069 24.6839 57.382 30.8029 48.9721C36.927 40.5551 44.3083 32.8959 52.6952 28.7471C61.0526 24.6129 70.4244 23.9534 80.6266 29.5557ZM75.0492 36.5715C78.8571 34.8213 82.8646 33.779 87.0505 33.7017C89.5067 35.5249 91.9444 37.6089 94.3633 39.9467C86.6154 43.5 79.678 49.7807 73.823 56.6718C67.4825 64.1343 62.3801 72.35 58.8647 78.6943C57.1062 81.8677 55.7432 84.5759 54.8194 86.4917C54.3574 87.4496 54.0052 88.2096 53.7682 88.7308C53.6706 88.9454 53.5925 89.1195 53.5344 89.2503L33.6185 90.1851C33.6349 90.1445 33.6521 90.1023 33.6699 90.0584C33.8935 89.5086 34.2272 88.704 34.6667 87.6875C35.5458 85.6543 36.8476 82.7739 38.5371 79.3889C41.9176 72.6164 46.8444 63.8358 53.0361 55.7809C59.2329 47.7194 66.6666 40.4244 75.0492 36.5715ZM102.307 47.0444C100.261 44.6078 98.1996 42.3488 96.1213 40.2724C96.298 40.1997 96.4751 40.1286 96.6526 40.059C98.7889 39.2208 100.982 38.603 103.226 38.2503C105.469 39.5495 107.695 41.0595 109.905 42.7756C107.287 43.9503 104.75 45.3985 102.307 47.0444ZM101.845 37.4815C99.9544 37.8595 98.1006 38.4167 96.2873 39.1281C95.9736 39.2511 95.6612 39.3788 95.35 39.5109C93.1627 37.3774 90.957 35.4461 88.7329 33.7228C92.9373 33.906 97.315 35.0749 101.845 37.4815ZM110.95 42.3234C108.928 40.7276 106.889 39.2998 104.835 38.0443C109.163 37.6165 113.674 38.1921 118.332 40.0809C117.191 40.2961 116.061 40.5713 114.942 40.9014C113.593 41.2991 112.262 41.7762 110.95 42.3234ZM115.224 41.8605C116.799 41.3962 118.397 41.0434 120.015 40.8178C121.245 41.3966 122.485 42.0682 123.734 42.838C124.264 43.165 124.794 43.5029 125.322 43.8519C122.449 44.8286 119.646 46.0973 116.935 47.577C115.249 45.9459 113.551 44.4324 111.842 43.0389C112.957 42.5913 114.085 42.1966 115.224 41.8605ZM126.533 43.459C125.777 42.9463 125.019 42.4554 124.259 41.9868C123.455 41.4914 122.654 41.0354 121.857 40.6176C125.556 40.3297 129.354 40.7247 133.22 41.9851C132.481 42.0809 131.745 42.1991 131.013 42.3386C129.504 42.6258 128.01 43.0029 126.533 43.459ZM158.61 79.9141C148.706 63.9168 138.372 51.8161 127.585 44.1881C128.781 43.843 129.986 43.552 131.2 43.3209C132.579 43.0584 133.969 42.8731 135.369 42.7737C137.705 43.7264 140.062 45.0035 142.434 46.6443C154.559 55.0307 166.173 68.7456 177.285 87.1336C188.394 105.517 198.985 128.543 209.076 155.52C229.256 209.475 247.418 279.186 263.725 359.064C296.338 518.817 321.518 719.172 340.597 915.319C359.676 1111.46 372.651 1303.39 380.858 1446.28C384.961 1517.72 387.871 1576.91 389.756 1618.23C390.699 1638.9 391.385 1655.09 391.835 1666.12C392.06 1671.64 392.227 1675.86 392.337 1678.71C392.392 1680.13 392.433 1681.21 392.46 1681.93L392.481 1682.5H374.98L374.955 1681.88C374.926 1681.14 374.881 1680.05 374.821 1678.61C374.702 1675.72 374.521 1671.44 374.278 1665.84C373.791 1654.66 373.052 1638.24 372.045 1617.3C370.029 1575.41 366.937 1515.45 362.632 1443.13C354.021 1298.49 340.557 1104.41 321.143 906.667C301.729 708.923 276.364 507.497 243.949 348.166C227.743 268.502 209.77 199.344 189.892 146.426C179.953 119.967 169.532 97.5545 158.61 79.9141ZM143.003 45.8219C141.209 44.5811 139.421 43.5421 137.643 42.6891C144.666 42.6681 151.89 44.8969 159.03 50.453C183.848 69.7652 206.367 109.638 226.746 164.759C247.115 219.854 265.317 290.092 281.553 370.034C314.024 529.916 338.62 728.552 356.984 922.351C375.347 1116.15 387.476 1305.09 395.014 1445.59C398.784 1515.84 401.405 1573.98 403.084 1614.55C403.924 1634.84 404.528 1650.73 404.922 1661.56C405.119 1666.97 405.264 1671.11 405.359 1673.91C405.407 1675.3 405.442 1676.36 405.465 1677.07L405.489 1677.78L393.474 1682.29L393.459 1681.89C393.432 1681.17 393.391 1680.09 393.336 1678.67C393.226 1675.82 393.06 1671.6 392.834 1666.08C392.384 1655.05 391.698 1638.85 390.755 1618.19C388.87 1576.86 385.959 1517.67 381.856 1446.22C373.649 1303.32 360.673 1111.38 341.592 915.223C322.513 719.063 297.328 518.668 264.705 358.864C248.393 278.963 230.219 209.194 210.012 155.17C199.909 128.158 189.293 105.07 178.141 86.6164C166.992 68.1669 155.29 54.3204 143.003 45.8219ZM116.022 48.0854C113.074 49.7581 110.24 51.6731 107.549 53.7238C106.025 51.6554 104.492 49.6857 102.95 47.817C105.474 46.1225 108.095 44.6479 110.793 43.4768C112.546 44.8841 114.289 46.4212 116.022 48.0854Z" stroke="black"/>
<path d="M400.364 1695.07L406.164 1677.75C380.749 1681.38 357.623 1673.52 335.33 1661.48C335.33 1661.48 327.549 1690.71 324.536 1703.87C328.923 1729.09 341.468 1736.94 347.192 1737.72C355.002 1741.02 371.991 1733.24 379.51 1728.94C390.937 1724.7 390.041 1711.48 394.357 1713.43C398.673 1715.38 400.935 1715.83 405.277 1705.83C408.751 1697.82 403.45 1695.32 400.364 1695.07Z" fill="white"/>
<path fill-rule="evenodd" clip-rule="evenodd" d="M334.742 1661.32L335.329 1661.48C334.742 1661.32 334.742 1661.32 334.742 1661.32L334.741 1661.33L334.401 1662.61C334.183 1663.43 333.867 1664.63 333.479 1666.1C332.702 1669.05 331.635 1673.11 330.474 1677.59C328.152 1686.55 325.452 1697.15 323.944 1703.74L323.921 1703.84L323.939 1703.95C328.325 1729.16 340.891 1737.37 347.035 1738.27C349.126 1739.12 351.753 1739.24 354.572 1738.9C357.44 1738.56 360.575 1737.75 363.68 1736.71C369.867 1734.63 376.007 1731.61 379.795 1729.45C385.695 1727.24 388.398 1722.72 390.152 1719.11C390.409 1718.58 390.653 1718.05 390.882 1717.56C391.038 1717.22 391.187 1716.9 391.329 1716.61C391.687 1715.85 392.01 1715.23 392.336 1714.75C392.668 1714.26 392.96 1713.99 393.223 1713.87C393.443 1713.77 393.705 1713.75 394.106 1713.93C396.223 1714.89 398.167 1715.66 400.123 1714.6C401.063 1714.08 401.949 1713.18 402.861 1711.81C403.777 1710.44 404.747 1708.56 405.838 1706.05C407.62 1701.95 407.211 1699.1 405.768 1697.22C404.556 1695.65 402.703 1694.88 401.157 1694.61L407.035 1677.06L406.053 1677.2C380.836 1680.8 357.859 1673.01 335.621 1660.99L334.93 1660.62L334.742 1661.32ZM335.729 1662.33C357.58 1674.04 380.33 1681.73 405.293 1678.44L399.558 1695.57L400.329 1695.63C401.759 1695.74 403.656 1696.38 404.792 1697.86C405.902 1699.3 406.407 1701.7 404.715 1705.6C403.634 1708.09 402.693 1709.9 401.828 1711.2C400.961 1712.5 400.196 1713.24 399.49 1713.62C398.149 1714.35 396.805 1713.92 394.606 1712.93C393.928 1712.62 393.274 1712.59 392.673 1712.86C392.114 1713.1 391.678 1713.58 391.308 1714.13C390.933 1714.68 390.581 1715.37 390.221 1716.12C390.068 1716.44 389.916 1716.77 389.759 1717.11C389.537 1717.59 389.304 1718.09 389.047 1718.62C387.317 1722.18 384.765 1726.38 379.27 1728.42L379.224 1728.44L379.181 1728.46C375.447 1730.6 369.356 1733.6 363.239 1735.65C360.18 1736.68 357.134 1737.46 354.384 1737.79C351.622 1738.11 349.006 1738.17 347.205 1737.42C341.877 1736.69 329.533 1728.92 325.151 1703.9C326.659 1697.32 329.34 1686.79 331.65 1677.89C332.811 1673.41 333.877 1669.34 334.654 1666.4C335.042 1664.93 335.357 1663.73 335.576 1662.91L335.729 1662.33Z" fill="black"/>
<path fill-rule="evenodd" clip-rule="evenodd" d="M360.83 1699.71C360.944 1699.59 361.094 1699.45 361.28 1699.3C361.796 1698.86 362.535 1698.33 363.419 1697.85C365.223 1696.86 367.424 1696.17 369.491 1696.58C371.559 1696.99 373.329 1698.47 374.617 1700.08C375.248 1700.86 375.728 1701.63 376.038 1702.23C376.15 1702.45 376.235 1702.64 376.296 1702.79C376.207 1702.86 376.095 1702.94 375.959 1703.03C375.48 1703.36 374.78 1703.75 373.928 1704.1C372.208 1704.8 370.011 1705.27 367.848 1704.84C365.685 1704.41 363.836 1703.13 362.516 1701.82C361.862 1701.18 361.364 1700.55 361.047 1700.06C360.957 1699.93 360.885 1699.81 360.83 1699.71ZM376.402 1703.09C376.401 1703.09 376.401 1703.09 376.401 1703.09C376.403 1703.11 376.405 1703.11 376.402 1703.09ZM360.618 1699.94C360.617 1699.95 360.616 1699.95 360.615 1699.95C360.606 1699.96 360.608 1699.96 360.618 1699.94ZM367.629 1705.94C362.632 1704.94 359.379 1700.13 359.507 1699.49C359.634 1698.85 364.713 1694.49 369.71 1695.48C374.707 1696.48 377.729 1702.45 377.602 1703.09C377.474 1703.73 372.626 1706.93 367.629 1705.94Z" fill="black"/>
<path d="M364.148 1699.81C363.573 1702.7 364.627 1705.34 366.5 1705.71C368.374 1706.08 370.359 1704.05 370.934 1701.16C371.508 1698.27 370.416 1695.83 368.542 1695.46C366.668 1695.09 364.723 1696.92 364.148 1699.81Z" fill="black"/>
<path fill-rule="evenodd" clip-rule="evenodd" d="M336.901 1680.11C336.758 1680.39 336.886 1680.73 337.188 1680.87L352.861 1688.21L345.873 1711.6L346.033 1711.82C347.05 1713.22 350.361 1715.83 355.928 1716.17C356.046 1716.18 356.164 1716.19 356.283 1716.19L356.31 1715.07L356.304 1715.07L355.972 1715.05L355.97 1715.05C351.078 1714.75 348.178 1712.58 347.193 1711.42L354.297 1687.64L337.706 1679.87C337.404 1679.73 337.044 1679.84 336.901 1680.11Z" fill="black"/>
<path fill-rule="evenodd" clip-rule="evenodd" d="M334.519 1687.95C334.193 1688.01 333.989 1688.31 334.063 1688.61C334.408 1690.04 335.406 1692 337.322 1693.23C339.282 1694.48 342.074 1694.88 345.802 1693.36C346.105 1693.24 346.235 1692.91 346.093 1692.62C345.951 1692.34 345.591 1692.21 345.289 1692.33C341.852 1693.73 339.52 1693.29 337.986 1692.31C336.408 1691.3 335.542 1689.63 335.242 1688.4C335.168 1688.09 334.844 1687.89 334.519 1687.95Z" fill="black"/>
<path d="M342.142 1721.01C341.933 1722.05 342.392 1723.2 343.446 1724.22C344.496 1725.23 346.09 1726.06 347.985 1726.44C349.881 1726.82 351.672 1726.66 353.03 1726.12C354.394 1725.59 355.256 1724.7 355.465 1723.66C355.519 1723.38 355.504 1723.23 355.478 1723.15C355.458 1723.08 355.427 1723.05 355.36 1723.01C355.277 1722.96 355.136 1722.92 354.906 1722.89C354.679 1722.87 354.403 1722.87 354.072 1722.89C353.808 1722.9 353.515 1722.92 353.197 1722.94C351.955 1723.03 350.341 1723.15 348.706 1722.82C347.07 1722.5 345.624 1721.77 344.511 1721.21C344.226 1721.07 343.963 1720.94 343.724 1720.83C343.424 1720.69 343.168 1720.58 342.951 1720.51C342.729 1720.45 342.582 1720.43 342.487 1720.44C342.411 1720.45 342.367 1720.48 342.325 1720.53C342.27 1720.6 342.196 1720.73 342.142 1721.01Z" stroke="black"/>
<path d="M12.5676 103.168L10.3537 85.778C33.5996 93.9614 56.8455 90.8926 80.0913 83.7322C80.0913 83.7322 81.9363 112.715 82.3052 125.672C73.4497 148.585 60.1663 153.632 54.6316 153.291C46.6616 154.928 32.1237 144.426 25.851 138.97C15.8884 132.832 19.2093 120.557 14.7815 121.58C10.3537 122.603 8.13983 122.603 5.92594 112.374C4.15482 104.191 9.61576 102.827 12.5676 103.168Z" fill="white"/>
<path fill-rule="evenodd" clip-rule="evenodd" d="M80.6738 83.7006L80.0928 83.7322C80.6738 83.7006 80.6738 83.7006 80.6738 83.7006L80.6739 83.702L80.7539 84.9718C80.805 85.7898 80.8786 86.9728 80.9679 88.4329C81.1467 91.3529 81.3889 95.3813 81.6426 99.8148C82.1499 108.679 82.7038 119.171 82.8885 125.658L82.8914 125.758L82.8548 125.853C73.9998 148.765 60.6303 154.142 54.6776 153.832C52.5484 154.247 50.0542 153.861 47.4626 153.018C44.8269 152.161 42.0271 150.81 39.2995 149.247C33.8642 146.133 28.6495 142.137 25.4888 139.392C20.3483 136.206 18.6503 131.445 17.6763 127.716C17.5334 127.169 17.4023 126.628 17.2793 126.121C17.1953 125.774 17.1151 125.443 17.0376 125.137C16.8414 124.362 16.6546 123.711 16.4375 123.199C16.2168 122.678 15.9926 122.369 15.767 122.209C15.5779 122.075 15.335 122.007 14.9241 122.102C12.7518 122.604 10.7776 122.962 9.13558 121.597C8.3455 120.939 7.68157 119.922 7.07866 118.464C6.47382 117.001 5.91281 115.049 5.35663 112.48C4.44816 108.282 5.36693 105.677 7.0773 104.183C8.51314 102.929 10.4019 102.554 11.9088 102.585L9.66488 84.9595L10.5624 85.2754C33.6277 93.3952 56.7203 90.3647 79.9087 83.2219L80.6292 83L80.6738 83.7006ZM79.5558 84.4633C56.7883 91.393 33.9299 94.3656 11.0447 86.5909L13.2339 103.787L12.4969 103.701C11.1281 103.543 9.22224 103.79 7.87691 104.965C6.56163 106.114 5.63549 108.283 6.49814 112.269C7.0489 114.813 7.59484 116.698 8.16613 118.08C8.73935 119.466 9.32074 120.303 9.91433 120.797C11.0397 121.733 12.3863 121.58 14.6418 121.059C15.3379 120.898 15.9597 120.99 16.4754 121.355C16.9547 121.695 17.2753 122.225 17.5216 122.807C17.7715 123.397 17.9739 124.113 18.1711 124.892C18.2548 125.223 18.3364 125.56 18.4206 125.907C18.5402 126.401 18.6649 126.916 18.808 127.464C19.7686 131.142 21.3851 135.571 26.1753 138.522L26.2158 138.547L26.2513 138.578C29.3669 141.288 34.5389 145.253 39.913 148.333C42.6002 149.873 45.3212 151.181 47.849 152.004C50.3876 152.829 52.8394 153.377 54.6776 153C59.8293 153.317 72.9076 148.312 81.7219 125.586C81.5348 119.108 80.9849 108.692 80.4801 99.8716C80.2265 95.4398 79.9844 91.4127 79.8057 88.4936C79.7163 87.0341 79.6428 85.8515 79.5917 85.0339L79.5558 84.4633Z" fill="black"/>
<path fill-rule="evenodd" clip-rule="evenodd" d="M48.9186 114.945C48.8331 114.816 48.7179 114.657 48.5721 114.474C48.1681 113.967 47.5714 113.33 46.8298 112.709C45.3165 111.441 43.3731 110.381 41.3497 110.381C39.3263 110.381 37.3829 111.441 35.8697 112.709C35.128 113.33 34.5313 113.967 34.1274 114.474C33.9815 114.657 33.8663 114.816 33.7808 114.945C33.8515 115.029 33.9413 115.128 34.0515 115.24C34.4416 115.637 35.0275 116.135 35.7646 116.622C37.2528 117.604 39.2323 118.459 41.3497 118.459C43.4671 118.459 45.4466 117.604 46.9348 116.622C47.6719 116.135 48.2578 115.637 48.6479 115.24C48.7581 115.128 48.8479 115.029 48.9186 114.945ZM33.6242 115.213C33.6246 115.212 33.625 115.211 33.6256 115.209C33.6199 115.226 33.6177 115.228 33.6242 115.213ZM49.0739 115.209C49.0744 115.211 49.0749 115.212 49.0753 115.213C49.0817 115.228 49.0795 115.226 49.0739 115.209ZM41.3497 119.535C46.2405 119.535 50.2053 115.616 50.2053 114.988C50.2053 114.361 46.2405 109.305 41.3497 109.305C36.4589 109.305 32.4941 114.361 32.4941 114.988C32.4941 115.616 36.4589 119.535 41.3497 119.535Z" fill="black"/>
<path d="M45.7764 114.42C45.7764 117.245 44.2897 119.535 42.4556 119.535C40.6216 119.535 39.1348 117.245 39.1348 114.42C39.1348 111.595 40.6216 109.5 42.4556 109.5C44.2897 109.5 45.7764 111.595 45.7764 114.42Z" fill="black"/>
<path fill-rule="evenodd" clip-rule="evenodd" d="M75.1203 100.983C75.2031 101.27 75.0185 101.565 74.7079 101.641L58.5759 105.617L60.7709 128.944L60.5792 129.121C59.3596 130.248 55.7534 132.085 50.447 131.366C50.3352 131.351 50.2227 131.335 50.1094 131.317L50.2952 130.255L50.3008 130.256L50.616 130.302L50.6186 130.302C55.2804 130.933 58.4175 129.434 59.563 128.525L57.3315 104.81L74.4079 100.602C74.7185 100.525 75.0375 100.696 75.1203 100.983Z" fill="black"/>
<path fill-rule="evenodd" clip-rule="evenodd" d="M75.8935 108.811C76.189 108.928 76.3259 109.244 76.1993 109.517C75.6064 110.796 74.2988 112.459 72.2657 113.253C70.1853 114.066 67.482 113.918 64.2565 111.789C63.9949 111.616 63.9343 111.28 64.1212 111.039C64.308 110.797 64.6715 110.741 64.9331 110.914C67.9065 112.876 70.1844 112.898 71.8123 112.262C73.4875 111.608 74.6152 110.202 75.1293 109.093C75.2559 108.82 75.5981 108.694 75.8935 108.811Z" fill="black"/>
<path d="M62.5 138.5C62.5 139.515 61.8594 140.503 60.6794 141.261C59.5047 142.017 57.8516 142.5 56 142.5C54.1484 142.5 52.4953 142.017 51.3206 141.261C50.1406 140.503 49.5 139.515 49.5 138.5C49.5 138.234 49.5431 138.095 49.5805 138.027C49.6086 137.976 49.6409 137.948 49.7063 137.927C49.7897 137.899 49.9278 137.884 50.1475 137.906C50.3633 137.926 50.6224 137.978 50.9312 138.054C51.1762 138.114 51.4479 138.189 51.7423 138.27C52.8954 138.587 54.3964 139 56 139C57.6036 139 59.1046 138.587 60.2577 138.27C60.5521 138.189 60.8238 138.114 61.0688 138.054C61.3776 137.978 61.6367 137.926 61.8525 137.906C62.0722 137.884 62.2103 137.899 62.2937 137.927C62.3591 137.948 62.3914 137.976 62.4195 138.027C62.4569 138.095 62.5 138.234 62.5 138.5Z" stroke="black"/>
</svg>
