<svg width="113" height="95" viewBox="0 0 113 95" fill="none" xmlns="http://www.w3.org/2000/svg">
<path d="M11.5583 67.8671L10.4309 59.0116C22.2687 63.1789 34.1064 61.6161 45.9441 57.9697C45.9441 57.9697 46.8836 72.7289 47.0715 79.3272C42.5619 90.9956 35.7975 93.5655 32.979 93.3918C28.9203 94.2253 21.5171 88.8772 18.3227 86.099C13.2494 82.9736 14.9405 76.7226 12.6857 77.2435C10.4309 77.7644 9.30353 77.7644 8.17612 72.5553C7.2742 68.388 10.0551 67.6934 11.5583 67.8671Z" fill="white"/>
<path fill-rule="evenodd" clip-rule="evenodd" d="M46.24 57.9537L45.9441 57.9698C46.24 57.9537 46.24 57.9536 46.24 57.9537L46.2401 57.9544L46.2808 58.6011C46.3068 59.0176 46.3443 59.62 46.3898 60.3636C46.4808 61.8506 46.6041 63.902 46.7333 66.1597C46.9917 70.6739 47.2738 76.0168 47.3678 79.32L47.3693 79.3712L47.3507 79.4194C42.8413 91.087 36.0331 93.8251 33.0017 93.6676C31.9174 93.8788 30.6473 93.6823 29.3275 93.2531C27.9853 92.8166 26.5595 92.1286 25.1705 91.3327C22.4026 89.7466 19.7471 87.712 18.1376 86.3142C15.5198 84.6915 14.6551 82.2669 14.1592 80.3682C14.0864 80.0896 14.0196 79.814 13.957 79.5558C13.9142 79.3792 13.8733 79.2108 13.8339 79.0549C13.734 78.6602 13.6388 78.3288 13.5283 78.0678C13.4159 77.8023 13.3017 77.6451 13.1869 77.5637C13.0906 77.4955 12.9668 77.461 12.7576 77.5093C11.6514 77.7649 10.646 77.9473 9.80986 77.2518C9.40752 76.9172 9.06942 76.3992 8.7624 75.6565C8.45439 74.9114 8.1687 73.9177 7.88547 72.6091C7.42284 70.4715 7.89071 69.145 8.7617 68.3843C9.49289 67.7457 10.4547 67.5544 11.2221 67.5704L10.0794 58.5948L10.5364 58.7557C22.2822 62.8906 34.0419 61.3473 45.8504 57.7099L46.2173 57.5969L46.24 57.9537ZM45.6707 58.3421C34.0765 61.871 22.4361 63.3847 10.7821 59.4255L11.8969 68.1823L11.5216 68.1389C10.8245 68.0584 9.85399 68.1841 9.1689 68.7825C8.4991 69.3675 8.02747 70.4719 8.46677 72.5016C8.74724 73.7976 9.02525 74.7573 9.31618 75.461C9.60808 76.1671 9.90415 76.5932 10.2064 76.8446C10.7795 77.3213 11.4653 77.2432 12.6138 76.9779C12.9683 76.896 13.285 76.9429 13.5476 77.129C13.7917 77.3019 13.955 77.572 14.0804 77.8682C14.2076 78.1687 14.3107 78.5333 14.4111 78.9301C14.4537 79.0985 14.4953 79.2701 14.5381 79.447C14.5991 79.6985 14.6626 79.9608 14.7354 80.2397C15.2246 82.1126 16.0478 84.3684 18.4872 85.8712L18.5078 85.8839L18.5259 85.8996C20.1125 87.2796 22.7463 89.2989 25.4829 90.8671C26.8514 91.6512 28.237 92.3177 29.5243 92.7363C30.8171 93.1568 31.9786 93.3167 32.9147 93.1245L32.9562 93.116L32.9987 93.1186C35.6222 93.2802 42.2851 90.8563 46.7737 79.2832C46.6785 75.9844 46.3984 70.6803 46.1414 66.1886C46.0122 63.9318 45.8889 61.881 45.7979 60.3945C45.7524 59.6512 45.715 59.049 45.6889 58.6327L45.6707 58.3421Z" fill="black"/>
<path fill-rule="evenodd" clip-rule="evenodd" d="M30.0688 73.8645C30.0253 73.7987 29.9666 73.7177 29.8924 73.6245C29.6867 73.3664 29.3828 73.042 29.0051 72.7257C28.2345 72.0802 27.2448 71.5405 26.2144 71.5405C25.1841 71.5405 24.1944 72.0802 23.4238 72.7257C23.0461 73.042 22.7422 73.3664 22.5365 73.6245C22.4623 73.7177 22.4036 73.7987 22.3601 73.8645C22.396 73.9072 22.4418 73.9577 22.4979 74.0148C22.6966 74.2168 22.9949 74.4705 23.3703 74.7184C24.1281 75.2187 25.1362 75.654 26.2144 75.654C27.2927 75.654 28.3007 75.2187 29.0586 74.7184C29.4339 74.4705 29.7323 74.2168 29.931 74.0148C29.9871 73.9577 30.0328 73.9072 30.0688 73.8645ZM22.2803 74.0008C22.2805 74.0003 22.2807 73.9998 22.281 73.9992C22.2781 74.0075 22.277 74.0086 22.2803 74.0008ZM30.1479 73.9992C30.1482 73.9998 30.1484 74.0003 30.1486 74.0008C30.1519 74.0086 30.1508 74.0075 30.1479 73.9992ZM26.2144 76.2018C28.705 76.2018 30.7241 74.2063 30.7241 73.8866C30.7241 73.567 28.705 70.9927 26.2144 70.9927C23.7239 70.9927 21.7048 73.567 21.7048 73.8866C21.7048 74.2063 23.7239 76.2018 26.2144 76.2018Z" fill="black"/>
<path d="M28.4694 73.5972C28.4694 75.0357 27.7122 76.2018 26.7783 76.2018C25.8443 76.2018 25.0872 75.0357 25.0872 73.5972C25.0872 72.1588 25.8443 70.9927 26.7783 70.9927C27.7122 70.9927 28.4694 72.1588 28.4694 73.5972Z" fill="black"/>
<path fill-rule="evenodd" clip-rule="evenodd" d="M43.4121 66.7547C43.4543 66.9008 43.3602 67.0509 43.2021 67.0899L34.987 69.1143L36.1048 80.9933L36.0072 81.0836C35.3861 81.6575 33.5497 82.593 30.8475 82.2268C30.7906 82.2191 30.7332 82.2108 30.6755 82.2019L30.7701 81.6611L30.773 81.6615L30.9335 81.6848C30.934 81.6848 30.9344 81.6849 30.9348 81.685C33.3088 82.0063 34.9064 81.2432 35.4897 80.78L34.3533 68.7035L43.0493 66.5606C43.2075 66.5216 43.3699 66.6085 43.4121 66.7547ZM37.0775 85.8642C37.2179 85.942 37.2634 86.1102 37.1791 86.24C36.4384 87.3809 35.253 87.8009 34.1118 87.87C32.9789 87.9385 31.8608 87.6657 31.1712 87.3926C31.0207 87.333 30.951 87.172 31.0155 87.033C31.08 86.8939 31.2543 86.8295 31.4047 86.8891C32.0304 87.1369 33.0544 87.385 34.073 87.3233C35.0832 87.2622 36.0587 86.9008 36.6708 85.9581C36.755 85.8284 36.9371 85.7863 37.0775 85.8642Z" fill="black"/>
<path fill-rule="evenodd" clip-rule="evenodd" d="M43.8061 70.741C43.9565 70.8006 44.0262 70.9616 43.9617 71.1006C43.6598 71.7516 42.994 72.5985 41.9586 73.0031C40.8992 73.4171 39.5226 73.3417 37.88 72.2574C37.7468 72.1695 37.7159 71.9984 37.8111 71.8753C37.9062 71.7523 38.0914 71.7237 38.2246 71.8117C39.7387 72.8111 40.8987 72.8225 41.7277 72.4985C42.5808 72.1652 43.1551 71.4493 43.4169 70.8848C43.4813 70.7458 43.6556 70.6814 43.8061 70.741Z" fill="black"/>
<path d="M103.442 68.3881L104.569 59.5325C92.7313 63.6999 80.8936 62.1371 69.0559 58.4907C69.0559 58.4907 68.1164 73.2499 67.9285 79.8482C72.4381 91.5166 79.2025 94.0865 82.021 93.9128C86.0797 94.7463 93.4829 89.3982 96.6773 86.62C101.751 83.4946 100.059 77.2436 102.314 77.7645C104.569 78.2854 105.696 78.2854 106.824 73.0763C107.726 68.909 104.945 68.2144 103.442 68.3881Z" fill="white"/>
<path fill-rule="evenodd" clip-rule="evenodd" d="M68.7597 58.4747L69.0556 58.4908C68.7597 58.4747 68.7597 58.4746 68.7597 58.4747L68.7597 58.4754L68.719 59.1221C68.6929 59.5386 68.6555 60.141 68.61 60.8845C68.5189 62.3716 68.3956 64.423 68.2664 66.6807C68.0081 71.1949 67.726 76.5378 67.6319 79.841L67.6305 79.8922L67.6491 79.9404C72.1584 91.608 78.9667 94.3461 81.9981 94.1886C83.0823 94.3998 84.3525 94.2033 85.6723 93.7741C87.0144 93.3376 88.4402 92.6496 89.8292 91.8536C92.5971 90.2676 95.2526 88.233 96.8622 86.8352C99.4799 85.2125 100.345 82.7879 100.841 80.8892C100.913 80.6106 100.98 80.335 101.043 80.0768C101.086 79.9002 101.126 79.7318 101.166 79.5759C101.266 79.1812 101.361 78.8498 101.471 78.5888C101.584 78.3233 101.698 78.1661 101.813 78.0847C101.909 78.0165 102.033 77.982 102.242 78.0303C103.348 78.2859 104.354 78.4683 105.19 77.7728C105.592 77.4382 105.93 76.9202 106.237 76.1775C106.545 75.4324 106.831 74.4387 107.114 73.1301C107.577 70.9925 107.109 69.666 106.238 68.9053C105.507 68.2667 104.545 68.0754 103.778 68.0914L104.92 59.1158L104.463 59.2767C92.7175 63.4116 80.9578 61.8683 69.1494 58.2309L68.7825 58.1179L68.7597 58.4747ZM69.3291 58.8631C80.9232 62.392 92.5636 63.9057 104.218 59.9465L103.103 68.7033L103.478 68.6599C104.175 68.5794 105.146 68.7051 105.831 69.3035C106.501 69.8885 106.972 70.9929 106.533 73.0226C106.253 74.3186 105.975 75.2783 105.684 75.982C105.392 76.6881 105.096 77.1142 104.793 77.3656C104.22 77.8423 103.535 77.7642 102.386 77.4988C102.031 77.417 101.715 77.4639 101.452 77.65C101.208 77.8229 101.045 78.093 100.919 78.3892C100.792 78.6897 100.689 79.0543 100.589 79.4511C100.546 79.6195 100.504 79.7911 100.462 79.968C100.401 80.2195 100.337 80.4818 100.264 80.7607C99.7751 82.6336 98.952 84.8894 96.5126 86.3922L96.4919 86.4049L96.4739 86.4206C94.8873 87.8006 92.2535 89.8199 89.5168 91.3881C88.1484 92.1722 86.7627 92.8387 85.4755 93.2573C84.1827 93.6778 83.0211 93.8377 82.0851 93.6455L82.0435 93.637L82.0011 93.6396C79.3776 93.8012 72.7146 91.3773 68.226 79.8042C68.3213 76.5054 68.6013 71.2013 68.8584 66.7096C68.9876 64.4528 69.1108 62.402 69.2018 60.9155C69.2473 60.1722 69.2848 59.57 69.3108 59.1537L69.3291 58.8631Z" fill="black"/>
<path fill-rule="evenodd" clip-rule="evenodd" d="M84.9309 74.3855C84.9745 74.3197 85.0331 74.2387 85.1074 74.1455C85.3131 73.8874 85.617 73.563 85.9947 73.2467C86.7653 72.6012 87.7549 72.0615 88.7853 72.0615C89.8157 72.0615 90.8054 72.6012 91.576 73.2467C91.9536 73.563 92.2575 73.8874 92.4632 74.1455C92.5375 74.2387 92.5962 74.3197 92.6397 74.3855C92.6037 74.4282 92.558 74.4787 92.5018 74.5358C92.3032 74.7378 92.0048 74.9915 91.6294 75.2394C90.8716 75.7397 89.8636 76.175 88.7853 76.175C87.707 76.175 86.699 75.7397 85.9412 75.2394C85.5658 74.9915 85.2674 74.7378 85.0688 74.5358C85.0126 74.4787 84.9669 74.4282 84.9309 74.3855ZM92.7195 74.5218C92.7193 74.5213 92.719 74.5208 92.7188 74.5202C92.7216 74.5285 92.7228 74.5296 92.7195 74.5218ZM84.8519 74.5202C84.8516 74.5208 84.8514 74.5213 84.8511 74.5218C84.8479 74.5296 84.849 74.5285 84.8519 74.5202ZM88.7853 76.7228C86.2947 76.7228 84.2757 74.7273 84.2757 74.4076C84.2757 74.088 86.2947 71.5137 88.7853 71.5137C91.2759 71.5137 93.2949 74.088 93.2949 74.4076C93.2949 74.7273 91.2759 76.7228 88.7853 76.7228Z" fill="black"/>
<path d="M86.5304 74.1182C86.5304 75.5567 87.2875 76.7228 88.2215 76.7228C89.1555 76.7228 89.9126 75.5567 89.9126 74.1182C89.9126 72.6798 89.1555 71.5137 88.2215 71.5137C87.2875 71.5137 86.5304 72.6798 86.5304 74.1182Z" fill="black"/>
<path fill-rule="evenodd" clip-rule="evenodd" d="M71.5877 67.2757C71.5455 67.4218 71.6395 67.5719 71.7977 67.6109L80.0127 69.6353L78.8949 81.5143L78.9926 81.6046C79.6136 82.1785 81.45 83.114 84.1523 82.7478C84.2092 82.7401 84.2665 82.7318 84.3242 82.7229L84.2296 82.1821L84.2268 82.1825L84.0662 82.2058C84.0658 82.2058 84.0654 82.2059 84.0649 82.206C81.6909 82.5273 80.0934 81.7642 79.51 81.301L80.6464 69.2245L71.9504 67.0816C71.7923 67.0426 71.6298 67.1295 71.5877 67.2757ZM77.9223 86.3852C77.7819 86.463 77.7364 86.6312 77.8206 86.761C78.5614 87.9019 79.7468 88.3219 80.888 88.391C82.0209 88.4595 83.1389 88.1867 83.8285 87.9136C83.979 87.854 84.0487 87.693 83.9842 87.554C83.9197 87.4149 83.7455 87.3505 83.595 87.4101C82.9694 87.6579 81.9453 87.906 80.9267 87.8443C79.9165 87.7832 78.941 87.4218 78.3289 86.4791C78.2447 86.3494 78.0626 86.3073 77.9223 86.3852Z" fill="black"/>
<path fill-rule="evenodd" clip-rule="evenodd" d="M71.1937 71.262C71.0432 71.3216 70.9735 71.4826 71.038 71.6216C71.3399 72.2726 72.0058 73.1195 73.0411 73.5241C74.1005 73.9381 75.4772 73.8627 77.1197 72.7784C77.253 72.6905 77.2838 72.5194 77.1887 72.3963C77.0935 72.2732 76.9084 72.2447 76.7752 72.3327C75.261 73.3321 74.101 73.3435 73.272 73.0195C72.419 72.6862 71.8447 71.9703 71.5829 71.4058C71.5184 71.2668 71.3442 71.2024 71.1937 71.262Z" fill="black"/>
<path d="M104.629 59.4633C109.668 -7.64417 0.293424 -2.43992 10.3713 58.9155C13.6129 60.1561 15.6135 60.6484 19.5599 61.1068C11.7761 9.50833 99.8812 4.9311 96.2179 61.3807C99.2971 61.1494 101.258 60.6269 104.629 59.4633Z" fill="#034E98"/>
<path d="M10 50.5L19 54.5V58.5L10 55V50.5Z" fill="white"/>
<path d="M11 40.5L20 45.5L19 50L10 45.5L11 40.5Z" fill="white"/>
<path d="M15 31.5L24 37L21.5 41.5L12.5 36.5L15 31.5Z" fill="white"/>
<path d="M22.5 22.9999L29.5 30.4999L26.5 33.9999L18.5 27.4999L22.5 22.9999Z" fill="white"/>
<path d="M32 16.4999L37.5 25.4999L32.8383 28.2331L26.5 19.9999L32 16.4999Z" fill="white"/>
<path d="M43.2695 12.2425L46.2875 22.349L41.0822 23.8005L37.0578 14.2211L43.2695 12.2425Z" fill="white"/>
<path d="M55.5001 11L56.5001 21L51.0001 21.544L49.2108 11.3089L55.5001 11Z" fill="white"/>
<path d="M66.9999 12L65.9999 21.5L60.9891 20.5L60.9891 11L66.9999 12Z" fill="white"/>
<path d="M78.3042 14.6913L75.6359 24.3725L70.5001 22.5L72.1843 12.6415L78.3042 14.6913Z" fill="white"/>
<path d="M87.9998 20.5L82.4999 28.5001L78.4999 26.0001L83.4999 17.5L87.9998 20.5Z" fill="white"/>
<path d="M95.1186 27.1108L87.7458 33.4268L84.5235 29.982L91.5418 23.0542L95.1186 27.1108Z" fill="white"/>
<path d="M100 34.5001L92 39.5001L89.5 35.5001L97.6457 30.3446L100 34.5001Z" fill="white"/>
<path d="M103 43.0001L95.0002 46.0001L93.5002 42.0001L102 38.0001L103 43.0001Z" fill="white"/>
<path d="M104.5 50.5001L96 53.0001L95.6618 49.0165L104 46.5001L104.5 50.5001Z" fill="white"/>
<path d="M104.5 57L96.5002 59.5L96.5002 56L104.5 53.5L104.5 57Z" fill="white"/>
<path fill-rule="evenodd" clip-rule="evenodd" d="M10.6394 58.7214C13.6593 59.8688 15.6041 60.3538 19.2142 60.7897C17.3833 47.9843 21.4456 38.0582 28.5558 31.253C35.7248 24.3915 45.9711 20.7226 56.3353 20.4519C66.7001 20.1812 77.2069 23.3085 84.8952 30.0687C92.532 36.7837 97.3617 47.06 96.5334 61.0806C99.3299 60.8441 101.223 60.3412 104.346 59.2683C105.546 42.6561 99.6909 30.5406 90.4088 22.6401C81.0867 14.7055 68.2811 11 55.6177 11.2896C42.9538 11.5792 30.4609 15.8636 21.7652 23.8737C13.1068 31.8496 8.19117 43.5386 10.6394 58.7214ZM90.8104 22.2371C100.271 30.2896 106.19 42.6312 104.924 59.4822C104.916 59.5894 104.841 59.6823 104.732 59.7199C101.348 60.8881 99.359 61.4196 96.2419 61.6537C96.1563 61.6601 96.0719 61.6319 96.0105 61.5764C95.9492 61.5208 95.9169 61.4435 95.922 61.3642C96.8333 47.3219 92.0386 37.106 84.4866 30.4656C76.9287 23.8201 66.5826 20.7323 56.352 20.9995C46.1209 21.2667 36.0293 24.8888 28.9823 31.6335C21.942 38.3718 17.9192 48.2466 19.8534 61.0689C19.8662 61.1533 19.8357 61.2384 19.7709 61.2991C19.7061 61.3598 19.6144 61.3891 19.5229 61.3785C15.5522 60.9173 13.5257 60.4192 10.2578 59.1685C10.1619 59.1318 10.0938 59.0514 10.0782 58.9566C7.54534 43.5362 12.5184 31.6181 21.3467 23.4858C30.1668 15.361 42.813 11.0344 55.6031 10.742C68.3937 10.4495 81.357 14.1909 90.8104 22.2371Z" fill="black"/>
<path d="M96.5001 61.5C100.621 5.33389 11.2934 9.82671 19.5356 61.1786C21.9283 61.4524 23.7229 61.4524 27.2883 61.4524C20.9223 18.2667 92.9794 14.7541 89.9834 62C92.8132 62 93.6474 62.0095 96.5001 61.5Z" fill="#FFD301"/>
<circle cx="23.5" cy="49.5" r="2.5" fill="white"/>
<circle cx="23.5" cy="57.5" r="2.5" fill="white"/>
<circle cx="26.5" cy="41.5" r="2.5" fill="white"/>
<circle cx="30.5" cy="35.5" r="2.5" fill="white"/>
<circle cx="37.5" cy="29.5" r="2.5" fill="white"/>
<circle cx="46.5" cy="25.5" r="2.5" fill="white"/>
<circle cx="56.5" cy="24.5" r="2.5" fill="white"/>
<circle cx="67.5" cy="25.5" r="2.5" fill="white"/>
<circle cx="77.5" cy="29.5" r="2.5" fill="white"/>
<circle cx="84.5" cy="34.5" r="2.5" fill="white"/>
<circle cx="89.5" cy="41.5" r="2.5" fill="white"/>
<circle cx="92.5" cy="49.5" r="2.5" fill="white"/>
<circle cx="93.5" cy="57.5" r="2.5" fill="white"/>
<path fill-rule="evenodd" clip-rule="evenodd" d="M20.0895 60.676C22.258 60.9108 23.9758 60.9189 27.1836 60.9192C25.7009 50.3404 29 42.1537 34.7801 36.5536C40.61 30.9052 48.9422 27.909 57.3696 27.7246C65.7977 27.5402 74.3414 30.1677 80.5929 35.7911C86.798 41.3729 90.7194 49.8835 90.0535 61.4596C92.5601 61.4589 93.7458 61.4417 96.2851 61.0012C97.2394 47.3219 92.4786 37.3573 84.9471 30.8662C77.3712 24.3368 66.9646 21.2986 56.6718 21.5554C46.3784 21.8122 36.2246 25.3638 29.1558 31.9829C22.1324 38.5594 18.1329 48.1839 20.0895 60.676ZM85.3552 30.4738C93.0686 37.1217 97.8901 47.3184 96.8625 61.2451C96.8535 61.3673 96.7553 61.4687 96.6232 61.4922C93.7643 62 92.5547 62 89.7399 62C89.6582 62 89.5801 61.9693 89.524 61.9152C89.4679 61.8611 89.4388 61.7884 89.4436 61.7141C90.1826 50.1246 86.2937 41.6789 80.1756 36.1755C74.0528 30.6678 65.6716 28.0835 57.3839 28.2649C49.0955 28.4462 40.9209 31.3932 35.2127 36.9237C29.5103 42.4485 26.2475 50.5722 27.8161 61.1533C27.8275 61.2305 27.8018 61.3085 27.7454 61.3672C27.689 61.4259 27.6076 61.4596 27.5219 61.4596H27.5087C23.9821 61.4596 22.1843 61.4596 19.7914 61.1873C19.659 61.1723 19.5539 61.0786 19.5346 60.9585C17.4772 48.2123 21.5311 38.3472 28.7301 31.6062C35.922 24.8719 46.2307 21.2753 56.6555 21.0152C67.0809 20.7551 77.6481 23.8313 85.3552 30.4738Z" fill="black"/>
<path d="M89.6966 61.9284C93.0264 14.3465 20.7441 17.729 27.4037 61.2325C29.337 61.4645 33.5111 60.808 36.7812 60.2478C33.5111 29.1554 80.1837 30.2759 78.9946 60.808C81.3728 61.5126 87.0211 61.9284 89.6966 61.9284Z" fill="#F090BA"/>
<path fill-rule="evenodd" clip-rule="evenodd" d="M27.6654 60.9828C28.5967 61.0556 29.9877 60.9551 31.5526 60.7656C33.1474 60.5725 34.8933 60.2908 36.4608 60.0239C35.7115 52.3112 38.0263 46.5519 41.9498 42.7359C45.9116 38.8828 51.486 37.0384 57.1136 37.1448C62.7411 37.2512 68.4369 39.3082 72.652 43.2754C76.8326 47.2101 79.5409 53.0091 79.2983 60.6071C80.4755 60.9224 82.3413 61.1793 84.2641 61.3599C86.1632 61.5384 88.0918 61.6402 89.4181 61.6531C90.1721 49.9573 86.3132 41.4127 80.2227 35.8227C74.0827 30.1873 65.6489 27.5307 57.3079 27.6973C48.9661 27.8638 40.7384 30.8534 35.0117 36.4846C29.3284 42.073 26.0862 50.2846 27.6654 60.9828ZM80.6404 35.434C86.9137 41.1918 90.8295 49.9831 89.9924 61.9461C89.9823 62.0902 89.8529 62.2023 89.6966 62.2023C88.3464 62.2023 86.2551 62.0976 84.2041 61.9049C82.1599 61.7129 80.1256 61.4307 78.9041 61.0688C78.7776 61.0313 78.6936 60.9207 78.6984 60.7981C78.993 53.2336 76.3245 47.5138 72.229 43.6592C68.1297 39.8009 62.5847 37.7962 57.1015 37.6925C51.6183 37.5889 46.212 39.3859 42.3795 43.1133C38.5511 46.8367 36.2655 52.5136 37.0762 60.2212C37.0911 60.3627 36.9864 60.4911 36.8352 60.5171C35.1994 60.7973 33.3318 61.1026 31.6297 61.3088C29.9374 61.5137 28.3751 61.6253 27.3655 61.5041C27.2333 61.4883 27.1289 61.3928 27.1102 61.2709C25.4339 50.3206 28.7245 41.8669 34.5797 36.1094C40.4288 30.3579 48.8149 27.3189 57.2951 27.1496C65.7759 26.9803 74.3721 29.6808 80.6404 35.434Z" fill="black"/>
<path d="M79.4342 60.8329C80.3234 28.7857 32.009 29.8813 36.7515 60.2851C38.0647 60.4397 43.719 58.7412 45.9402 58.3677C47.1258 44.6723 69.0599 47.1375 69.0599 58.3677C70.6753 58.8375 77.6169 60.8329 79.4342 60.8329Z" fill="#E00819"/>
<path fill-rule="evenodd" clip-rule="evenodd" d="M37.0105 60.0202C37.1167 60.0173 37.2451 60.0077 37.396 59.9905C37.6696 59.9594 37.9982 59.9059 38.3688 59.835C39.11 59.6933 40.0028 59.4854 40.9298 59.2596C41.3737 59.1514 41.8264 59.0389 42.2735 58.9278C43.5638 58.607 44.808 58.2977 45.6643 58.1379C46.0128 54.7491 47.6262 52.3285 49.8765 50.7905C52.1655 49.2261 55.0906 48.59 57.9621 48.7472C63.6146 49.0564 69.2244 52.4704 69.354 58.166C70.2786 58.4337 72.2544 58.9983 74.2509 59.5126C75.331 59.7908 76.4142 60.0536 77.3389 60.2466C78.0856 60.4024 78.7107 60.5087 79.1444 60.5451C79.2912 52.7432 76.4806 46.9716 72.2655 43.1473C67.9959 39.2734 62.2657 37.3799 56.6498 37.4137C51.0332 37.4476 45.549 39.4086 41.7634 43.2226C38.0209 46.9931 35.9126 52.601 37.0105 60.0202ZM72.6809 42.7564C77.076 46.7441 79.9546 52.7606 79.7304 60.8399C79.7263 60.9884 79.5949 61.1068 79.4341 61.1068C78.9422 61.1068 78.137 60.9747 77.2083 60.7809C76.2699 60.5851 75.1761 60.3197 74.0917 60.0403C71.9224 59.4815 69.7795 58.8641 68.9709 58.629C68.8475 58.5931 68.7635 58.4873 68.7635 58.3677C68.7635 52.9541 63.4717 49.5974 57.9271 49.294C55.1669 49.143 52.3861 49.7567 50.229 51.2309C48.079 52.7003 46.5256 55.0398 46.2356 58.3896C46.2249 58.5133 46.1254 58.615 45.9932 58.6372C45.1654 58.7764 43.8512 59.103 42.4518 59.4508C41.9992 59.5633 41.5377 59.678 41.0809 59.7893C40.1525 60.0155 39.2467 60.2266 38.4889 60.3715C38.1101 60.4439 37.7642 60.5006 37.4685 60.5343C37.1779 60.5673 36.916 60.5806 36.714 60.5568C36.5818 60.5412 36.4771 60.446 36.4581 60.3242C35.2616 52.6536 37.4096 46.7986 41.3265 42.8523C45.2382 38.9112 50.8878 36.9006 56.6459 36.8659C62.4046 36.8313 68.2899 38.7725 72.6809 42.7564Z" fill="black"/>
<path d="M7.20068 61.9584C7.20068 61.9584 5.60624 62.2223 4.01181 62.4792C2.41737 62.7431 0.822934 63 0.822934 63L0.411467 60.4517C0.352686 59.9587 0.389424 59.542 0.536377 59.1601C0.683329 58.7921 0.925801 58.5213 1.22705 58.3061C1.53565 58.1047 1.92508 57.9867 2.34389 57.9519C2.77006 57.9242 3.14478 57.9728 3.49012 58.1255C3.83546 58.2783 4.12937 58.5074 4.3351 58.8338C4.54818 59.1324 4.70983 59.5212 4.76861 59.9795L4.98169 61.4724L3.90159 61.6321L3.69586 60.3128C3.65912 60.0628 3.58564 59.8615 3.48278 59.7156C3.36521 59.5629 3.23296 59.4448 3.05661 59.3823C2.88027 59.3129 2.69658 59.299 2.4835 59.3129C2.27042 59.3407 2.07938 59.3962 1.93243 59.5004C1.79282 59.6045 1.67526 59.7434 1.60178 59.917C1.53565 60.0906 1.52831 60.3267 1.5577 60.5767L1.6973 61.4863L6.99494 60.7433L7.20068 61.9584ZM6.53939 56.834C6.53939 56.834 4.93026 56.9382 3.31378 57.0354C1.70465 57.1256 0.102867 57.2298 0.102867 57.2298L0 52.7997L1.10949 52.8206L1.13888 55.7925L2.68188 55.7369L2.65249 53.0775L3.76933 53.0983L3.80607 55.7022L5.34173 55.6466L5.31234 52.8969L6.45122 52.9108L6.53939 56.834ZM3.82811 46.1893C4.51879 46.2866 5.09191 46.4879 5.54746 46.8073C5.98832 47.1129 6.31896 47.4878 6.51735 47.9253C6.73043 48.3697 6.79656 48.8488 6.74512 49.3418C6.69369 49.8626 6.52469 50.3208 6.24548 50.7027C5.94423 51.0985 5.54746 51.4179 5.05517 51.6263C4.54818 51.8623 3.94568 51.9596 3.24765 51.9387C2.54228 51.9109 1.95447 51.7651 1.46218 51.4804C0.984582 51.2096 0.631896 50.8138 0.40412 50.3347C0.183691 49.8834 0.0955192 49.3348 0.161648 48.7516C0.227776 48.1891 0.40412 47.6684 0.720068 47.2517C1.04336 46.8212 1.46953 46.5226 1.99855 46.3213C2.52024 46.1269 3.13744 46.0852 3.82811 46.1893ZM3.63708 47.4948C3.18152 47.4462 2.78475 47.46 2.46146 47.5642C2.13816 47.6475 1.88099 47.8072 1.68995 48.0364C1.50626 48.2586 1.38135 48.5363 1.34462 48.8557C1.31523 49.1821 1.37401 49.4737 1.51361 49.7445C1.64587 49.9875 1.88099 50.1959 2.1749 50.3556C2.47615 50.5014 2.85823 50.5916 3.32113 50.6194C3.77668 50.6472 4.15141 50.6055 4.47471 50.4944C4.79065 50.3833 5.05517 50.2236 5.22416 50.0084C5.40785 49.8001 5.51807 49.5362 5.54011 49.2376C5.57685 48.9391 5.51807 48.6682 5.38581 48.4252C5.26825 48.1822 5.04782 47.9808 4.74657 47.8281C4.45266 47.6545 4.08528 47.5503 3.63708 47.4948ZM7.16394 45.745C7.16394 45.745 5.5842 45.4811 3.99711 45.2242C2.41002 44.9673 0.822934 44.7034 0.822934 44.7034L1.36666 42.1759C1.47687 41.6968 1.66791 41.2941 1.94712 41.0163C2.21164 40.7038 2.52758 40.5233 2.90231 40.4261C3.26235 40.3219 3.65177 40.3358 4.06324 40.433C4.46736 40.5372 4.82004 40.7316 5.07721 40.9746C5.34907 41.2177 5.51807 41.5232 5.60624 41.8773C5.70911 42.2453 5.70911 42.655 5.60624 43.0925L5.26825 44.5923L4.1955 44.3909L4.48205 43.0786C4.54083 42.8356 4.54818 42.6272 4.49675 42.4606C4.44532 42.2662 4.35714 42.1273 4.21754 42.0023C4.08528 41.8912 3.90159 41.8079 3.7032 41.7593C3.49012 41.7107 3.29909 41.7176 3.12274 41.7593C2.9464 41.8148 2.78475 41.8912 2.66719 42.0509C2.53493 42.1967 2.45411 42.405 2.38798 42.6689L2.18959 43.5577L7.41376 44.5368L7.16394 45.745ZM8.39834 40.7108C8.39834 40.7108 6.84799 40.2872 5.30499 39.8775C3.76199 39.447 2.21164 39.0304 2.21164 39.0304L2.6378 37.7042L7.69297 39.2179L8.57468 36.8015L9.64009 37.1765L8.39834 40.7108ZM9.93399 36.4196C9.93399 36.4196 8.44243 35.8641 6.95086 35.3156C5.45929 34.7601 3.97507 34.1976 3.97507 34.1976L5.86341 30.1633L6.87003 30.6425L5.54011 33.3435L6.9582 33.8921L8.14117 31.4618L9.14045 31.927L7.98687 34.3087L9.39027 34.8712L10.6026 32.3784L11.6093 32.8436L9.93399 36.4196ZM13.0126 30.3508C13.0126 30.3508 11.6166 29.6148 10.2279 28.851C8.83185 28.115 7.44315 27.365 7.44315 27.365L8.18526 26.1568L12.7114 28.7468L14.1515 26.6012L15.0847 27.1984L13.0126 30.3508ZM11.1978 21.9143C11.1978 21.9143 12.4763 22.8239 13.7621 23.7265C15.0479 24.6292 16.3338 25.5319 16.3338 25.5319L15.577 26.5318C15.577 26.5318 14.2617 25.6569 12.9539 24.7889C11.646 23.921 10.3381 23.0391 10.3381 23.0391L11.1978 21.9143ZM16.9657 24.7334C16.9657 24.7334 15.7019 23.8029 14.4454 22.8794C13.189 21.942 11.9105 21.0185 11.9105 21.0185L12.8363 19.9422L15.0186 21.6365L15.07 21.574L14.5042 18.0813L15.6945 16.8662L16.128 20.4283L20.3382 21.0255L19.2802 22.1017L16.1795 21.7059L16.3705 22.6781L17.7886 23.7682L16.9657 24.7334ZM20.7864 20.5811C20.7864 20.5811 19.6476 19.5187 18.5013 18.4563C17.3698 17.4009 16.2236 16.3454 16.2236 16.3454L19.6035 13.318L20.3309 14.1165L18.0164 16.1232L19.0818 17.1648L21.1538 15.3455L21.8886 16.1371L19.8533 17.9216L20.9187 18.9632L23.0716 17.0884L23.799 17.9008L20.7864 20.5811ZM25.6726 8.97123L26.907 8.22826L29.0746 11.5682C29.3244 11.9431 29.4419 12.325 29.4419 12.7278C29.4419 13.1097 29.3317 13.4707 29.1333 13.8249C28.9056 14.1929 28.597 14.4915 28.1782 14.7623C27.7667 15.04 27.3552 15.2136 26.9291 15.283C26.5176 15.3386 26.1061 15.3039 25.724 15.1581C25.342 15.0261 24.9966 14.7761 24.7174 14.429L22.2045 11.3113L23.3728 10.4711L25.7461 13.5679C25.8783 13.7554 26.0473 13.8943 26.2457 13.9846C26.4368 14.0679 26.6498 14.1026 26.8629 14.0748C27.0834 14.054 27.3111 13.9776 27.5022 13.8388C27.7226 13.7068 27.8696 13.5332 27.9577 13.3527C28.0679 13.1652 28.1194 12.9708 28.0973 12.7625C28.0826 12.5542 28.0018 12.3597 27.8696 12.1653L25.6726 8.97123ZM32.021 7.48529C31.8814 7.27698 31.6977 7.17282 31.4552 7.14505C31.2054 7.11033 30.9335 7.16588 30.6396 7.31864C30.4339 7.42279 30.2722 7.53389 30.162 7.66582C30.0518 7.77692 29.9857 7.91579 29.9636 8.04078C29.9342 8.15882 29.9563 8.29075 30.0298 8.40879C30.0738 8.49212 30.1473 8.57544 30.2502 8.61711C30.331 8.65877 30.4339 8.69349 30.5441 8.70043C30.6617 8.70043 30.7792 8.68654 30.9115 8.6796C31.0437 8.65877 31.1907 8.62405 31.3303 8.58933L31.9108 8.43657C32.19 8.36019 32.4618 8.32547 32.7263 8.31853C32.9835 8.2977 33.2186 8.31158 33.4464 8.38796C33.6742 8.44351 33.8652 8.53378 34.0416 8.67265C34.2106 8.81847 34.3575 8.99206 34.4677 9.22121C34.6441 9.56145 34.6882 9.8878 34.6441 10.2142C34.5853 10.5336 34.4457 10.8321 34.1885 11.1099C33.946 11.4085 33.6081 11.6515 33.1745 11.8667C32.7484 12.0889 32.3296 12.2348 31.9254 12.2486C31.536 12.3042 31.1686 12.2556 30.838 12.1028C30.5 11.9501 30.2061 11.6723 29.9563 11.3043L31.0952 10.6933C31.2054 10.8669 31.3376 10.9849 31.514 11.0613C31.6683 11.1168 31.8446 11.1377 32.043 11.1238C32.2267 11.0891 32.4324 11.0404 32.6235 10.9363C32.8292 10.8321 32.9835 10.7141 33.1011 10.5961C33.2186 10.4572 33.2921 10.3322 33.3141 10.2003C33.3435 10.0544 33.3288 9.91557 33.2627 9.78364C33.1966 9.65171 33.1011 9.57533 32.9835 9.53367C32.8659 9.48506 32.7116 9.47812 32.5426 9.47812C32.3663 9.49895 32.1606 9.52673 31.9254 9.58228L31.2348 9.75587C30.6984 9.90169 30.2134 9.92252 29.802 9.84614C29.3832 9.78364 29.0599 9.5545 28.8247 9.15871C28.6117 8.84625 28.5455 8.51989 28.5896 8.17271C28.6337 7.83941 28.7954 7.50612 29.0599 7.17976C29.317 6.86035 29.6844 6.59649 30.1179 6.36735C30.5735 6.14516 30.9996 6.01323 31.4111 5.98545C31.8226 5.97156 32.19 6.02711 32.5059 6.20071C32.8219 6.35347 33.0496 6.5965 33.2333 6.92285L32.021 7.48529ZM39.229 5.62438L39.4421 6.24237L36.8116 7.17976L36.5545 6.57566L39.229 5.62438ZM46.246 2.59694C46.1431 2.31919 45.9374 2.11782 45.6361 2.00672C45.3202 1.90951 44.9601 1.88868 44.5634 1.972C44.2695 2.02755 44.0196 2.13171 43.8213 2.26364C43.6302 2.39557 43.498 2.55527 43.4024 2.72887C43.3216 2.9094 43.3069 3.08994 43.3584 3.27047C43.4098 3.43712 43.4759 3.55516 43.5861 3.65238C43.6963 3.74264 43.8286 3.81208 43.9903 3.86069C44.1225 3.8954 44.2695 3.93012 44.4311 3.94401C44.5854 3.97178 44.7177 3.97873 44.8499 3.97178L45.5333 3.99956C45.7096 3.99262 45.8933 4.01345 46.1284 4.05511C46.3415 4.07594 46.5546 4.14538 46.7677 4.24953C46.9807 4.33286 47.1718 4.45784 47.3114 4.63838C47.4804 4.79808 47.5832 5.02722 47.6347 5.31191C47.7008 5.63132 47.6641 5.9299 47.5392 6.22154C47.4216 6.50623 47.2232 6.77009 46.922 6.9784C46.6354 7.18671 46.2607 7.34641 45.8051 7.43668C45.379 7.53389 44.9969 7.54084 44.6589 7.49223C44.3062 7.42279 44.0123 7.29781 43.7625 7.09644C43.5274 6.90202 43.3437 6.63816 43.2261 6.33958L43.9829 6.14516C44.0637 6.35347 44.1886 6.52011 44.365 6.62427C44.5413 6.74926 44.7324 6.81869 44.9601 6.83952C45.1806 6.86035 45.4083 6.84647 45.6508 6.79092C45.9227 6.73537 46.1725 6.63121 46.3782 6.50623C46.5766 6.36735 46.7236 6.22154 46.8264 6.02711C46.922 5.84658 46.9513 5.63827 46.9073 5.42996C46.8705 5.22859 46.7824 5.08277 46.6427 4.97167C46.4884 4.87446 46.3195 4.79808 46.1211 4.75642C45.908 4.7217 45.6876 4.69393 45.4524 4.68698L44.6368 4.63838C44.1078 4.61755 43.6743 4.52728 43.3143 4.3398C42.9616 4.17315 42.7191 3.8954 42.6089 3.49961C42.5134 3.16632 42.5428 2.85385 42.675 2.5761C42.7999 2.27753 43.0204 2.01367 43.3363 1.79841C43.6449 1.56927 44.0123 1.41651 44.4311 1.34013C44.872 1.24292 45.2761 1.23597 45.6435 1.29847C45.9962 1.38179 46.3048 1.50678 46.5546 1.70815C46.7897 1.9234 46.9513 2.16643 47.0175 2.46501L46.246 2.59694ZM50.897 6.61038C50.4856 6.6451 50.1182 6.59649 49.7728 6.45068C49.4422 6.29792 49.1556 6.04794 48.9279 5.74242C48.6854 5.40913 48.5384 5.02722 48.4576 4.562C48.3768 4.07594 48.3988 3.66626 48.5237 3.29825C48.656 2.91635 48.8764 2.61082 49.1777 2.37474C49.4936 2.13171 49.8684 1.98589 50.3166 1.94423C50.7721 1.88174 51.1689 1.94423 51.5216 2.11782C51.8816 2.27058 52.1682 2.5275 52.3886 2.85385C52.6017 3.20104 52.7266 3.60377 52.7633 4.07594C52.7927 4.54117 52.7486 4.95084 52.6017 5.31886C52.4547 5.67993 52.2196 5.97851 51.9404 6.20765C51.6538 6.4229 51.3011 6.54789 50.897 6.61038ZM50.8162 5.98545C51.1248 5.95073 51.382 5.83269 51.5583 5.66604C51.7567 5.47856 51.889 5.25636 51.9698 4.99251C52.0433 4.7217 52.0653 4.43007 52.0359 4.13843C52.0065 3.83291 51.9257 3.55516 51.7934 3.2913C51.6759 3.04827 51.4848 2.85385 51.2424 2.72192C51.0219 2.56916 50.728 2.52056 50.39 2.56222C50.0667 2.59694 49.7949 2.71498 49.5965 2.9094C49.4055 3.08299 49.2732 3.31908 49.1997 3.59683C49.1336 3.86763 49.1336 4.15926 49.1777 4.45784C49.2291 4.75642 49.3246 5.02028 49.4642 5.27025C49.5891 5.52022 49.7728 5.70076 50.0153 5.83963C50.2431 5.97156 50.5076 6.02711 50.8162 5.98545ZM55.8567 6.28403C55.4379 6.29097 55.0631 6.20765 54.7619 6.00628C54.4386 5.82575 54.1741 5.55494 53.9904 5.20776C53.8067 4.86752 53.6891 4.47173 53.6597 4.02039C53.6303 3.54822 53.6965 3.13854 53.8581 2.79136C54.0271 2.4164 54.2696 2.13171 54.6002 1.91646C54.9309 1.7012 55.3203 1.58316 55.7759 1.57622C56.1212 1.57622 56.4298 1.63871 56.7163 1.75675C57.0029 1.87479 57.2307 2.0345 57.407 2.2567C57.5834 2.45806 57.6862 2.71498 57.723 2.99967L56.9735 2.99273C56.9221 2.79136 56.7972 2.60388 56.5841 2.45112C56.3931 2.28447 56.1212 2.20809 55.7905 2.20809C55.4966 2.21503 55.2321 2.29836 55.019 2.43029C54.806 2.58999 54.6443 2.78442 54.5341 3.04827C54.4239 3.31908 54.3725 3.61071 54.3798 3.9579C54.4092 4.31202 54.4827 4.6106 54.6002 4.86058C54.7398 5.11749 54.9015 5.31191 55.1219 5.45773C55.3276 5.58272 55.5848 5.65215 55.8567 5.6591C56.0477 5.65215 56.2094 5.61744 56.3563 5.548C56.518 5.48551 56.6355 5.40218 56.7384 5.28414C56.8413 5.15915 56.9147 5.01334 56.9662 4.86058H57.6936C57.6421 5.13138 57.5393 5.36746 57.385 5.56883C57.2233 5.79797 57.0102 5.95768 56.7531 6.08961C56.4959 6.20071 56.2094 6.2632 55.8567 6.28403ZM58.6855 6.21459L58.8765 1.67343L59.6407 1.70815L59.3909 6.24237L58.6855 6.21459ZM59.3027 0.930453C59.1337 0.923509 59.0235 0.874904 58.8986 0.770748C58.8031 0.673537 58.759 0.562438 58.759 0.437452C58.7663 0.305522 58.8178 0.194423 58.9353 0.111099C59.0529 0.0138874 59.1851 0 59.3468 0C59.4864 0 59.626 0.0347184 59.7289 0.138874C59.8391 0.243029 59.8832 0.354128 59.8832 0.486058C59.8758 0.611044 59.817 0.722143 59.6921 0.798523C59.5746 0.895735 59.4497 0.930453 59.3027 0.930453ZM62.0066 6.54095C61.7201 6.51317 61.4629 6.44373 61.2351 6.3118C61.0147 6.17987 60.8384 6.00628 60.7135 5.79797C60.5885 5.57577 60.5445 5.31191 60.5665 5.02028C60.5812 4.75642 60.6547 4.55505 60.7649 4.40924C60.8751 4.24259 61.0441 4.12455 61.2351 4.04816C61.4188 3.97178 61.6246 3.92318 61.8523 3.8954C62.0728 3.86763 62.3079 3.86069 62.5283 3.85374C62.8222 3.85374 63.0647 3.8468 63.241 3.8468C63.4247 3.86069 63.5717 3.83291 63.6599 3.79819C63.748 3.75653 63.8068 3.68015 63.8215 3.56211L63.8289 3.54822C63.8656 3.26353 63.7995 3.02744 63.6599 2.83996C63.5056 2.67332 63.2631 2.56222 62.9104 2.5275C62.5577 2.48584 62.2565 2.53444 62.0434 2.65943C61.8156 2.78442 61.6613 2.91634 61.5584 3.07605L60.8751 2.78442C61.0221 2.52056 61.2204 2.31919 61.4409 2.18032C61.676 2.05533 61.9258 1.96506 62.183 1.93034C62.4401 1.88868 62.712 1.87479 62.9545 1.90257C63.1161 1.91646 63.2998 1.95812 63.4982 2.02755C63.7039 2.06922 63.9023 2.16643 64.0787 2.29836C64.255 2.43029 64.402 2.61082 64.4975 2.84691C64.5783 3.06911 64.6077 3.36768 64.5416 3.72181L64.086 6.69371L63.3953 6.60344L63.4909 5.98545H63.4394C63.3806 6.07572 63.2925 6.17293 63.1676 6.2632C63.028 6.3743 62.881 6.43679 62.6826 6.50623C62.4916 6.56178 62.2565 6.56872 62.0066 6.54095ZM62.1756 5.9299C62.4548 5.97156 62.69 5.9299 62.8957 5.85352C63.1088 5.75631 63.2631 5.64521 63.4027 5.48551C63.5276 5.3258 63.6011 5.15221 63.6231 4.96473L63.7186 4.33286C63.6599 4.36063 63.6084 4.37452 63.4909 4.40924C63.388 4.42312 63.2631 4.43007 63.1235 4.43701C62.9986 4.44395 62.8663 4.44395 62.7267 4.4509C62.6018 4.44395 62.4989 4.4509 62.4181 4.4509C62.2344 4.4509 62.0507 4.47173 61.8817 4.50645C61.7054 4.54117 61.5805 4.60366 61.4629 4.70781C61.3527 4.80503 61.3013 4.93001 61.2792 5.11749C61.2498 5.35358 61.3307 5.54106 61.4923 5.67993C61.6686 5.82575 61.9038 5.90907 62.1756 5.9299ZM67.2161 1.04155C67.2161 1.04155 66.9222 2.53444 66.6209 4.02039C66.3417 5.51328 66.0478 6.99923 66.0478 6.99923L65.3498 6.88813C65.3498 6.88813 65.629 5.38829 65.9009 3.90235C66.1727 2.40946 66.4446 0.909622 66.4446 0.909622L67.2161 1.04155ZM69.6996 7.78386C69.6996 7.78386 70.1111 6.32569 70.5152 4.86058C70.9193 3.39546 71.3234 1.9234 71.3234 1.9234L73.5571 2.54139C74.0714 2.6872 74.4609 2.89551 74.7327 3.15937C75.0046 3.40935 75.1662 3.68015 75.225 4.01345C75.2765 4.32591 75.2397 4.65226 75.1222 4.98556C74.9899 5.33275 74.8136 5.60355 74.5637 5.80492C74.3213 6.02711 74.02 6.14516 73.6673 6.20071C73.3073 6.24931 72.8958 6.21459 72.4109 6.06878L70.743 5.60355L70.9267 4.95779L72.6019 5.42301C72.9399 5.52022 73.2118 5.55494 73.4395 5.54106C73.682 5.50634 73.8804 5.42301 74.02 5.28414C74.1743 5.15221 74.2919 4.97167 74.3653 4.73559C74.4535 4.50645 74.4829 4.28425 74.4388 4.08983C74.4094 3.8954 74.3066 3.70792 74.1155 3.54128C73.9392 3.38157 73.6747 3.25659 73.3293 3.15937L71.9406 2.76358L70.405 7.97829L69.6996 7.78386ZM73.344 5.97851L73.8657 9.02678L73.0648 8.75598L72.499 5.71465L73.344 5.97851ZM76.4006 10.0753C76.0039 9.90169 75.6879 9.68643 75.4675 9.38091C75.2397 9.08928 75.1075 8.74904 75.0854 8.37408C75.0487 7.99217 75.1148 7.56861 75.2838 7.13116C75.4601 6.69371 75.6953 6.34652 76.0039 6.07572C76.2904 5.80492 76.6578 5.63827 77.0399 5.57577C77.4367 5.49939 77.8334 5.54106 78.2596 5.71465C78.4947 5.80492 78.7151 5.94379 78.9209 6.10349C79.1119 6.27709 79.2736 6.49234 79.3911 6.73537C79.5013 6.9784 79.5381 7.25614 79.5307 7.56167C79.5087 7.87413 79.3985 8.22826 79.2074 8.61016L79.0752 8.87402L75.6953 7.49917L75.9377 6.93674L78.6711 8.02689C78.7886 7.78386 78.8107 7.56861 78.8033 7.33253C78.796 7.11033 78.7225 6.9159 78.5829 6.72842C78.4506 6.54789 78.2522 6.40207 78.0024 6.29097C77.7159 6.17987 77.4513 6.1521 77.1942 6.20765C76.937 6.24237 76.7166 6.35347 76.5182 6.51317C76.3198 6.67288 76.1876 6.88119 76.092 7.11727L75.9377 7.48529C75.8128 7.80469 75.7467 8.10327 75.7687 8.36019C75.7908 8.62405 75.8716 8.84625 76.0333 9.05456C76.1876 9.24204 76.3933 9.3948 76.6578 9.48507C76.8342 9.56145 76.9958 9.59616 77.1574 9.61005C77.3264 9.617 77.4807 9.60311 77.6203 9.5545C77.76 9.48507 77.9069 9.40174 78.0318 9.29759L78.5829 9.73504C78.4139 9.91557 78.2008 10.0544 77.9804 10.1447C77.7526 10.2211 77.5028 10.2628 77.2309 10.2628C76.9664 10.2489 76.6945 10.1725 76.4006 10.0753ZM84.7255 8.86708L80.8239 12.0056L80.1994 11.6862L80.7651 6.86035L81.5146 7.20754L80.9488 11.0127L80.9929 11.0335L84.0054 8.47129L84.7255 8.86708ZM84.483 14.1859C84.1377 13.9707 83.8879 13.7068 83.7262 13.3944C83.5793 13.0611 83.5205 12.7 83.5499 12.3181C83.594 11.9292 83.7483 11.5335 83.9981 11.1377C84.2626 10.7141 84.5565 10.4225 84.9018 10.2003C85.2692 9.9989 85.644 9.89474 86.0334 9.90863C86.4375 9.90863 86.8196 10.0267 87.209 10.2628C87.5837 10.5058 87.8482 10.7974 88.0172 11.1515C88.1715 11.4918 88.223 11.8598 88.1642 12.2486C88.0981 12.6444 87.9144 13.0125 87.6278 13.4082C87.3413 13.7832 87.0106 14.0748 86.6506 14.2623C86.2979 14.4498 85.9232 14.5401 85.5484 14.5331C85.1664 14.5192 84.821 14.3942 84.483 14.1859ZM84.8357 13.6721C85.1002 13.8388 85.3647 13.9012 85.6293 13.8804C85.8938 13.8596 86.1583 13.7763 86.3934 13.6166C86.6285 13.4569 86.8343 13.2555 87.0253 13.0125C87.209 12.7555 87.3413 12.4986 87.4147 12.2278C87.4809 11.9501 87.4662 11.6862 87.3927 11.4432C87.3045 11.1793 87.1208 10.971 86.8416 10.7974C86.5477 10.6169 86.2685 10.5474 85.9893 10.5683C85.7174 10.5822 85.4603 10.6933 85.2398 10.846C84.9974 11.0335 84.8063 11.2418 84.63 11.5057C84.461 11.7556 84.3508 12.0265 84.2773 12.2973C84.2259 12.5681 84.2406 12.825 84.3214 13.0611C84.4022 13.3041 84.5786 13.5055 84.8357 13.6721ZM91.5661 11.4571C91.5661 11.4571 90.5963 12.6583 89.619 13.8526C88.6418 15.0539 87.6646 16.2552 87.6646 16.2552L87.1061 15.8524C87.1061 15.8524 88.0687 14.6303 89.0312 13.4221C89.9791 12.2139 90.9489 11.0057 90.9489 11.0057L91.5661 11.4571ZM92.1907 17.4425L94.1011 15.4566L94.6668 15.9635L91.3825 19.2687L90.8534 18.8104L91.4045 18.241L91.3678 18.2133C91.1326 18.3105 90.8681 18.3452 90.5816 18.3313C90.295 18.3035 90.0305 18.1786 89.766 17.9633C89.5529 17.7897 89.3986 17.5883 89.3178 17.3453C89.2296 17.1162 89.2223 16.8662 89.2884 16.5954C89.3545 16.3176 89.5162 16.026 89.7807 15.7205L91.6984 13.4985L92.2936 13.9568L90.3758 16.1302C90.1481 16.3871 90.0452 16.644 90.0599 16.9148C90.0672 17.1856 90.1774 17.4147 90.3979 17.5953C90.5375 17.7064 90.7138 17.7828 90.9049 17.8453C91.1106 17.8869 91.3237 17.8939 91.5441 17.8383C91.7645 17.7758 91.9776 17.6508 92.1907 17.4425ZM97.1944 18.3869L96.7462 18.7827L94.9461 17.0398L95.3722 16.6093L97.1944 18.3869ZM96.7315 16.3593L97.29 16.894L94.0056 19.9006C93.8586 20.0256 93.7557 20.1714 93.7263 20.2686C93.6896 20.3866 93.697 20.4769 93.741 20.5602C93.7851 20.6505 93.8366 20.7269 93.91 20.8033C93.9615 20.8519 94.0129 20.9005 94.0496 20.9282C94.0864 20.956 94.1305 20.9769 94.1452 20.9907L93.7557 21.5185C93.719 21.5046 93.6602 21.4699 93.5867 21.4212C93.5133 21.3726 93.4324 21.3032 93.3443 21.206C93.212 21.0741 93.0945 20.9213 93.0357 20.7269C92.9695 20.5394 92.9548 20.338 92.9916 20.1297C93.043 19.9284 93.1606 19.72 93.3516 19.5465L96.7315 16.3593ZM94.4023 22.2267L97.988 19.2062L98.4876 19.7548L94.8652 22.7336L94.4023 22.2267ZM98.8403 18.984C98.7374 18.8799 98.6934 18.7479 98.6934 18.6091C98.7007 18.4632 98.7374 18.3591 98.8329 18.2688C98.9432 18.1855 99.0754 18.1438 99.215 18.1716C99.362 18.1786 99.4869 18.248 99.5898 18.3591C99.6853 18.4702 99.7441 18.5882 99.7294 18.734C99.7441 18.8729 99.6853 18.9771 99.5824 19.0604C99.4869 19.1507 99.3546 19.1715 99.215 19.1715C99.0681 19.1507 98.9432 19.0882 98.8403 18.984ZM96.7903 25.1014C96.5405 24.7889 96.3862 24.4626 96.3495 24.1223C96.3054 23.7543 96.3935 23.4002 96.5552 23.0461C96.7315 22.6919 97.0107 22.3656 97.3928 22.067C97.7822 21.7545 98.1717 21.574 98.5758 21.4907C98.9946 21.4004 99.3693 21.4282 99.7514 21.5532C100.119 21.6782 100.449 21.9212 100.729 22.2614C101 22.6017 101.155 22.9627 101.184 23.3377C101.214 23.7196 101.14 24.0737 100.942 24.4279C100.743 24.775 100.457 25.0875 100.031 25.3583C99.6191 25.6222 99.2224 25.7958 98.8183 25.8583C98.4141 25.9208 98.0247 25.893 97.672 25.761C97.3267 25.643 97.0328 25.4139 96.7903 25.1014ZM97.2973 24.7334C97.4957 24.9764 97.7161 25.1153 97.9806 25.1847C98.2378 25.2403 98.5097 25.2472 98.7962 25.1639C99.0754 25.0875 99.3399 24.9695 99.6044 24.7889C99.8543 24.6084 100.082 24.4001 100.251 24.164C100.405 23.9487 100.486 23.6918 100.494 23.4349C100.501 23.1641 100.405 22.9003 100.192 22.6364C99.9865 22.3864 99.7514 22.2267 99.4869 22.1642C99.215 22.1017 98.9285 22.1156 98.664 22.192C98.3774 22.2823 98.1055 22.4281 97.8484 22.6086C97.6059 22.803 97.4075 23.0252 97.2532 23.2613C97.0989 23.4905 97.0328 23.7404 97.0254 23.9904C97.0107 24.2404 97.1136 24.4834 97.2973 24.7334ZM101.515 26.5665L99.0828 28.0525L98.686 27.497L102.69 24.9695L103.095 25.5597L102.47 25.9485L102.507 25.9971C102.764 25.9624 103.036 26.011 103.286 26.1221C103.543 26.2402 103.771 26.4554 103.976 26.754C104.145 27.0387 104.241 27.3164 104.255 27.5872C104.27 27.865 104.189 28.115 104.035 28.351C103.866 28.5871 103.624 28.8024 103.256 29.0107L100.604 30.4272L100.251 29.8439L102.837 28.4066C103.175 28.233 103.374 28.0039 103.447 27.74C103.528 27.4761 103.469 27.1984 103.286 26.9137C103.168 26.7123 102.999 26.5596 102.808 26.4485C102.624 26.3651 102.419 26.3165 102.198 26.3374C101.978 26.3374 101.735 26.4207 101.515 26.5665ZM102.33 33.5866C102.33 33.5866 103.785 32.9478 105.233 32.295C106.68 31.6493 108.128 31.0035 108.128 31.0035L109.127 33.0866C109.311 33.5102 109.391 33.8852 109.369 34.1976C109.333 34.5448 109.222 34.8156 109.039 35.0309C108.855 35.26 108.605 35.4128 108.311 35.5239C108.062 35.6072 107.826 35.6488 107.628 35.6072C107.422 35.5864 107.239 35.5169 107.077 35.4128C106.93 35.3017 106.798 35.1836 106.673 35.0309L106.614 35.0586C106.68 35.2392 106.695 35.4336 106.643 35.6558C106.592 35.878 106.497 36.0794 106.32 36.2877C106.151 36.4821 105.909 36.6348 105.578 36.739C105.284 36.8501 104.99 36.8779 104.696 36.8432C104.402 36.8015 104.138 36.6696 103.888 36.4474C103.646 36.2391 103.425 35.9266 103.227 35.51L102.33 33.5866ZM103.271 33.9546L103.866 35.2531C104.057 35.6766 104.285 35.9544 104.527 36.0585C104.799 36.1835 105.064 36.1905 105.328 36.1002C105.527 36.0169 105.696 35.9058 105.821 35.7461C105.968 35.5794 106.041 35.3919 106.07 35.1628C106.092 34.9475 106.063 34.7115 105.945 34.4615L105.306 33.0727L103.271 33.9546ZM105.923 32.8089L106.519 34.0935C106.614 34.3087 106.724 34.4823 106.893 34.6212C107.048 34.7462 107.231 34.8503 107.415 34.8989C107.621 34.9336 107.834 34.9198 108.025 34.8364C108.297 34.7462 108.48 34.5517 108.583 34.3157C108.693 34.0657 108.664 33.7393 108.488 33.3435L107.856 31.9895L105.923 32.8089ZM102.801 39.2596C102.764 39.1554 102.735 39.0651 102.735 38.9749C102.727 38.8846 102.705 38.8221 102.727 38.7804L103.396 38.7318C103.403 38.9054 103.44 39.0374 103.491 39.1554C103.55 39.2665 103.646 39.3498 103.785 39.4123C103.91 39.4609 104.116 39.4956 104.373 39.5165H104.77L108.782 36.4613L109.061 37.2112L105.821 39.5373L105.835 39.5929L109.906 39.7873L110.141 40.5511L104.263 40.1275C103.984 40.1136 103.763 40.0859 103.572 40.0095C103.381 39.947 103.212 39.8428 103.08 39.7178C102.955 39.5929 102.867 39.4401 102.801 39.2596ZM106.217 44.8492C106.217 44.8492 107.804 44.5576 109.384 44.2729C110.964 43.9813 112.551 43.6896 112.551 43.6896L112.955 45.9602C113.029 46.4046 113.014 46.7935 112.896 47.099C112.786 47.4045 112.602 47.6545 112.367 47.8211C112.132 47.9947 111.853 48.078 111.53 48.1266C111.265 48.1544 111.037 48.1336 110.839 48.0503C110.648 47.9739 110.494 47.8628 110.369 47.7239C110.244 47.592 110.148 47.4323 110.075 47.2587L110.001 47.2795C110.016 47.46 109.972 47.6614 109.884 47.8628C109.766 48.0641 109.612 48.2447 109.391 48.3905C109.178 48.5433 108.899 48.6335 108.554 48.6682C108.245 48.696 107.944 48.6682 107.665 48.5502C107.393 48.453 107.165 48.2516 106.974 47.9878C106.798 47.7239 106.666 47.3698 106.599 46.9184L106.217 44.8492ZM107.048 45.4255L107.29 46.8212C107.356 47.2865 107.503 47.5989 107.716 47.7725C107.944 47.9461 108.194 48.0155 108.473 47.9808C108.693 47.96 108.877 47.8836 109.054 47.7517C109.23 47.6336 109.355 47.4739 109.443 47.2517C109.531 47.0504 109.553 46.8143 109.516 46.5504L109.252 45.0575L107.048 45.4255ZM109.928 44.9395L110.163 46.3213C110.2 46.5504 110.266 46.7518 110.376 46.9115C110.508 47.0781 110.663 47.217 110.824 47.3073C111.023 47.3906 111.221 47.4323 111.449 47.3976C111.728 47.3698 111.948 47.2378 112.125 47.0226C112.294 46.8004 112.345 46.481 112.279 46.0435L112.015 44.5854L109.928 44.9395ZM106.996 51.7304C106.974 51.3138 107.055 50.9458 107.239 50.6264C107.422 50.3 107.687 50.05 108.04 49.8487C108.4 49.6612 108.818 49.5432 109.311 49.5084C109.818 49.4668 110.259 49.5084 110.641 49.6542C111.037 49.7931 111.353 50.0153 111.588 50.3278C111.831 50.6403 111.956 51.0083 111.985 51.4457C111.993 51.6957 111.956 51.9318 111.897 52.1817C111.802 52.4248 111.677 52.6539 111.5 52.8414C111.309 53.0566 111.059 53.2094 110.758 53.3275C110.45 53.4455 110.06 53.508 109.612 53.508L109.303 53.5149L109.149 50.0153L109.796 49.9667L109.943 52.7997C110.207 52.7858 110.442 52.7234 110.648 52.6123C110.868 52.515 111.03 52.3553 111.155 52.1609C111.265 51.9526 111.317 51.7374 111.302 51.4804C111.302 51.1819 111.206 50.9388 111.045 50.7305C110.89 50.5361 110.692 50.3903 110.45 50.2931C110.222 50.1889 109.957 50.1542 109.693 50.175L109.259 50.2097C108.907 50.2375 108.598 50.3139 108.348 50.4458C108.106 50.5778 107.937 50.7583 107.812 50.9735C107.687 51.1749 107.643 51.4249 107.65 51.6957C107.657 51.8762 107.702 52.0359 107.753 52.1748C107.826 52.3206 107.9 52.4387 108.017 52.5498C108.128 52.647 108.275 52.7303 108.451 52.7858L108.245 53.4455C108.003 53.383 107.79 53.265 107.606 53.0983C107.43 52.9456 107.275 52.7511 107.158 52.5081C107.062 52.272 107.011 52.022 106.996 51.7304ZM106.952 56.3549C106.989 55.9452 107.106 55.5772 107.327 55.2856C107.533 54.9939 107.841 54.7509 108.201 54.5981C108.591 54.4315 109.017 54.3621 109.516 54.3621C110.016 54.3621 110.45 54.4523 110.817 54.6398C111.192 54.8203 111.493 55.0773 111.699 55.4036C111.897 55.723 111.985 56.1049 111.963 56.5354C111.956 56.7785 111.89 57.0284 111.794 57.2715C111.699 57.5006 111.544 57.7089 111.324 57.9033C111.126 58.0769 110.861 58.2089 110.545 58.2991C110.236 58.3894 109.84 58.4172 109.384 58.3686L109.09 58.3477L109.296 54.8551L109.935 54.8759L109.788 57.695C110.053 57.702 110.303 57.6811 110.53 57.5839C110.743 57.4937 110.934 57.3548 111.067 57.1812C111.199 56.9937 111.28 56.7646 111.302 56.5077C111.309 56.223 111.25 55.9591 111.103 55.7439C110.971 55.5355 110.795 55.3758 110.567 55.2509C110.325 55.1328 110.082 55.0773 109.818 55.0773L109.384 55.0634C109.024 55.0564 108.701 55.0981 108.458 55.2161C108.194 55.3203 108.003 55.4869 107.856 55.6744C107.716 55.8827 107.635 56.1188 107.621 56.3896C107.606 56.5632 107.643 56.7299 107.679 56.8826C107.724 57.0215 107.797 57.1604 107.9 57.2784C108.01 57.3895 108.15 57.4728 108.297 57.5492L108.04 58.188C107.812 58.1047 107.599 57.9728 107.437 57.7922C107.268 57.6117 107.136 57.4034 107.048 57.1604C106.967 56.9173 106.937 56.6604 106.952 56.3549ZM106.805 59.174L111.625 59.6809L111.53 60.3892L110.802 60.3058L110.795 60.3545C111.037 60.4586 111.199 60.653 111.309 60.8961C111.434 61.1321 111.464 61.396 111.412 61.6807C111.397 61.7432 111.397 61.8057 111.383 61.8821C111.368 61.9654 111.346 62.0279 111.339 62.0626L110.597 61.9446C110.589 61.9237 110.619 61.8682 110.641 61.7779C110.67 61.7015 110.699 61.6113 110.714 61.521C110.743 61.2919 110.729 61.0835 110.663 60.8961C110.597 60.7016 110.479 60.5558 110.332 60.4308C110.17 60.3059 109.979 60.2364 109.774 60.2017L106.71 59.8406L106.805 59.174Z" fill="black"/>
</svg>
